<?xml version="1.0" encoding="UTF-8"?>
<svg width="20px" height="20px" viewBox="0 0 20 20" version="1.1" xmlns="http://www.w3.org/2000/svg" xmlns:xlink="http://www.w3.org/1999/xlink">
    <!-- Generator: Sketch 52.2 (67145) - http://www.bohemiancoding.com/sketch -->
    <title>conception</title>
    <desc>Created with Sketch.</desc>
    <g id="Mad/Studio-Website" stroke="none" stroke-width="1" fill="none" fill-rule="evenodd">
        <g id="SVG" transform="translate(-991.000000, -499.000000)" fill="#FFFFFF">
            <path d="M995.760058,516.158476 C994.964307,515.347735 994.157606,514.523962 993.363681,513.714152 C997.110643,509.891291 1000.87129,506.055398 1004.62099,502.230674 C1005.41583,503.042346 1006.22162,503.866118 1007.01554,504.67779 C1003.27223,508.496928 999.512495,512.331891 995.760058,516.158476 Z M999.435292,506.216708 C998.811103,506.854317 998.196952,507.479825 997.53626,508.153736 C997.517096,508.115573 997.50067,508.057862 997.465993,508.017837 C995.779586,506.085463 994.095917,504.152158 992.536356,502.111809 C992.040838,501.463961 991.608285,500.765849 991.154744,500.084491 C991.081739,499.974655 991.040674,499.836894 991.008735,499.707511 C990.974058,499.566027 991.044325,499.485977 991.189421,499.521348 C991.306229,499.550203 991.430336,499.584643 991.527068,499.651662 C992.224262,500.136617 992.940619,500.59644 993.603136,501.126075 C995.610763,502.727078 997.515271,504.452811 999.414303,506.185991 C999.423429,506.193438 999.427992,506.204607 999.435292,506.216708 Z M1003.22898,509.794579 C1003.53195,510.121295 1003.82488,510.408918 1004.08496,510.725395 C1004.60511,511.354627 1005.11797,511.990374 1005.61167,512.641945 C1005.84072,512.944461 1006.01502,513.288863 1006.08893,513.675151 C1006.13091,513.894824 1006.07524,514.078195 1005.92011,514.233641 C1005.79509,514.359301 1005.67098,514.487754 1005.54779,514.616206 C1005.19828,514.979225 1004.98109,515.040659 1004.53028,514.8033 C1004.12785,514.590144 1003.71902,514.365817 1003.37407,514.071679 C1002.61026,513.421038 1001.88569,512.722926 1001.14561,512.044361 C1001.13283,512.032261 1001.12553,512.014575 1001.0945,511.966173 C1001.799,511.249445 1002.50623,510.529924 1003.22898,509.794579 Z M1010.38462,517.476511 C1009.03312,518.598145 1007.3823,518.66144 1006.23522,517.198197 C1005.90761,516.780261 1005.7908,516.280412 1005.83004,515.748916 C1005.83643,515.664212 1005.87932,515.567407 1005.9359,515.505043 C1006.17407,515.240691 1006.42229,514.983786 1006.67051,514.729673 C1006.71522,514.684063 1006.77636,514.633799 1006.83477,514.626352 C1007.38778,514.560264 1007.93075,514.60122 1008.43083,514.87488 C1008.92726,515.145748 1009.14445,515.614879 1009.24666,516.152891 C1009.28316,516.340916 1009.31784,516.529871 1009.34247,516.720689 C1009.39449,517.112562 1009.63358,517.316411 1009.9913,517.402977 C1010.11541,517.431832 1010.24226,517.450448 1010.38462,517.476511 Z M1008.883,502.763473 C1008.09911,501.959248 1007.29606,501.133614 1006.47294,500.288433 C1006.82153,499.951478 1007.16192,499.567051 1007.55706,499.255227 C1008.06444,498.856838 1008.76346,498.940612 1009.22339,499.396711 C1009.4278,499.60056 1009.62856,499.806271 1009.82476,500.018497 C1010.29199,500.522999 1010.33306,501.250897 1009.88499,501.773085 C1009.57837,502.129588 1009.21609,502.436757 1008.883,502.763473 Z M992.711841,514.375032 C993.515804,515.195081 994.31703,516.013268 995.122819,516.834248 C994.50958,517.079053 993.879002,517.332235 993.2466,517.57797 C993.206447,517.593794 993.129793,517.568662 993.096028,517.534222 C992.735568,517.173996 992.378758,516.810047 992.02651,516.442374 C991.989095,516.404211 991.959894,516.316714 991.97632,516.272035 C992.21176,515.640942 992.455412,515.014503 992.698153,514.387133 C992.701803,514.376894 992.715491,514.372239 992.711841,514.375032 Z M1008.24266,503.446972 C1008.06015,503.634066 1007.86851,503.831399 1007.69239,504.011977 C1006.88569,503.190066 1006.07625,502.363502 1005.26863,501.539729 C1005.44293,501.365667 1005.64096,501.167403 1005.82621,500.983101 C1006.62287,501.795704 1007.43231,502.620407 1008.24266,503.446972 Z M991.183033,518.384615 C991.287977,517.95644 991.382883,517.56829 991.472314,517.20341 C991.760682,517.494755 992.049963,517.786101 992.348369,518.087685 C991.977871,518.180767 991.600072,518.278502 991.183033,518.384615 Z" id="conception"></path>
        </g>
    </g>
</svg>