<?xml version="1.0" encoding="UTF-8"?>
<svg width="23px" height="15px" viewBox="0 0 23 15" version="1.1" xmlns="http://www.w3.org/2000/svg" xmlns:xlink="http://www.w3.org/1999/xlink">
    <!-- Generator: Sketch 52.2 (67145) - http://www.bohemiancoding.com/sketch -->
    <title>development</title>
    <desc>Created with Sketch.</desc>
    <g id="Mad/Studio-Website" stroke="none" stroke-width="1" fill="none" fill-rule="evenodd">
        <g id="SVG" transform="translate(-990.000000, -611.000000)" fill="#FFFFFF">
            <path d="M1006.15249,621.286733 C1005.99592,621.432722 1005.83852,621.602656 1005.7569,621.789583 C1005.58451,622.186611 1005.7719,622.649295 1006.14416,622.865575 C1006.54391,623.098076 1007.07025,623.027785 1007.46251,622.663972 C1008.91077,621.322264 1010.3557,619.976695 1011.79563,618.626491 C1012.27367,618.178483 1012.27117,617.684129 1011.80063,617.231486 C1011.38672,616.832914 1010.95782,616.4467 1010.53642,616.055079 C1009.49124,615.084137 1008.44939,614.110878 1007.40171,613.143026 C1007.04693,612.815516 1006.53725,612.755267 1006.15332,612.980816 C1005.78106,613.199413 1005.58535,613.667504 1005.75607,614.055263 C1005.84435,614.254549 1006.00758,614.436842 1006.17331,614.592873 C1007.35257,615.69899 1008.54183,616.795837 1009.75774,617.924354 C1008.536,619.06214 1007.34008,620.170574 1006.15249,621.286733 Z M992.751367,617.579757 C993.872432,616.549155 994.990165,615.516235 996.102069,614.478679 C996.557658,614.053769 996.579313,613.486706 996.172031,613.105831 C995.787238,612.745043 995.163406,612.756631 994.721976,613.163001 C993.289411,614.480997 991.860178,615.803629 990.441773,617.135532 C989.836264,617.70414 989.858752,618.164589 990.475088,618.737059 C991.860178,620.024926 993.249433,621.308929 994.632857,622.599113 C995.123427,623.056472 995.722273,623.132956 996.13705,622.774486 C996.589307,622.383568 996.558491,621.789465 996.047931,621.31202 C995.288339,620.599714 994.523749,619.892817 993.756661,619.186693 C993.314398,618.778005 992.863806,618.376271 992.309937,617.873331 C992.499002,617.748948 992.642259,617.68019 992.751367,617.579757 Z M1000.03893,624.92339 C1000.62711,622.954115 1001.21382,620.98324 1001.80054,619.012364 C1002.46387,616.783027 1003.12867,614.552889 1003.78763,612.321951 C1003.95401,611.757815 1003.75771,611.277699 1003.29943,611.07525 C1002.79664,610.851997 1002.3296,611.135265 1002.13257,611.795424 C1001.25834,614.72413 1000.38702,617.654437 999.513515,620.584744 C999.131129,621.867453 998.741445,623.148562 998.364897,624.433672 C998.15692,625.142643 998.537847,625.774795 999.154481,625.769194 C999.590868,625.765193 999.863793,625.509131 1000.03893,624.92339 Z" id="development"></path>
        </g>
    </g>
</svg>