<?xml version="1.0" encoding="UTF-8"?>
<svg width="15px" height="17px" viewBox="0 0 15 17" version="1.1" xmlns="http://www.w3.org/2000/svg" xmlns:xlink="http://www.w3.org/1999/xlink">
    <!-- Generator: Sketch 52.2 (67145) - http://www.bohemiancoding.com/sketch -->
    <title>growth</title>
    <desc>Created with Sketch.</desc>
    <g id="Mad/Studio-Website" stroke="none" stroke-width="1" fill="none" fill-rule="evenodd">
        <g id="SVG" transform="translate(-993.000000, -692.000000)" fill="#FFFFFF">
            <path d="M997.72305,701.604487 C997.841585,702.424771 997.957413,703.228054 998.079195,704.072777 C998.515445,703.584007 998.767128,702.938511 999.53192,703.021921 C999.272118,702.609654 998.997161,702.197918 998.749267,701.771837 C998.591221,701.500357 998.471604,701.206564 998.336832,700.921802 C998.314099,700.874518 998.276752,700.818204 998.287036,700.774639 C998.364436,700.430906 998.118706,700.202459 997.994218,699.928323 C997.735499,699.356674 997.483275,698.781306 997.257572,698.195844 C997.142285,697.897269 997.056767,697.576381 997.339842,697.29215 C997.380978,697.251242 997.349585,697.135425 997.342549,697.055203 C997.305744,696.630185 997.252159,696.20623 997.231051,695.780149 C997.198575,695.120309 997.470285,694.568317 997.921149,694.098673 C998.34495,693.656654 998.856976,693.333109 999.420963,693.088724 C999.593622,693.013815 999.763576,692.962281 999.936236,693.09935 C999.968711,693.125382 1000.04449,693.106787 1000.09807,693.097225 C1000.19874,693.080755 1000.29779,693.056317 1000.39414,693.035597 C1000.52512,692.904904 1000.67072,692.759335 1000.83796,692.591453 C1000.93756,692.743397 1000.9933,692.839026 1001.05934,692.92828 C1001.23903,693.171603 1001.46311,693.349579 1001.77217,693.417582 C1003.24275,693.741126 1003.97669,695.004492 1003.80349,696.389518 C1003.78293,696.552619 1003.75695,696.716251 1003.72447,696.877758 C1003.67792,697.106205 1003.59619,697.318182 1003.71635,697.566818 C1003.78184,697.70123 1003.72609,697.905769 1003.68983,698.071526 C1003.51555,698.869497 1003.09553,699.552182 1002.63168,700.214147 C1002.57268,700.298619 1002.55211,700.412843 1002.52613,700.51591 C1002.49366,700.644478 1002.49961,700.787921 1002.44441,700.904801 C1002.26796,701.277223 1002.08772,701.650176 1001.87663,702.004003 C1001.66933,702.351987 1001.42198,702.677656 1001.18328,703.02564 C1001.60763,702.858289 1001.90802,703.068673 1002.17053,703.348653 C1002.35023,703.540442 1002.50448,703.754545 1002.7172,704.017525 C1002.83898,703.194053 1002.95372,702.417333 1003.06252,701.682052 C1003.68225,701.936532 1004.32472,702.203762 1004.97044,702.46196 C1005.18856,702.549089 1005.4213,702.602216 1005.63834,702.692001 C1006.1796,702.916729 1006.56713,703.297651 1006.83722,703.812985 C1007.31623,704.728898 1007.61446,705.696876 1007.75897,706.7132 C1007.80498,707.040995 1007.70539,707.217909 1007.31136,707.373572 C1006.88972,707.541454 1006.45401,707.696054 1006.01018,707.788495 C1003.87007,708.232639 1001.69856,708.341018 999.520012,708.25814 C998.263762,708.211388 997.008595,708.098227 995.757217,707.970722 C994.983766,707.893156 994.222763,707.720492 993.506685,707.40226 C993.376784,707.344352 993.235516,707.275817 993.146751,707.172219 C993.063398,707.075528 992.987622,706.919865 993.001695,706.80086 C993.131055,705.705377 993.4531,704.668333 993.99706,703.696105 C994.302869,703.148895 994.766723,702.807818 995.343699,702.611779 C996.164781,702.332329 996.985863,702.058724 997.72305,701.604487" id="growth"></path>
        </g>
    </g>
</svg>