<?xml version="1.0" encoding="UTF-8"?>
<svg width="10px" height="17px" viewBox="0 0 10 17" version="1.1" xmlns="http://www.w3.org/2000/svg" xmlns:xlink="http://www.w3.org/1999/xlink">
    <!-- Generator: Sketch 52.2 (67145) - http://www.bohemiancoding.com/sketch -->
    <title>strategy</title>
    <desc>Created with Sketch.</desc>
    <g id="Mad/Studio-Website" stroke="none" stroke-width="1" fill="none" fill-rule="evenodd">
        <g id="SVG" transform="translate(-996.000000, -651.000000)" fill="#FFFFFF">
            <path d="M1005.24464,666.744 C1005.23633,666.707077 1005.2271,666.681231 1005.22433,666.653538 C1005.14587,665.866154 1005.0591,662.950154 1004.99264,662.160923 C1004.94095,661.547077 1004.91879,660.927692 1005.08956,660.327692 C1005.21603,659.880923 1005.39972,659.451692 1005.52987,659.005846 C1006.09479,657.066462 1005.93787,655.221231 1004.80249,653.500615 C1004.20526,652.596 1003.41326,651.981231 1002.32218,651.832615 C1001.94372,651.78 1001.59295,651.713538 1001.2911,651.463385 C1001.20803,651.396 1001.09449,651.362769 1000.9911,651.325846 C1000.61541,651.190154 1000.51387,651.025846 1000.09572,651 C999.860333,651.521538 1000.01449,652.079077 1000.11603,652.577538 C999.730179,652.729846 999.360026,652.876615 998.989872,653.021538 C998.800641,653.095385 998.650179,653.198769 998.59941,653.415692 C998.578179,653.507077 998.534795,653.603077 998.475718,653.676923 C998.376026,653.801538 998.266179,653.922462 998.142487,654.023077 C997.462179,654.573231 996.776333,655.116 996.095103,655.665231 C996.053564,655.697538 996.009256,655.756615 996.008333,655.803692 C995.999103,656.152615 996.000026,656.502462 996.000026,656.851385 C996.000026,657.064615 996.101564,657.234462 996.274179,657.336923 C996.647103,657.557538 997.042179,657.732 997.476949,657.793846 C997.718795,657.828 997.926487,657.766154 998.124949,657.608308 C998.392641,657.394154 998.684333,657.212308 998.970487,657.022154 C999.00741,656.996308 999.078487,656.982462 999.11541,657 C999.633256,657.262154 1000.18803,657.340615 1000.75941,657.330462 C1000.99203,657.325846 1001.22464,657.299077 1001.51172,657.277846 C999.050795,659.130462 997.837872,663.697846 997.841564,666.745846 C997.841564,666.745846 1001.19603,668.130462 1005.24464,666.744" id="strategy"></path>
        </g>
    </g>
</svg>