<?xml version="1.0" encoding="UTF-8"?>
<svg width="16px" height="11px" viewBox="0 0 16 11" version="1.1" xmlns="http://www.w3.org/2000/svg" xmlns:xlink="http://www.w3.org/1999/xlink">
    <!-- Generator: Sketch 52.2 (67145) - http://www.bohemiancoding.com/sketch -->
    <title>Shape</title>
    <desc>Created with Sketch.</desc>
    <g id="Mad/Studio-Website" stroke="none" stroke-width="1" fill="none" fill-rule="evenodd">
        <g id="02_Menu" transform="translate(-1011.000000, -605.000000)" fill="#FFFFFF" fill-rule="nonzero">
            <g id="arrow-left" transform="translate(716.100148, 251.000000)">
                <path d="M302.440346,352.182768 L298.09227,356.30323 C297.835712,356.551337 297.835712,356.953738 298.09227,357.201844 C298.348827,357.449951 298.764935,357.449951 299.021493,357.201844 L302.246332,354.147869 L302.246332,366.087273 C302.242503,366.31563 302.366314,366.526705 302.570539,366.641501 C302.773487,366.757531 303.026216,366.757531 303.229164,366.641501 C303.433389,366.526705 303.557201,366.31563 303.553371,366.087273 L303.553371,354.147869 L306.77821,357.201844 C307.034768,357.449951 307.450876,357.449951 307.707433,357.201844 C307.963991,356.953738 307.963991,356.551337 307.707433,356.30323 L303.359358,352.182768 L303.359358,352.182768 C303.104728,351.931054 302.694975,351.931054 302.440346,352.182768 Z" id="Shape" transform="translate(302.899852, 359.364262) scale(-1, 1) rotate(90.000000) translate(-302.899852, -359.364262) "></path>
            </g>
        </g>
    </g>
</svg>