<?xml version="1.0" encoding="UTF-8"?>
<svg width="17px" height="10px" viewBox="0 0 17 10" version="1.1" xmlns="http://www.w3.org/2000/svg" xmlns:xlink="http://www.w3.org/1999/xlink">
    <!-- Generator: Sketch 52.2 (67145) - http://www.bohemiancoding.com/sketch -->
    <title>Burger</title>
    <desc>Created with Sketch.</desc>
    <g id="Mad/Studio-Website" stroke="none" stroke-width="1" fill="none" fill-rule="evenodd">
        <g id="05_11_FredParis" transform="translate(-903.000000, -319.000000)" fill="#FFFFFF">
            <path d="M907.646465,327.484848 L917.242424,327.484848 C917.660822,327.484848 918,327.824027 918,328.242424 C918,328.660822 917.660822,329 917.242424,329 L907.646465,329 C907.228067,329 906.888889,328.660822 906.888889,328.242424 C906.888889,327.824027 907.228067,327.484848 907.646465,327.484848 Z M903.757576,323.242424 L918.909091,323.242424 C919.327488,323.242424 919.666667,323.581602 919.666667,324 C919.666667,324.418398 919.327488,324.757576 918.909091,324.757576 L903.757576,324.757576 C903.339178,324.757576 903,324.418398 903,324 C903,323.581602 903.339178,323.242424 903.757576,323.242424 Z M905.424242,319 L915.020202,319 C915.4386,319 915.777778,319.339178 915.777778,319.757576 C915.777778,320.175973 915.4386,320.515152 915.020202,320.515152 L905.424242,320.515152 C905.005845,320.515152 904.666667,320.175973 904.666667,319.757576 C904.666667,319.339178 905.005845,319 905.424242,319 Z" id="Burger"></path>
        </g>
    </g>
</svg>