<?xml version="1.0" encoding="UTF-8"?>
<svg width="14px" height="14px" viewBox="0 0 14 14" version="1.1" xmlns="http://www.w3.org/2000/svg" xmlns:xlink="http://www.w3.org/1999/xlink">
    <!-- Generator: Sketch 52.2 (67145) - http://www.bohemiancoding.com/sketch -->
    <title>Burger</title>
    <desc>Created with Sketch.</desc>
    <g id="Mad/Studio-Website" stroke="none" stroke-width="1" fill="none" fill-rule="evenodd">
        <g id="02_Menu" transform="translate(-1348.000000, -78.000000)" fill="#FFFFFF">
            <g id="Group" transform="translate(1330.000000, 60.000000)">
                <g id="Group-2" transform="translate(16.666667, 24.000000)">
                    <g id="Burger-2">
                        <path d="M7.26195942,1 L2.44077682,-3.8211826 C2.14492509,-4.11703434 2.14492509,-4.59670477 2.44077682,-4.89255651 C2.73662856,-5.18840825 3.216299,-5.18840825 3.51215073,-4.89255651 L8.33333333,-0.0713739109 L13.1545159,-4.89255651 C13.4503677,-5.18840825 13.9300381,-5.18840825 14.2258898,-4.89255651 C14.5217416,-4.59670477 14.5217416,-4.11703434 14.2258898,-3.8211826 L9.40470724,1 L14.2258898,5.8211826 C14.5217416,6.11703434 14.5217416,6.59670477 14.2258898,6.89255651 C13.9300381,7.18840825 13.4503677,7.18840825 13.1545159,6.89255651 L8.33333333,2.07137391 L3.51215073,6.89255651 C3.216299,7.18840825 2.73662856,7.18840825 2.44077682,6.89255651 C2.14492509,6.59670477 2.14492509,6.11703434 2.44077682,5.8211826 L7.26195942,1 Z" id="Burger"></path>
                    </g>
                </g>
            </g>
        </g>
    </g>
</svg>