<?xml version="1.0" encoding="utf-8" ?>
<svg xmlns="http://www.w3.org/2000/svg" xmlns:xlink="http://www.w3.org/1999/xlink" viewBox="0 0 200 50">
  <path fill="rgb(255,255,255)" stroke="none" transform="translate(0.824402 2.64999)" d="M25.561 23.03C25.561 22.715 25.6634 22.4 25.8341 22.05L34.7122 1.75C35.1902 0.665 36.0439 0 37.239 0L37.4439 0C38.639 0 39.4585 0.665 39.9366 1.75L48.8146 22.05C48.9854 22.365 49.0536 22.68 49.0536 22.96C49.0536 24.115 48.2 25.025 47.0732 25.025C46.0829 25.025 45.4 24.43 45.0244 23.52L43.078 18.935L31.4683 18.935L29.4537 23.66C29.1122 24.535 28.3951 25.025 27.5073 25.025C26.4146 25.025 25.561 24.15 25.561 23.03ZM0 22.925L0 2.38C0 1.19 0.921952 0.21 2.11707 0.21L2.56098 0.21C3.48293 0.21 4.09756 0.7 4.50732 1.365L11.7463 12.985L19.0195 1.33C19.4634 0.595 20.0781 0.21 20.9317 0.21L21.3756 0.21C22.5707 0.21 23.4927 1.19 23.4927 2.38L23.4927 22.89C23.4927 24.08 22.5707 25.025 21.3756 25.025C20.2488 25.025 19.2927 24.045 19.2927 22.89L19.2927 8.19L13.4537 17.185C13.0098 17.885 12.4634 18.305 11.6781 18.305C10.9268 18.305 10.3805 17.885 9.93659 17.185L4.13171 8.26L4.13171 22.925C4.13171 24.115 3.20976 25.025 2.04878 25.025C0.887805 25.025 0 24.115 0 22.925ZM51.1561 22.68L51.1561 2.52C51.1561 1.295 52.0781 0.35 53.2732 0.35L60.0683 0.35C67.5805 0.35 72.7707 5.635 72.7707 12.53L72.7707 12.6C72.7707 19.495 67.5805 24.85 60.0683 24.85L53.2732 24.85C52.0781 24.85 51.1561 23.905 51.1561 22.68ZM88.4343 1.68419L86.1423 0.85L70.7514 43.1362L73.0434 43.9704L88.4343 1.68419ZM60.0683 20.93L55.3561 20.93L55.3561 4.27L60.0683 4.27C65.0878 4.27 68.3658 7.805 68.3658 12.6L68.3658 12.67C68.3658 17.465 65.0878 20.93 60.0683 20.93ZM37.2732 5.215L41.4732 15.12L33.0732 15.12L37.2732 5.215ZM164.834 37.4L164.834 16.75C164.834 15.28 163.673 14.09 162.239 14.09C160.805 14.09 159.644 15.28 159.644 16.75L159.644 23.54C158.415 22.035 156.707 20.74 153.941 20.74C149.605 20.74 145.61 24.17 145.61 30.435L145.61 30.505C145.61 36.77 149.673 40.2 153.941 40.2C156.639 40.2 158.38 38.905 159.644 37.155L159.644 37.4C159.644 38.87 160.805 40.06 162.239 40.06C163.673 40.06 164.834 38.87 164.834 37.4ZM169.41 16.61L169.41 16.68C169.41 18.22 170.673 19.2 172.312 19.2C173.951 19.2 175.215 18.22 175.215 16.68L175.215 16.61C175.215 15.07 173.951 14.125 172.312 14.125C170.673 14.125 169.41 15.07 169.41 16.61ZM98.3512 40.2C95.2098 40.2 92.0341 39.22 89.3707 37.26C88.7903 36.84 88.3805 36.07 88.3805 35.23C88.3805 33.83 89.4732 32.745 90.839 32.745C91.522 32.745 92 32.99 92.3415 33.235C94.1512 34.6 96.1317 35.44 98.4537 35.44C100.605 35.44 101.902 34.565 101.902 33.13L101.902 33.06C101.902 31.695 101.083 30.995 97.0878 29.945C92.2732 28.685 89.1659 27.32 89.1659 22.455L89.1659 22.385C89.1659 17.94 92.6488 15 97.5317 15C100.434 15 102.961 15.77 105.112 17.17C105.693 17.52 106.273 18.255 106.273 19.305C106.273 20.705 105.18 21.79 103.815 21.79C103.302 21.79 102.893 21.65 102.483 21.405C100.741 20.355 99.1024 19.76 97.4634 19.76C95.4488 19.76 94.3903 20.705 94.3903 21.895L94.3903 21.965C94.3903 23.575 95.4146 24.1 99.5463 25.185C104.395 26.48 107.127 28.265 107.127 32.535L107.127 32.605C107.127 37.47 103.507 40.2 98.3512 40.2ZM111.839 34.53C111.839 38.87 113.99 40.165 117.166 40.165C118.293 40.165 119.18 40.025 120.137 39.64C120.854 39.36 121.468 38.59 121.468 37.645C121.468 36.42 120.478 35.44 119.317 35.44C119.215 35.44 118.873 35.475 118.702 35.475C117.541 35.475 117.029 34.88 117.029 33.655L117.029 25.64L119.317 25.64C120.546 25.64 121.537 24.625 121.537 23.365C121.537 22.105 120.546 21.09 119.317 21.09L117.029 21.09L117.029 18.745C117.029 17.275 115.868 16.085 114.434 16.085C113 16.085 111.839 17.275 111.839 18.745L111.839 21.09L111.668 21.09C110.439 21.09 109.449 22.105 109.449 23.365C109.449 24.625 110.439 25.64 111.668 25.64L111.839 25.64L111.839 34.53ZM178.902 30.575C178.902 35.965 183.102 40.27 188.771 40.27C194.473 40.27 198.707 35.895 198.707 30.505L198.707 30.435C198.707 25.045 194.507 20.74 188.839 20.74C183.137 20.74 178.902 25.115 178.902 30.505L178.902 30.575ZM141.785 23.54L141.785 37.4C141.785 38.87 140.624 40.06 139.19 40.06C137.756 40.06 136.595 38.87 136.595 37.4L136.595 37.19C135.4 38.765 133.863 40.2 131.234 40.2C127.307 40.2 125.02 37.54 125.02 33.235L125.02 23.54C125.02 22.07 126.18 20.88 127.615 20.88C129.049 20.88 130.21 22.07 130.21 23.54L130.21 31.555C130.21 34.075 131.371 35.37 133.351 35.37C135.332 35.37 136.595 34.075 136.595 31.555L136.595 23.54C136.595 22.07 137.756 20.88 139.19 20.88C140.624 20.88 141.785 22.07 141.785 23.54ZM169.717 37.4L169.717 23.54C169.717 22.07 170.878 20.88 172.312 20.88C173.746 20.88 174.907 22.07 174.907 23.54L174.907 37.4C174.907 38.87 173.746 40.06 172.312 40.06C170.878 40.06 169.717 38.87 169.717 37.4ZM155.273 25.255C152.849 25.255 150.8 27.285 150.8 30.435L150.8 30.505C150.8 33.62 152.849 35.685 155.273 35.685C157.698 35.685 159.712 33.62 159.712 30.505L159.712 30.435C159.712 27.32 157.698 25.255 155.273 25.255ZM188.839 35.685C191.81 35.685 193.585 33.34 193.585 30.575L193.585 30.505C193.585 27.74 191.639 25.325 188.771 25.325C185.8 25.325 184.024 27.67 184.024 30.435L184.024 30.505C184.024 33.27 185.971 35.685 188.839 35.685Z" fill-rule="evenodd"/>
</svg>
