<?xml version="1.0" encoding="UTF-8"?>
<svg width="123px" height="26px" viewBox="0 0 123 26" version="1.1" xmlns="http://www.w3.org/2000/svg" xmlns:xlink="http://www.w3.org/1999/xlink">
    <!-- Generator: Sketch 52.2 (67145) - http://www.bohemiancoding.com/sketch -->
    <title>acadomia</title>
    <desc>Created with Sketch.</desc>
    <g id="Mad/Studio-Website" stroke="none" stroke-width="1" fill="none" fill-rule="evenodd">
        <g id="SVG" transform="translate(-267.000000, -599.000000)" fill="#FFFFFF" fill-rule="nonzero">
            <g id="acadomia" transform="translate(267.000000, 599.000000)">
                <path d="M113.308365,0 C108.043774,0 103.616731,4.27477477 103.616731,9.48648651 C103.616731,14.6981982 107.983949,18.972973 113.308365,18.972973 C118.572957,18.972973 123,14.6981982 123,9.48648651 C122.820525,4.27477477 118.572957,0 113.308365,0 Z M118.154182,13.4684685 C117.256809,13.4684685 116.479085,13.1756756 115.880836,12.8828829 L116.65856,11.1261261 C117.137159,11.4189189 117.555933,11.5945945 118.034532,11.5945945 C118.632782,11.5945945 118.931907,11.3018018 118.931907,10.8333333 C118.931907,10.3648648 118.632782,10.0720721 118.154182,10.0720721 C117.855058,10.0720721 117.555933,10.2477477 117.376459,10.3648648 L116.299611,9.77927926 L116.479085,5.79729729 L120.726653,5.79729729 L120.726653,7.72972969 L117.974708,7.72972969 L117.974708,8.6081081 C118.154182,8.6081081 118.453307,8.43243245 118.752431,8.43243245 C119.94893,8.43243245 121.025778,9.01801803 121.025778,10.7747748 C120.846303,12.5315315 119.649805,13.4684685 118.154182,13.4684685 Z M113.48784,13.5855856 C112.710116,13.5855856 112.111868,13.2927927 111.693093,13 C111.094844,12.4144144 110.79572,11.3603603 110.79572,9.89639636 C110.79572,6.96846846 112.171692,5.91441441 113.96644,5.91441441 C114.564689,5.91441441 115.162938,6.09009008 115.761187,6.38288287 L115.162938,8.02252252 C114.983463,7.84684687 114.564689,7.72972969 114.086089,7.72972969 C113.308365,7.72972969 112.889591,8.31531527 112.889591,9.07657658 C113.188715,8.78378375 113.667314,8.78378375 114.086089,8.78378375 C115.162938,8.78378375 116.060311,9.36936933 116.060311,11.1261261 C116.060311,12.5315315 114.803988,13.5855856 113.48784,13.5855856 Z M110.43677,11.0675675 C110.43677,12.7072072 109.359922,13.5855856 107.74465,13.5855856 C106.847276,13.5855856 106.069552,13.4099099 105.471303,13 L106.249027,11.2432432 C106.428502,11.4189189 107.026751,11.7117117 107.625,11.7117117 C108.103599,11.7117117 108.402723,11.4189189 108.402723,11.1261261 C108.402723,10.6576577 107.924124,10.3648648 106.907101,10.3648648 L106.727626,10.3648648 L106.548152,9.19369368 L107.924124,7.84684687 L105.949903,7.84684687 L105.949903,5.91441441 L110.496595,5.91441441 L110.496595,7.67117114 L109.000972,9.13513513 C109.659046,9.13513513 110.43677,9.72072071 110.43677,11.0675675 Z M113.308365,9.89639636 C113.786964,9.89639636 113.906614,10.1891892 113.906614,10.9504504 C113.906614,11.536036 113.786964,12.0045045 113.308365,12.0045045 C112.889591,12.0045045 112.710116,11.536036 112.710116,10.9504504 C112.710116,10.3648648 112.829766,9.89639636 113.308365,9.89639636 Z M49.8939687,14.1711711 L49.8939687,20.2612612 C49.8939687,23.2477478 47.4411477,25.5900901 44.4499026,25.5900901 L39.0058364,25.5900901 L39.0058364,8.8423423 L44.4499026,8.8423423 C47.5009726,8.8423423 49.8939687,11.2432432 49.8939687,14.1711711 Z M44.4499026,21.8423423 C45.3472761,21.8423423 45.9455251,21.1396396 45.9455251,20.4954955 L45.9455251,14.2882882 C45.9455251,13.4099099 45.2276263,12.8243243 44.4499026,12.8243243 L42.95428,12.8243243 L42.95428,21.8423423 L44.4499026,21.8423423 Z M76.9348247,8.7252252 C79.9260699,8.7252252 82.3190657,11.0675675 82.378891,14.054054 L82.378891,25.7072072 L78.4304475,25.7072072 L78.4304475,14.054054 C78.4304475,13.1756756 77.7125484,12.5900901 76.9348247,12.5900901 C76.0374511,12.5900901 75.4392021,13.2927927 75.4392021,14.054054 L75.4392021,25.7072072 L71.4907586,25.7072072 L71.4907586,14.054054 C71.4907586,13.1756756 70.7728597,12.5900901 69.995136,12.5900901 C69.0977625,12.5900901 68.4995135,13.2927927 68.4995135,14.054054 L68.4995135,25.7072072 L64.5510699,25.7072072 L64.5510699,14.054054 C64.5510699,11.0675675 67.0038909,8.7252252 69.995136,8.7252252 C71.3711088,8.7252252 72.5676068,9.13513513 73.4649803,9.89639636 C74.3623539,9.19369368 75.5588519,8.7252252 76.9348247,8.7252252 Z M62.6964978,13.8783784 L62.6964978,20.6711712 C62.6964978,23.6576576 60.3035018,26 57.2524318,26 C54.2013617,26 51.8083656,23.5990991 51.8083656,20.6711712 L51.8083656,13.8783784 C51.8083656,10.8918919 54.2013617,8.54954955 57.2524318,8.54954955 C60.3035018,8.54954955 62.6964978,10.9504504 62.6964978,13.8783784 Z M57.2524318,22.1936937 C58.1498053,22.1936937 58.8078792,21.4324324 58.7480543,20.6711712 L58.7480543,13.8783784 C58.7480543,13 58.1498053,12.4144144 57.2524318,12.4144144 C56.3550582,12.4144144 55.7568092,13.1171171 55.7568092,13.8783784 L55.7568092,20.7297297 C55.7568092,21.6081081 56.474708,22.1936937 57.2524318,22.1936937 Z M84.5924123,25.7072072 L84.5924123,9.01801803 L88.5408558,9.01801803 L88.5408558,25.7072072 L84.5924123,25.7072072 Z M20.1011673,20.6711712 L20.1011673,19.3243243 L24.0496109,19.3243243 L24.0496109,20.6711712 C24.0496109,23.6576576 21.6566147,26 18.6055447,26 C15.5544746,26 13.1614785,23.5990991 13.1614785,20.6711712 L13.1614785,13.8783784 C13.1614785,10.8918919 15.5544746,8.54954955 18.6055447,8.54954955 C21.6566147,8.54954955 24.0496109,10.9504504 24.0496109,13.8783784 L24.0496109,15.518018 L20.1011673,15.518018 L20.1011673,13.8783784 C20.1011673,13 19.3832684,12.4144144 18.6055447,12.4144144 C17.7081711,12.4144144 17.1099221,13.1171171 17.1099221,13.8783784 L17.1099221,20.6711712 C17.1099221,21.5495495 17.7081711,22.1351351 18.6055447,22.1351351 C19.5029182,22.1351351 20.1011673,21.4324324 20.1011673,20.6711712 Z M5.44406613,8.7252252 C8.49513617,8.7252252 10.8881322,11.0675675 10.8881322,14.054054 L10.8881322,25.7072072 L6.9396887,25.7072072 L6.9396887,20.9639639 L3.94844357,20.9639639 L3.94844357,25.7072072 L0,25.7072072 L0,14.054054 C0,11.0675675 2.452821,8.7252252 5.44406613,8.7252252 Z M3.94844357,17.4504504 L6.9396887,17.4504504 L6.9396887,13.8783784 C6.9396887,13 6.22178986,12.4144144 5.44406613,12.4144144 C4.54669259,12.4144144 3.94844357,13.1171171 3.94844357,13.8783784 L3.94844357,17.4504504 Z M32.7840466,25.7072072 L32.7840466,20.9639639 L29.7928015,20.9639639 L29.7928015,25.7072072 L25.8443579,25.7072072 L25.8443579,14.054054 C25.8443579,11.0675675 28.237354,8.7252252 31.288424,8.7252252 C34.3394941,8.7252252 36.7324902,11.1261261 36.7324902,14.054054 L36.7324902,25.7072072 L32.7840466,25.7072072 Z M29.9124513,17.4504504 L32.9036964,17.4504504 L32.9036964,13.8783784 C32.9036964,13 32.1857976,12.4144144 31.4080739,12.4144144 C30.5107003,12.4144144 29.9124513,13.1171171 29.9124513,13.8783784 L29.9124513,17.4504504 Z M96.2582682,8.7252252 C99.2495137,8.7252252 101.702334,11.0675675 101.702334,14.054054 L101.702334,25.7072072 L97.7538906,25.7072072 L97.7538906,20.9639639 L94.7626459,20.9639639 L94.7626459,25.7072072 L90.8142024,25.7072072 L90.8142024,14.054054 C90.8142024,11.0675675 93.2670227,8.7252252 96.2582682,8.7252252 Z M94.7028205,17.4504504 L97.694066,17.4504504 L97.694066,13.8783784 C97.694066,13 96.9761671,12.4144144 96.1984436,12.4144144 C95.3010694,12.4144144 94.7028205,13.1171171 94.7028205,13.8783784 L94.7028205,17.4504504 Z"></path>
            </g>
        </g>
    </g>
</svg>