<?xml version="1.0" encoding="UTF-8"?>
<svg width="142px" height="29px" viewBox="0 0 142 29" version="1.1" xmlns="http://www.w3.org/2000/svg" xmlns:xlink="http://www.w3.org/1999/xlink">
    <!-- Generator: Sketch 52.2 (67145) - http://www.bohemiancoding.com/sketch -->
    <title>accor-hotels</title>
    <desc>Created with Sketch.</desc>
    <g id="Mad/Studio-Website" stroke="none" stroke-width="1" fill="none" fill-rule="evenodd">
        <g id="SVG" transform="translate(-469.000000, -92.000000)" fill="#FFFFFE">
            <g id="accor-hotels" transform="translate(469.000000, 92.000000)">
                <path d="M25.0223841,26.8052652 L23.3627404,25.0784825 C22.4311929,25.9508543 21.6016073,26.5077207 20.2468096,26.5077207 C18.2146604,26.5077207 16.8092125,24.7639534 16.8092125,22.6708661 L16.8092125,22.6360269 C16.8092125,20.5429397 18.2484901,18.8340502 20.2468096,18.8340502 C21.4320804,18.8340502 22.3635334,19.3570634 23.2781659,20.2120253 L24.9379041,18.2408559 C23.8367353,17.1241283 22.4988525,16.3572775 20.2637245,16.3572775 C16.6226762,16.3572775 14.0827022,19.1998037 14.0827022,22.6708661 L14.0827022,22.706208 C14.0827022,26.2116262 16.6738934,28.9849381 20.1623297,28.9849381 C22.4481078,28.9849381 23.803378,28.1478888 25.0223841,26.8052652 Z M36.02982,25.0784825 L37.6894637,26.8052652 C36.4698906,28.1478888 35.1151874,28.9849381 32.8293148,28.9849381 C29.340406,28.9849381 26.7492148,26.2116262 26.7492148,22.706208 L26.7492148,22.6708661 C26.7492148,19.1998037 29.2896613,16.3572775 32.9308041,16.3572775 C35.1658376,16.3572775 36.5037204,17.1241283 37.6048892,18.2408559 L35.9452455,20.2120253 C35.030613,19.3570634 34.0990655,18.8340502 32.9138892,18.8340502 C30.9150027,18.8340502 29.4757251,20.5429397 29.4757251,22.6360269 L29.4757251,22.6708661 C29.4757251,24.7639534 30.881173,26.5077207 32.9138892,26.5077207 C34.2686869,26.5077207 35.098745,25.9508543 36.02982,25.0784825 Z M52.0160924,22.6708661 L52.0160924,22.6360269 C52.0160924,19.1654769 49.3910715,16.3572775 45.7331083,16.3572775 C42.0750506,16.3572775 39.4161999,19.1998037 39.4161999,22.6708661 L39.4161999,22.706208 C39.4161999,26.176729 42.0412209,28.9849381 45.6988061,28.9849381 C49.3567693,28.9849381 52.0160924,26.1429919 52.0160924,22.6708661 Z M7.95483428,16.478683 L13.0357745,28.7759416 L10.3087917,28.7759416 L9.22506696,26.0379136 L4.21227773,26.0379136 L3.12854353,28.7759416 L0.469711728,28.7759416 L5.55015107,16.478683 L7.95483428,16.478683 Z M65.0895074,28.7759416 L62.1939427,24.4151071 C63.7008799,23.8393228 64.7339167,22.6011974 64.7339167,20.630028 L64.7339167,20.5946765 C64.7339167,18.0835866 63.0572636,16.5662798 60.2631883,16.5662798 L54.844092,16.5662798 L54.844092,28.7759416 L57.4516311,28.7759416 L57.4516311,24.868964 L59.5012622,24.868964 L62.0412362,28.7759416 L65.0895074,28.7759416 Z M45.7331083,26.5077207 C47.8329172,26.5077207 49.2896767,24.7992952 49.2896767,22.706208 L49.2896767,22.6708661 C49.2896767,20.5777789 47.7990874,18.8340502 45.6988061,18.8340502 C43.5989972,18.8340502 42.1427102,20.5429397 42.1427102,22.6360269 L42.1427102,22.6708661 C42.1427102,24.7639534 43.6332995,26.5077207 45.7331083,26.5077207 Z M60.0935669,22.4966992 C61.3637901,22.4966992 62.0919809,21.7984846 62.0919809,20.7698778 L62.0919809,20.7350386 C62.0919809,19.5834795 61.3130455,18.9907976 60.0428222,18.9907976 L57.4516311,18.9907976 L57.4516311,22.4966992 L60.0935669,22.4966992 Z M5.14381571,23.6656681 L6.71843138,19.7059097 L8.29353843,23.6656681 L5.14381571,23.6656681 Z M61.8099201,10.5956574 C61.8099201,10.461482 62.6812779,10.4753056 64.7890481,9.55066527 C66.5979113,8.75975567 67.5473564,8.22343124 67.5473564,7.78136791 C67.5473564,6.97713744 65.8692953,5.28878029 64.8542035,4.1229047 C63.3059523,2.3407988 62.3301484,0.758988296 62.3301484,0.196542208 C62.3301484,0.14275616 62.3560111,0.0756519503 62.4211637,0.0756519503 C62.7464304,0.0756519503 63.4879811,0.839410376 66.3378,1.3757319 C67.1444985,1.52325713 68.159099,1.69691175 69.5775402,1.88490225 C72.0364361,2.20659444 74.0272903,3.69415256 74.8986434,5.3691985 C75.1329005,5.40966378 75.354306,5.43630552 75.5884686,5.43630552 C77.7479993,5.43630552 80.1561505,3.68084136 81.6258561,3.68084136 C82.2504786,3.68084136 82.8751955,4.00252388 82.9925603,4.49787069 C84.2543733,4.83338642 84.3194815,4.86002815 84.3194815,4.95376723 C84.3194815,5.30209149 79.7915826,4.94044637 76.2131856,7.01761238 C74.4570609,8.03595308 73.6110328,9.17518694 70.4752578,9.9389908 C68.1202987,10.5152295 65.6350383,10.7431729 63.1368507,10.7431729 C62.4733854,10.7431729 61.8099201,10.7565131 61.8099201,10.5956574 Z M96.7970944,22.6708661 C96.7970944,26.1429919 94.1382437,28.9849381 90.480753,28.9849381 C86.8226953,28.9849381 84.1982413,26.176729 84.1982413,22.706208 L84.1982413,22.6708661 C84.1982413,19.1998037 86.8565251,16.3572775 90.5140158,16.3572775 C94.1720735,16.3572775 96.7970944,19.1654769 96.7970944,22.6360269 L96.7970944,22.6708661 Z M141.450704,25.1302192 L141.450704,25.1650488 C141.450704,27.5895337 139.655742,28.9501375 137.098853,28.9501375 C135.303984,28.9501375 133.491162,28.3046845 132.069177,26.9974414 L133.610511,25.0953897 C134.677283,26.0026007 135.795367,26.5779017 137.149125,26.5779017 C138.216936,26.5779017 138.859986,26.1429919 138.859986,25.426304 L138.859986,25.3924992 C138.859986,24.7122166 138.454217,24.362858 136.472246,23.8393324 C134.084411,23.2112989 132.543172,22.532041 132.543172,20.1070148 L132.543172,20.0721756 C132.543172,17.8571705 134.270948,16.3915992 136.692045,16.3915992 C138.419821,16.3915992 139.89255,16.9499614 141.095114,17.9442588 L139.739844,19.967165 C138.690931,19.217726 137.657422,18.7638692 136.658782,18.7638692 C135.659103,18.7638692 135.133891,19.2351456 135.133891,19.8283399 L135.133891,19.8626667 C135.133891,20.6648575 135.64266,20.9271375 137.691252,21.4675703 C140.096379,22.1125014 141.450704,23.0022928 141.450704,25.1302192 Z M81.3692968,28.7759416 L78.7611624,28.7759416 L78.7611624,23.8746743 L72.8287606,23.8746743 L72.8287606,28.7759416 L70.2211554,28.7759416 L70.2211554,16.5662798 L72.8287606,16.5662798 L72.8287606,21.3984139 L78.7611624,21.3984139 L78.7611624,16.5662798 L81.3692968,16.5662798 L81.3692968,28.7759416 Z M108.092367,19.0430467 L104.485621,19.0430467 L104.485621,28.7759416 L101.877515,28.7759416 L101.877515,19.0430467 L98.2697293,19.0430467 L98.2697293,16.5662798 L108.092367,16.5662798 L108.092367,19.0430467 Z M119.624448,26.3857255 L119.624448,28.7759416 L110.598606,28.7759416 L110.598606,16.5662798 L119.539968,16.5662798 L119.539968,18.9559681 L113.18923,18.9559681 L113.18923,21.4322284 L118.778514,21.4322284 L118.778514,23.8224252 L113.18923,23.8224252 L113.18923,26.3857255 L119.624448,26.3857255 Z M130.410006,28.7759416 L122.453392,28.7759416 L122.453392,16.5662798 L125.060554,16.5662798 L125.060554,26.3340081 L130.410006,26.3340081 L130.410006,28.7759416 Z M90.5140158,26.5077207 C92.6143916,26.5077207 94.0701116,24.7992952 94.0701116,22.706208 L94.0701116,22.6708661 C94.0701116,20.5777789 92.5800893,18.8340502 90.480753,18.8340502 C88.3809441,18.8340502 86.9237121,20.5429397 86.9237121,22.6360269 L86.9237121,22.6708661 C86.9237121,24.7639534 88.4147739,26.5077207 90.5140158,26.5077207 Z"></path>
            </g>
        </g>
    </g>
</svg>