<?xml version="1.0" encoding="UTF-8"?>
<svg width="131px" height="40px" viewBox="0 0 131 40" version="1.1" xmlns="http://www.w3.org/2000/svg" xmlns:xlink="http://www.w3.org/1999/xlink">
    <!-- Generator: Sketch 52.2 (67145) - http://www.bohemiancoding.com/sketch -->
    <title>accor-local</title>
    <desc>Created with Sketch.</desc>
    <g id="Mad/Studio-Website" stroke="none" stroke-width="1" fill="none" fill-rule="evenodd">
        <g id="SVG" transform="translate(-672.000000, -273.000000)" fill="#FFFFFF" fill-rule="nonzero">
            <g id="accor-local" transform="translate(672.000000, 273.000000)">
                <path d="M10.1498548,39.8358537 L6.04603392,30.1785289 L4.10350377,30.1785289 L0,39.8358537 L2.14765777,39.8358537 L3.02301696,37.6854424 L7.07198912,37.6854424 L7.94734831,39.8358537 L10.1498548,39.8358537 Z M6.31932606,35.8223664 L3.77536297,35.8223664 L5.04734451,32.7124774 L6.31932606,35.8223664 Z M19.8317522,38.2880529 L18.4916061,36.9320206 C17.738943,37.6168629 17.0687115,38.0546921 15.9745918,38.0546921 C14.3329366,38.0546921 13.1976011,36.6850074 13.1976011,35.0413223 L13.1976011,35.0137 C13.1976011,33.3700149 14.3605195,32.0279525 15.9745918,32.0279525 C16.9320654,32.0279525 17.6844115,32.4387944 18.4231245,33.1099844 L19.7635876,31.561866 C18.8742785,30.6852551 17.7937917,30.0826446 15.9882247,30.0826446 C13.0473222,30.0826446 10.9954117,32.3152879 10.9954117,35.0413223 L10.9954117,35.0686271 C10.9954117,37.8219664 13.0885379,40 15.9061102,40 C17.7525759,40 18.8470127,39.3424624 19.8317522,38.2880529 Z M30.0634043,38.2880529 L28.7229412,36.9320206 C27.9705952,37.6168629 27.3000466,38.0546921 26.2059268,38.0546921 C24.5642717,38.0546921 23.4289362,36.6850074 23.4289362,35.0413223 L23.4289362,35.0137 C23.4289362,33.3700149 24.5915375,32.0279525 26.2059268,32.0279525 C27.1634005,32.0279525 27.9160636,32.4387944 28.6544596,33.1099844 L29.9949228,31.561866 C29.1059306,30.6852551 28.0251268,30.0826446 26.2195598,30.0826446 C23.2786573,30.0826446 21.2267469,32.3152879 21.2267469,35.0413223 L21.2267469,35.0686271 C21.2267469,37.8219664 23.319556,40 26.1374453,40 C27.9842281,40 29.0783478,39.3424624 30.0634043,38.2880529 Z M41.6355195,35.0413223 L41.6355195,35.0137 C41.6355195,32.287983 39.5151276,30.0826446 36.5602751,30.0826446 C33.6057397,30.0826446 31.458082,32.3152879 31.458082,35.0413223 L31.458082,35.0686271 C31.458082,37.7946616 33.5784739,40 36.5330094,40 C39.4875447,40 41.6355195,37.7676743 41.6355195,35.0413223 Z M39.4330132,35.0686271 C39.4330132,36.7126297 38.2564619,38.0546921 36.5602751,38.0546921 C34.8644054,38.0546921 33.6605884,36.6850074 33.6605884,35.0413223 L33.6605884,35.0137 C33.6605884,33.3700149 34.8368226,32.0279525 36.5330094,32.0279525 C38.2291961,32.0279525 39.4330132,33.3976372 39.4330132,35.0413223 L39.4330132,35.0686271 Z M52.1953125,39.8358537 L49.85616,36.4106895 C51.0736099,35.9592079 51.9080704,34.9863952 51.9080704,33.4385944 L51.9080704,33.4109721 C51.9080704,31.4386769 50.5536574,30.2467909 48.2969363,30.2467909 L43.9195064,30.2467909 L43.9195064,39.8358537 L46.0259484,39.8358537 L46.0259484,36.7675569 L47.6812364,36.7675569 L49.7331469,39.8358537 L52.1953125,39.8358537 Z M49.7740455,33.5484486 C49.7740455,34.3561625 49.1859285,34.9044809 48.1599733,34.9044809 L46.0259484,34.9044809 L46.0259484,32.1508241 L48.1190746,32.1508241 C49.1450298,32.1508241 49.7740455,32.6165931 49.7740455,33.5208263 L49.7740455,33.5484486 Z M80.8515621,39.8356239 L80.8515621,30.2470207 L83.0580939,30.2470207 L83.0580939,37.9179033 L88.0586091,37.9179033 L88.0586091,39.8356239 L80.8515621,39.8356239 Z M94.5922341,40 C91.4973591,40 89.2765,37.7946213 89.2765,35.0687184 L89.2765,35.0413223 C89.2765,32.3154194 91.5260159,30.0826446 94.6208909,30.0826446 C97.7157659,30.0826446 99.936625,32.2880234 99.936625,35.0139263 L99.936625,35.0413223 C99.936625,37.7672252 97.6871091,40 94.5922341,40 Z M94.6208909,38.0548834 C96.397578,38.0548834 97.629797,36.7124789 97.629797,35.0687184 L97.629797,35.0413223 C97.629797,33.3975618 96.368922,32.0277613 94.5922341,32.0277613 C92.815547,32.0277613 91.583328,33.3701657 91.583328,35.0139263 L91.583328,35.0413223 C91.583328,36.6850829 92.844203,38.0548834 94.6208909,38.0548834 Z M106.599203,40 C103.647609,40 101.455406,37.8220173 101.455406,35.0687184 L101.455406,35.0413223 C101.455406,32.3154194 103.604625,30.0826446 106.685172,30.0826446 C108.576484,30.0826446 109.708406,30.6853569 110.639734,31.5620291 L109.235578,33.1099036 C108.461859,32.4387014 107.673812,32.0277613 106.670844,32.0277613 C104.980125,32.0277613 103.762234,33.3701657 103.762234,35.0139263 L103.762234,35.0413223 C103.762234,36.6850829 104.951469,38.0548834 106.670844,38.0548834 C107.817094,38.0548834 108.519172,37.6165472 109.307219,36.9316469 L110.711375,38.2877494 C109.67975,39.3424958 108.5335,40 106.599203,40 Z M111.614047,39.8356239 L115.912484,30.1785306 L117.947078,30.1785306 L122.245516,39.8356239 L119.938687,39.8356239 L119.021688,37.6850372 L114.780563,37.6850372 L113.863563,39.8356239 L111.614047,39.8356239 Z M115.568609,35.8221086 L118.233641,35.8221086 L116.901125,32.7126615 L115.568609,35.8221086 Z M123.792953,39.8356239 L123.792953,30.2470207 L125.999484,30.2470207 L125.999484,37.9179033 L131,37.9179033 L131,39.8356239 L123.792953,39.8356239 Z M65.7109501,40 C55.1085111,29.2542026 49.8072917,21.0490744 49.8072917,15.3846154 C49.8072917,6.88792693 56.9276021,0 65.7109501,0 C74.4942983,0 81.6146086,6.88792693 81.6146086,15.3846154 C81.6146086,21.0490744 76.3133891,29.2542026 65.7109501,40 Z M57.0837989,19.8815161 C57.0837989,20.0107789 57.6446097,19.9997666 58.2056884,19.9997666 C60.3174333,19.9997666 62.4179299,19.8170159 64.4088889,19.3539773 C67.0594836,18.7399136 67.7748255,17.8248488 69.2593406,17.0062721 C72.2843449,15.337393 76.1117318,15.6279064 76.1117318,15.3478809 C76.1117318,15.2726306 76.0565611,15.2511304 74.9901098,14.9818549 C74.8907496,14.583841 74.3626125,14.3253155 73.8344754,14.3253155 C72.5923355,14.3253155 70.556651,15.7359313 68.7314713,15.7359313 C68.5335538,15.7359313 68.346349,15.714169 68.1484315,15.6819189 C67.4116643,14.3360656 65.7284281,13.1407129 63.6498927,12.8821874 C62.4511393,12.7314246 61.5933183,12.5914118 60.9114537,12.4731613 C58.5024308,12.0423729 57.8757367,11.4285714 57.6006876,11.4285714 C57.5457849,11.4285714 57.5238239,11.4825839 57.5238239,11.5255841 C57.5238239,11.9776104 58.3487033,13.2484756 59.6575298,14.6805914 C60.5153508,15.6171564 61.9339828,16.974022 61.9339828,17.6200735 C61.9339828,17.9753494 61.1313322,18.4064001 59.6023593,19.0414394 C57.8205662,19.7845035 57.0837989,19.7737534 57.0837989,19.8815161 Z"></path>
            </g>
        </g>
    </g>
</svg>