<?xml version="1.0" encoding="UTF-8"?>
<svg width="131px" height="12px" viewBox="0 0 131 12" version="1.1" xmlns="http://www.w3.org/2000/svg" xmlns:xlink="http://www.w3.org/1999/xlink">
    <!-- Generator: Sketch 52.2 (67145) - http://www.bohemiancoding.com/sketch -->
    <title>alpine</title>
    <desc>Created with Sketch.</desc>
    <g id="Mad/Studio-Website" stroke="none" stroke-width="1" fill="none" fill-rule="evenodd">
        <g id="SVG" transform="translate(-264.000000, -176.000000)" fill="#FFFFFF" fill-rule="nonzero">
            <g id="alpine" transform="translate(264.000000, 176.000000)">
                <path d="M118.071208,9.42001823 L118.071208,6.78040675 L130.347751,6.78040675 L130.347751,4.78963613 L118.071208,4.78963613 L118.071208,2.33884075 L130.347751,2.33884075 L130.347751,0.34749799 L115.046782,0.34749799 L115.046782,11.4117425 L130.187453,11.4117425 L130.747918,9.42001823 L118.071208,9.42001823 Z M30.6824764,9.42001823 L30.6824764,0.34749799 L27.6574707,0.34749799 L27.6574707,11.4117425 L41.4060568,11.4117425 L42.2540936,9.42001823 L30.6824764,9.42001823 Z M48.608672,0.34749799 L48.608672,11.4117425 L51.6334845,11.4117425 L51.6334845,7.71323472 L61.4126561,7.71323472 C65.0458302,7.71323472 66.4545253,6.21166961 66.4545253,3.98287625 C66.4545253,1.83323308 64.9179776,0.34749799 61.5567315,0.34749799 L48.608672,0.34749799 Z M102.610711,0.34749799 L102.610711,7.17558557 L90.0944922,0.34749799 L87.0374261,0.34749799 L87.0374261,11.4117425 L89.8382074,11.4117425 L89.8382074,3.2400087 L105.443166,11.7273896 L105.443166,0.34749799 L102.610711,0.34749799 Z M74.4089979,11.4119331 L77.4341969,11.4119331 L77.4341969,0.34749799 L74.4089979,0.34749799 L74.4089979,11.4119331 Z M51.6334845,2.33884075 L60.8203243,2.33884075 C62.6454091,2.33884075 63.2051018,2.89193854 63.2051018,4.06183573 C63.2051018,5.08983472 62.4209912,5.72074765 60.8365473,5.72074765 L51.6334845,5.72074765 L51.6334845,2.33884075 Z M10.5796981,3.63518753 L13.8928547,7.3180559 L7.26654145,7.3180559 L10.5796981,3.63518753 Z M17.5901482,11.4117425 L21.1592031,11.4117425 L10.5796981,0 L0,11.4117425 L3.56924791,11.4117425 L5.45787273,9.30939866 L15.7013303,9.30939866 L17.5901482,11.4117425 Z"></path>
            </g>
        </g>
    </g>
</svg>