<?xml version="1.0" encoding="UTF-8"?>
<svg width="80px" height="23px" viewBox="0 0 80 23" version="1.1" xmlns="http://www.w3.org/2000/svg" xmlns:xlink="http://www.w3.org/1999/xlink">
    <!-- Generator: Sketch 52.2 (67145) - http://www.bohemiancoding.com/sketch -->
    <title>ayre</title>
    <desc>Created with Sketch.</desc>
    <g id="Mad/Studio-Website" stroke="none" stroke-width="1" fill="none" fill-rule="evenodd">
        <g id="SVG" transform="translate(-689.000000, -423.000000)" fill="#FFFFFF">
            <g id="ayre" transform="translate(689.000000, 423.000000)">
                <path d="M13.1900191,-1.95399252e-14 L26.3802852,22.984508 L22.1070759,22.984508 L13.1168798,7.30625909 L4.16078251,22.984508 L-7.81597009e-14,22.984508 L13.1900191,-1.95399252e-14 Z M22.9981974,0.676014941 L27.5139548,0.676014941 L33.4571127,10.8910546 L39.6262355,0.676014941 L43.9671421,0.676014941 L35.3554211,14.3649339 L35.3554211,20.2804482 L22.9981974,0.676014941 Z M41.9768474,22.9844832 L41.9768474,17.8101522 L46.0025981,12.628385 L52.5615013,12.628385 C56.9690561,12.628385 57.0036743,8.89072089 57.0036743,8.44504682 C57.0036743,7.99912478 56.6913575,4.50140097 52.7350942,4.02127262 C54.2274416,2.03234653 55.025668,0.969470774 55.025668,0.969470774 C55.025668,0.969470774 57.7326643,1.62087877 59.1901426,3.47273156 C60.6478717,5.32433649 60.7519773,6.76447365 60.7519773,8.44504682 C60.7519773,10.1253721 60.4740279,13.1085133 56.0318549,15.1661 C58.8778258,18.8353514 62.1399682,22.9844832 62.1399682,22.9844832 L57.4549658,22.9844832 L51.9479054,15.9461536 L45.9062691,15.9461536 L45.9062691,22.9844832 L41.9768474,22.9844832 Z M67.7621722,18.835302 L79.8173489,18.835302 L79.8173489,22.9844339 L71.0591837,22.9844339 L67.7621722,18.835302 Z M67.0333828,0.763637744 L79.8172986,0.763637744 L79.8172986,4.67282935 L69.3931932,4.67282935 C69.3931932,4.67282935 68.8784349,2.17601322 67.0333828,0.763637744 Z M76.438056,9.78226744 L76.438056,13.7601196 L66.7554834,13.7601196 C68.8378461,12.3883952 69.3237558,9.78226744 69.3237558,9.78226744 L76.438056,9.78226744 Z"></path>
            </g>
        </g>
    </g>
</svg>