<?xml version="1.0" encoding="UTF-8"?>
<svg width="78px" height="46px" viewBox="0 0 78 46" version="1.1" xmlns="http://www.w3.org/2000/svg" xmlns:xlink="http://www.w3.org/1999/xlink">
    <!-- Generator: Sketch 52.2 (67145) - http://www.bohemiancoding.com/sketch -->
    <title>buy-paris</title>
    <desc>Created with Sketch.</desc>
    <g id="Mad/Studio-Website" stroke="none" stroke-width="1" fill="none" fill-rule="evenodd">
        <g id="SVG" transform="translate(-679.000000, -591.000000)" fill="#FFFFFF" fill-rule="nonzero">
            <g id="buy-paris" transform="translate(679.000000, 591.000000)">
                <path d="M13.7810069,16.0046004 C13.5387115,18.0144802 12.5449497,19.0684622 10.4385355,19.2871538 C9.03442664,19.4329481 7.60598792,19.3476997 6.18983955,19.4004956 C5.57507164,19.4235031 5.52465614,19.0936493 5.52942179,18.6412508 C5.54121048,17.4724738 5.53343496,16.3036969 5.53368579,15.13492 C5.53418744,14.3693784 5.53418744,13.6033524 5.53418744,12.8378108 C5.53418744,11.0785908 5.53418744,11.0659972 7.41736879,11.0914264 C8.7540062,11.1095902 10.082868,11.2054949 11.340747,11.7106893 C13.1712554,12.4459581 14.0288203,13.9508855 13.7810069,16.0046004 Z M7.50051873,1.38807491 C10.6086408,1.41113135 12.4752945,4.0813719 11.4811308,7.08200371 C10.954867,8.67087158 9.59271413,9.62733409 7.77848887,9.68206145 C5.53024435,9.75021738 5.53024435,9.75021738 5.52925513,7.51348866 C5.52900783,6.83953099 5.52925513,6.16531995 5.52925513,5.49110892 C5.52925513,4.77483888 5.52950243,4.05856883 5.52925513,3.34229878 C5.52876051,1.3733796 5.52876051,1.3733796 7.50051873,1.38807491 Z M11.4817048,9.95530244 C13.8492907,7.96771525 14.0046289,7.78894945 14.2876112,6.76266429 C15.2068005,3.43059883 13.0209881,0.411249051 9.25133009,0.129157578 C6.41395317,-0.0834691808 3.55089632,0.0382808015 0.699420598,0.00641168534 C0.266387029,0.00168111344 -0.0186094842,0.0860844756 0.00404924926,0.622879899 C0.0244421093,1.10763903 0.105258259,1.43653827 0.701938238,1.38076732 C1.03451809,1.34964513 1.37943437,1.41686905 1.70697895,1.36582866 C2.6991797,1.21121366 2.96529394,1.58741862 2.95396458,2.57685508 C2.89882833,7.43017288 2.92878821,12.2842376 2.92878821,17.1383024 C2.92853645,19.309137 2.92929173,19.3213368 0.795594334,19.4303889 C0.319760935,19.4547887 -0.00300013447,19.4859109 2.10299851e-05,20.0906773 C0.00304219445,20.6583458 0.249267098,20.7798468 0.763620348,20.7768591 C4.16142331,20.7566919 7.56199564,20.8383565 10.9565257,20.7293044 C13.8283943,20.6371827 15.6997539,19.2391742 16.3206032,17.0225278 C17.310538,13.4880438 15.5126935,10.8035686 11.4817048,9.95530244 Z M73.3418342,1.37334523 C72.6245651,1.37334523 72.1818986,1.33741695 71.7477362,1.3817698 C71.113248,1.44644069 71.1225013,1.07105215 71.1012435,0.622815948 C71.0772345,0.114121127 71.3035693,-0.000106010423 71.7659931,0.00509739496 C73.3911023,0.0236809856 75.0164626,0.0187253615 76.6418223,0.00683186342 C77.1287553,0.0031151453 77.416113,0.10445766 77.40786,0.687982407 C77.3998568,1.24697681 77.1482622,1.47493552 76.6510756,1.36343398 C75.4861391,1.10177703 74.9419347,1.81464356 74.3597163,2.61894137 C72.8308922,4.73102839 71.2593028,6.81338166 69.6819612,8.89028379 C69.3418332,9.33827216 69.1487608,9.77560598 69.1550131,10.3536796 C69.1827736,12.9960184 69.2062823,15.6395961 69.1510116,18.2809438 C69.1322545,19.1786552 69.4526247,19.3607743 70.2944403,19.3934814 C70.8671559,19.4155339 72.0153367,18.7571793 71.9568146,20.0741364 C71.9047953,21.2431682 70.8596528,20.6172728 70.2946908,20.6420509 C68.4229884,20.7238187 66.5450338,20.657909 64.6700803,20.6814482 C64.115122,20.688386 63.8420196,20.5766367 63.846021,19.9415735 C63.8505227,19.2733076 64.2591761,19.3669689 64.6740817,19.3493763 C66.7238509,19.2624052 66.7236008,19.2594318 66.7236008,17.2298559 C66.7236008,15.0000728 66.6998418,12.7700419 66.7371059,10.5410022 C66.7488603,9.83779908 66.5475347,9.28673366 66.1233755,8.73046485 C64.5915508,6.7219504 63.0567249,4.71269258 61.6189353,2.6382683 C60.9666906,1.69744305 60.2714297,1.15951005 59.0772316,1.35649611 C58.6233113,1.43107825 58.0711041,1.53613748 58.0563485,0.706565997 C58.0410928,-0.120032116 58.5677905,0.0157519869 59.048971,0.0142652997 C61.0077059,0.00807076943 62.966441,0.0060885198 64.925176,0.0117874876 C65.3963528,0.0132741748 65.9325539,-0.149022517 65.9295529,0.686000156 C65.9265517,1.50144812 65.4201116,1.37161076 64.9314283,1.37284967 C64.6060562,1.37334523 64.2811843,1.37284967 63.6506977,1.37284967 C65.3300779,3.62864979 66.8664044,5.69266727 68.4897634,7.87289412 C70.1053698,5.70877304 71.6449476,3.64649004 73.3418342,1.37334523 Z M32.9092021,13.1108447 C32.9092021,11.9687235 32.8587625,10.8235526 32.9255949,9.68549772 C32.9760346,8.82623831 32.7460298,8.40258101 31.8282803,8.53448155 C31.4948743,8.58226049 31.1130461,8.58708923 31.1016971,8.09150931 C31.0898438,7.56797359 31.4931088,7.64320003 31.8192012,7.64192933 C33.1205442,7.63786304 34.4218872,7.63481333 35.7229781,7.64269178 C36.0460441,7.64472493 36.4659541,7.58423874 36.4412387,8.09989601 C36.4182887,8.57921077 36.0142671,8.59013894 35.6894356,8.53498981 C34.6438217,8.35683514 34.4425675,8.84224941 34.4725791,9.79935404 C34.5406726,11.9544914 34.4463504,14.1144575 34.5076346,16.2701033 C34.5863205,19.0384891 36.0490704,20.5841903 38.4341094,20.5455605 C40.6118414,20.5104887 42.0622336,19.1126991 42.1918634,16.6261584 C42.3197279,14.1792643 42.2047255,11.7206794 42.2423031,9.26768573 C42.2569307,8.31947605 41.6140772,8.59496767 41.1220385,8.5449014 C40.7732482,8.50932132 40.2827227,8.67400635 40.2751566,8.08210598 C40.2665819,7.45030512 40.7901456,7.65514483 41.1157335,7.64904534 C42.374455,7.62617243 43.6341853,7.6358299 44.893159,7.64091276 C45.2073981,7.64218345 45.6038537,7.51968625 45.6152027,8.06761978 C45.6262994,8.59318872 45.2590987,8.59166383 44.9277102,8.53448155 C43.9047941,8.35810591 43.7723899,8.87401732 43.7958445,9.75665797 C43.8535978,11.9547456 43.8298912,14.1553747 43.8097153,16.3549872 C43.7814691,19.4463895 41.8266804,21.4190519 38.7662545,21.4782673 C35.1066055,21.5491734 33.0585035,19.8293839 32.9281169,16.5366999 C32.8829734,15.3966119 32.9208032,14.2529659 32.9208032,13.1108447 C32.9170202,13.1108447 32.9129851,13.1108447 32.9092021,13.1108447 Z M70.5630673,43.8815703 C70.5623391,43.4678803 70.5540898,43.0541904 70.5652504,42.6407488 C70.5725293,42.3646245 70.5084777,42.0366026 70.9614494,42.0405756 C71.3578914,42.044052 71.376816,42.2936069 71.4226709,42.6054883 C71.6856712,44.3980618 73.1494002,45.2713795 74.7012003,44.5795788 C76.2656167,43.8818185 76.5936396,42.1029023 75.2876136,40.981768 C74.5226318,40.3257243 73.6089232,39.8497077 72.7556273,39.302922 C71.779808,38.6779175 70.878231,37.9811505 70.5933948,36.7557245 C70.0365808,34.3585083 71.9569208,32.3816864 74.4333472,32.7171576 C75.040869,32.7995976 75.7003111,33.471285 76.3376745,32.6431603 C76.4827619,32.4541939 76.8874525,32.6290064 76.8920624,33.0342536 C76.8998265,33.7784485 76.8986131,34.5228917 76.9017674,35.2673348 C76.903223,35.6080207 76.7760898,35.8287711 76.4063365,35.8056779 C76.0952968,35.7860613 75.9931538,35.5645658 76.0132911,35.2948976 C76.1035461,34.077666 75.3339545,33.7138871 74.37245,33.6031393 C73.3963877,33.4909017 72.4909284,33.6572716 72.0166061,34.6919929 C71.5483485,35.7140504 71.9326588,36.5384504 72.6758053,37.2384455 C73.5489963,38.0611074 74.686158,38.4554288 75.6520295,39.1325791 C76.597036,39.7953272 77.2802551,40.6209688 77.3904044,41.8282679 C77.6446709,44.6198055 75.108317,46.4049296 72.3720445,45.3746779 C71.9993799,45.2341326 71.609731,44.6635086 71.2758856,45.5244107 C71.1613686,45.8204001 70.6062532,45.8598819 70.569375,45.2460516 C70.5422018,44.7928799 70.5640377,44.3364801 70.5630673,43.8815703 Z M58.4445024,38.9469507 C58.4447468,40.3504717 58.4814067,41.7557311 58.4300829,43.1570173 C58.4017327,43.9325296 58.5796549,44.3340678 59.4282075,44.2079198 C59.7266183,44.1634701 60.141363,44.1210068 60.1271879,44.6337936 C60.1125239,45.1540301 59.688981,45.0239089 59.3949692,45.0276337 C58.2575374,45.0422847 57.1198611,45.0407949 55.9824293,45.0288754 C55.6823077,45.0256471 55.274406,45.1249764 55.2920028,44.5935653 C55.3059336,44.1671949 55.6424706,44.1622283 55.911798,44.2086648 C56.8798616,44.3760345 57.0379875,43.9121672 57.0216129,43.0333525 C56.968334,40.2273037 56.9756659,37.4192682 57.0184356,34.6127227 C57.0308999,33.7952437 56.8774176,33.3482624 55.9665434,33.4883165 C55.6546906,33.5362428 55.2858928,33.5434442 55.2956688,33.0309058 C55.3052004,32.524327 55.6695989,32.5767232 55.9873173,32.5744883 C57.1249936,32.5670385 58.2624253,32.565052 59.3998572,32.5690252 C59.7175756,32.5700184 60.0849069,32.5196089 60.1259659,33.0030936 C60.1692245,33.509424 59.8018931,33.5419543 59.4824639,33.4890616 C58.4215289,33.3130006 58.4112642,33.9519354 58.4330157,34.7368841 C58.4721195,36.1391636 58.4440136,37.543678 58.4445024,38.9469507 Z M21.1430626,25.6419681 C20.5965147,24.9980243 21.5781958,24.6042705 21.4285306,23.9645129 C21.3073607,23.4459103 21.2729607,22.8457989 21.5548347,22.17329 C21.8097534,23.1464702 21.640321,24.0140092 21.6860164,24.8689893 C22.1069419,26.4535768 21.9021005,28.0881381 22.1295443,29.6965982 C22.8457813,34.758268 24.4782371,39.4963651 27.1829946,43.8975921 C27.3657763,44.1950622 27.808611,44.4984422 27.5832145,44.852796 C27.3683434,45.1906511 26.8772462,44.932581 26.5152769,44.9953748 C25.4437452,45.1820323 24.9870477,44.7801522 24.758314,43.7188145 C24.3660523,41.8977954 23.1158463,40.9123028 21.542692,40.880044 C20.0190838,40.848524 18.8792657,41.7163092 18.2795777,43.3644607 C17.6103196,45.2039486 17.6103196,45.2039486 15.2051494,44.853781 C19.0071102,38.9437799 20.9902396,32.5469426 21.1432422,25.6418451 L21.1430626,25.6419681 Z M21.4685518,40.1889111 C22.9599657,40.1861725 22.9597238,40.1861725 22.6315499,38.6448425 C22.5454556,38.2405265 22.4134122,37.8391981 22.3892284,37.4308987 C22.3568221,36.8811885 22.0784667,36.7982838 21.6109942,36.7417692 C20.10507,36.5605241 20.477984,37.8501525 20.2775004,38.5826017 C19.8414668,40.1757161 19.8966058,40.1918986 21.4685518,40.1889111 Z M45.2577233,44.812101 C45.5155895,44.7675846 45.6324428,44.9631118 45.6134603,45.1874147 C45.6013805,45.3293256 45.5330928,45.5228852 45.425361,45.5910123 C44.7806955,45.9975611 43.2174743,45.4692689 42.8383173,44.7456954 C42.2693354,43.6603352 41.7385649,42.5513642 41.1049931,41.5048635 C40.5212196,40.5400169 39.6403823,39.9984436 38.4511409,40.0124625 C37.9289989,40.0188571 37.7098373,40.1757707 37.729806,40.7183278 C37.7616078,41.5766797 37.7653057,42.4379831 37.7312851,43.296335 C37.6952924,44.199941 37.5944632,45.0969065 38.9890607,44.8093955 C39.2456943,44.7565171 39.4939459,44.8728496 39.5203241,45.1785606 C39.5548378,45.5856014 39.2597462,45.6293798 38.9506026,45.6291339 C37.6787751,45.6274123 36.4071941,45.6259366 35.1353665,45.6220015 C34.8323861,45.6210176 34.5197912,45.5878149 34.560961,45.1790526 C34.6006516,44.7865225 34.9425832,44.7670928 35.2194319,44.811363 C36.1162934,44.9542578 36.293299,44.5558251 36.2785075,43.7262488 C36.2284627,40.9027874 36.2439939,38.0778503 36.27407,35.253897 C36.2817124,34.5369641 36.2151503,34.0465476 35.305716,34.185999 C35.0229507,34.2292856 34.5841345,34.3161045 34.5584958,33.8089637 C34.5308848,33.2656687 34.935434,33.2767363 35.3214936,33.2784579 C36.7163377,33.2846065 38.1151261,33.2189389 39.5050396,33.3035443 C41.5571218,33.4287309 42.8141578,34.3928397 43.0813919,35.8958164 C43.3685947,37.5129122 42.6613116,38.6905021 40.681215,39.736019 C42.4887435,40.4910736 43.1122077,42.0845585 43.8525253,43.5892569 C44.1461376,44.1859221 44.2763034,44.980574 45.2577233,44.812101 Z M38.5679422,38.7674074 C39.5576683,38.95201 41.2292944,38.4020133 41.7382583,37.6157253 C42.3528464,36.6669868 42.2972408,35.7113408 41.5586709,34.8335851 C40.7839177,33.9124776 39.6044941,33.8364927 38.5373458,34.0556339 C37.5899226,34.2500026 38.2489417,35.1349042 38.0858498,35.6913322 C38.0315745,35.8768876 38.077336,36.0860246 38.0768039,36.2842044 C38.0760057,36.8789821 38.0736112,37.4737599 38.0770699,38.0685376 C38.0789324,38.388436 38.0672259,38.673796 38.5679422,38.7674074 Z M6.65858132,32.7222926 C8.78705278,33.1386522 9.96585993,34.7827257 9.61462457,36.8814162 C9.28595247,38.84397 7.57264573,40.0985139 5.53267257,39.8699634 C3.83390666,39.6799186 3.83390666,39.6799186 3.83516018,41.4362801 C3.83566159,41.9323839 3.87000795,42.4309719 3.82839119,42.9233494 C3.75643933,43.7779298 3.86474317,44.4133998 4.98739278,44.2144117 C5.27043686,44.1639815 5.62543281,44.197022 5.64599048,44.5932591 C5.67181293,45.1007905 5.25514396,45.0362001 4.93449437,45.0374423 C3.7248507,45.041417 2.51545774,45.033219 1.30606477,45.0287474 C1.00772778,45.0275052 0.677300763,45.0362001 0.691590859,44.6168595 C0.704878135,44.2203739 1.02928827,44.1612488 1.32461682,44.2109337 C2.40865811,44.393029 2.40715389,43.7481188 2.39888068,42.9675689 C2.36954838,40.1988775 2.36854557,37.4296891 2.39862998,34.6609977 C2.40665249,33.907526 2.3775709,33.3304358 1.37024483,33.4886823 C1.04282625,33.5401062 0.673038807,33.5331503 0.694348591,33.0226379 C0.715407672,32.5223109 1.08920637,32.5742316 1.41612354,32.5707536 C2.12511262,32.5635493 2.8341017,32.5687662 3.54309077,32.5700083 C4.58376039,32.5759706 5.62443,32.5198266 6.65858132,32.7222926 Z M8.21427422,37.6840135 C8.57509557,36.161115 7.67204964,34.5645765 6.21064894,34.1417719 C4.61871726,33.6811452 4.17922997,34.0142793 4.17922997,35.6814522 C4.17922997,35.9725061 4.17922997,36.2635601 4.1784855,36.5546139 C4.17774103,37.0951428 4.23357651,37.6429352 4.16508498,38.1744468 C4.05366218,39.037339 4.45840739,39.3509359 5.23414837,39.4598933 C6.71167935,39.6670375 7.90829578,38.9754713 8.21427422,37.6840135 Z"></path>
            </g>
        </g>
    </g>
</svg>