<?xml version="1.0" encoding="UTF-8"?>
<svg width="52px" height="35px" viewBox="0 0 52 35" version="1.1" xmlns="http://www.w3.org/2000/svg" xmlns:xlink="http://www.w3.org/1999/xlink">
    <!-- Generator: Sketch 52.2 (67145) - http://www.bohemiancoding.com/sketch -->
    <title>carrefour</title>
    <desc>Created with Sketch.</desc>
    <g id="Mad/Studio-Website" stroke="none" stroke-width="1" fill="none" fill-rule="evenodd">
        <g id="SVG" transform="translate(-295.000000, -244.000000)" fill="#FFFFFF" fill-rule="nonzero">
            <g id="carrefour" transform="translate(294.000000, 244.000000)">
                <path d="M26.9268019,0.956866017 C21.456422,0.956866017 19.3180251,8.64438063 19.3180251,17.8071439 C19.3180251,26.9721472 21.456422,34.557367 26.9268019,34.557367 C30.2089725,34.557367 33.0069777,32.6509119 33.0167299,31.0842885 C33.0173992,30.7419367 32.8846935,30.4130252 32.5942325,30.1260209 C31.039339,28.635652 30.4304036,27.1451898 30.4244758,25.8314102 C30.4157753,23.3217328 32.6120159,21.4514916 34.6352992,21.4514916 C37.4186762,21.4514916 39.0597137,23.6212439 39.0597137,26.4294991 C39.0597137,29.0896321 37.9141235,31.3081052 36.6713942,33.081465 C36.6232071,33.1555727 36.6013126,33.2346272 36.6013126,33.3061216 C36.6029379,33.4461237 36.6842058,33.5599921 36.8081154,33.5599921 C36.8837424,33.5599921 36.9720853,33.5202315 37.0677902,33.4242834 L51.042997,20.0262703 C51.7406578,19.4339682 52.1861014,18.7428245 52.1861014,17.7593565 C52.1861014,16.7715951 51.7406578,16.0820382 51.042997,15.4942161 L37.0677902,2.0913216 C36.9720853,1.99640952 36.8837424,1.95665826 36.8081154,1.95665826 C36.6833453,1.95665826 36.6029379,2.07145063 36.6013126,2.21102338 C36.6013126,2.28292845 36.6232071,2.36265498 36.6713942,2.43702408 C37.9141235,4.20816249 39.0597137,6.42928627 39.0597137,9.08744057 C39.0597137,11.8936424 37.4186762,14.0656348 34.6352992,14.0656348 C32.6120159,14.0656348 30.4157753,12.1967003 30.4244758,9.68616416 C30.4304036,8.37126456 31.039339,6.88105434 32.5942325,5.39219748 C32.8846935,5.10232782 33.0173992,4.77583362 33.0167299,4.43349118 C33.0069777,2.86467446 30.2089725,0.956866017 26.9268019,0.956866017 M16.3872186,2.30471278 C16.4786211,2.21486877 16.5646694,2.17870157 16.638671,2.17870157 C16.7713766,2.17870157 16.8645957,2.29594865 16.8602933,2.43903078 C16.8562777,2.52393738 16.8193725,2.61715077 16.7369573,2.69891199 C13.4399673,6.76556195 11.042278,11.5181568 11.042278,18.1117884 C11.042278,24.6997267 13.4399673,29.3611428 16.7369573,33.4257768 C16.8193725,33.507818 16.8562777,33.6025527 16.8602933,33.6859006 C16.8645957,33.8272094 16.7713766,33.9463978 16.638671,33.9463978 C16.5646694,33.9463978 16.4786211,33.9100906 16.3872186,33.8197426 L2.34278114,20.3439817 C1.64187246,19.7480395 1.19452338,19.0528825 1.19452338,18.0637211 C1.19452338,17.0702662 1.64187246,16.3768826 2.34278114,15.7856071 L16.3872186,2.30471278"></path>
            </g>
        </g>
    </g>
</svg>