<?xml version="1.0" encoding="UTF-8"?>
<svg width="111px" height="15px" viewBox="0 0 111 15" version="1.1" xmlns="http://www.w3.org/2000/svg" xmlns:xlink="http://www.w3.org/1999/xlink">
    <!-- Generator: Sketch 52.2 (67145) - http://www.bohemiancoding.com/sketch -->
    <title>coingeek</title>
    <desc>Created with Sketch.</desc>
    <g id="Mad/Studio-Website" stroke="none" stroke-width="1" fill="none" fill-rule="evenodd">
        <g id="SVG" transform="translate(-674.000000, -516.000000)" fill="#FFFFFF" fill-rule="nonzero">
            <g id="coingeek" transform="translate(674.000000, 516.000000)">
                <path d="M0,7.42046326 C0,6.32518648 0.150059693,5.32119779 0.45018358,4.40846712 C0.750307468,3.49573645 1.19165951,2.71536342 1.77425293,2.06732464 C2.35684636,1.41928586 3.07183667,0.91272794 3.91924529,0.547635667 C4.76665391,0.182543397 5.73762839,0 6.83219789,0 C7.20293914,0 7.55602076,0.00912716984 7.89145335,0.0273817834 C8.22688594,0.0456363969 8.55789995,0.0821450765 8.88450535,0.136908917 C9.21111076,0.191672757 9.54653833,0.273817286 9.89079809,0.383344967 C10.2350578,0.492872648 10.6190341,0.629780198 11.0427384,0.794071717 C11.0780471,1.41472857 11.0250849,2.03081254 10.8838501,2.64234209 C10.7426153,3.25387164 10.5219393,3.85170127 10.2218154,4.4358489 C9.92169155,4.32632122 9.65246677,4.23961311 9.41413311,4.17572196 C9.17579946,4.11183082 8.95070992,4.06163138 8.73885775,4.02512215 C8.52700558,3.98861292 8.31957015,3.965795 8.11654516,3.95666769 C7.91352017,3.94754039 7.69725769,3.94297681 7.46775115,3.94297681 C6.62034254,3.94297681 5.91859279,4.20310115 5.36248089,4.72335763 C4.80636897,5.24361411 4.52831719,6.14264034 4.52831719,7.42046326 C4.52831719,8.09588399 4.61217408,8.65720494 4.77989037,9.10444296 C4.94760666,9.55168097 5.16828268,9.90307702 5.44192505,10.1586417 C5.71556741,10.4142062 6.03334088,10.5967496 6.39525501,10.7062773 C6.75716908,10.8158049 7.14114538,10.870568 7.5471953,10.870568 C8.05917139,10.870568 8.50493692,10.8249321 8.88450535,10.7336591 C9.26407378,10.642386 9.70983938,10.4963513 10.2218154,10.2955505 C10.5219393,10.7884251 10.7602694,11.3406189 10.9368129,11.9521484 C11.1133563,12.563678 11.2016267,13.2619065 11.2016267,14.0468548 C10.3895268,14.3754379 9.64805541,14.5853628 8.97719024,14.6766359 C8.30632506,14.767909 7.63546998,14.8135448 6.96460481,14.8135448 C5.83472664,14.8135448 4.83727103,14.6401285 3.97220806,14.2932909 C3.10714509,13.9464533 2.37891423,13.4490225 1.78749363,12.8009837 C1.19607303,12.1529449 0.750307468,11.3771355 0.45018358,10.4735321 C0.150059693,9.56992879 0,8.55224931 0,7.42046326 Z M12.6051402,7.47522684 C12.6051402,6.36169545 12.7507864,5.34401599 13.0420831,4.42215801 C13.3333799,3.50030003 13.7659048,2.71079984 14.3396711,2.05363375 C14.9134374,1.39646766 15.6240141,0.889909742 16.4714228,0.533944775 C17.3188314,0.177979812 18.2986329,0 19.4108567,0 C20.5407349,0 21.5293635,0.177979812 22.3767721,0.533944775 C23.2241807,0.889909742 23.9347575,1.39646766 24.5085238,2.05363375 C25.08229,2.71079984 25.514815,3.50030003 25.8061117,4.42215801 C26.0974084,5.34401599 26.2430546,6.36169545 26.2430546,7.47522684 C26.2430546,8.57050367 26.0974084,9.56992879 25.8061117,10.4735321 C25.514815,11.3771355 25.08229,12.1529449 24.5085238,12.8009837 C23.9347575,13.4490225 23.2241807,13.9464533 22.3767721,14.2932909 C21.5293635,14.6401285 20.5407349,14.8135448 19.4108567,14.8135448 C18.2986329,14.8135448 17.3188314,14.6401285 16.4714228,14.2932909 C15.6240141,13.9464533 14.9134374,13.4490225 14.3396711,12.8009837 C13.7659048,12.1529449 13.3333799,11.3771355 13.0420831,10.4735321 C12.7507864,9.56992879 12.6051402,8.57050367 12.6051402,7.47522684 Z M21.7147374,7.47522684 C21.7147374,6.30693157 21.524956,5.41246894 21.1453876,4.79181209 C20.7658191,4.17115522 20.187648,3.86083145 19.4108567,3.86083145 C18.6340655,3.86083145 18.0603079,4.17115522 17.6895666,4.79181209 C17.3188253,5.41246894 17.1334574,6.30693157 17.1334574,7.47522684 C17.1334574,8.6252675 17.3188253,9.51060295 17.6895666,10.1312599 C18.0603079,10.7519167 18.6340655,11.0622405 19.4108567,11.0622405 C20.187648,11.0622405 20.7658191,10.7519167 21.1453876,10.1312599 C21.524956,9.51060295 21.7147374,8.6252675 21.7147374,7.47522684 Z M33.5519174,14.4575816 C33.0929044,14.5306 32.6780335,14.5853631 32.3072922,14.6218723 C31.936551,14.6583816 31.6011234,14.6766359 31.3009996,14.6766359 C31.0008756,14.6766359 30.6654481,14.6583816 30.2947068,14.6218723 C29.9239656,14.5853631 29.5179217,14.5306 29.076563,14.4575816 L29.076563,0.3285814 C29.4649586,0.237308332 29.8489349,0.173418144 30.2285033,0.136908917 C30.6080718,0.10039969 30.974394,0.08214535 31.3274809,0.08214535 C31.6629135,0.08214535 32.0248222,0.10039969 32.4132178,0.136908917 C32.8016134,0.173418144 33.1811762,0.237308332 33.5519174,0.3285814 L33.5519174,14.4575816 Z M42.6085518,0.0547635667 C43.3853431,0.0547635667 44.1621226,0.12321734 44.9389139,0.260126942 C45.7157051,0.397036543 46.4174549,0.684542392 47.0441842,1.12265311 C47.6709135,1.56076384 48.1828818,2.19053856 48.5801046,3.01199617 C48.9773274,3.83345378 49.1759358,4.91958699 49.1759358,6.2704284 L49.1759358,14.4575816 C48.7169228,14.5488546 48.3020519,14.6081813 47.9313106,14.6355632 C47.5605693,14.6629451 47.2339688,14.6766359 46.9514993,14.6766359 C46.6513754,14.6766359 46.3159478,14.6629451 45.9452066,14.6355632 C45.5744653,14.6081813 45.1595944,14.5488546 44.7005814,14.4575816 L44.7005814,6.76330046 C44.7005814,5.79580597 44.5240406,5.10214106 44.1709537,4.68228495 C43.8178667,4.26242884 43.2794173,4.05250393 42.5555891,4.05250393 C42.3613913,4.05250393 42.1539558,4.07075828 41.9332764,4.1072675 C41.7125971,4.14377673 41.575778,4.18028541 41.522815,4.21679464 L41.522815,14.4575816 C41.063802,14.5488546 40.648931,14.6081813 40.2781897,14.6355632 C39.9074485,14.6629451 39.580848,14.6766359 39.2983784,14.6766359 C38.9982545,14.6766359 38.662827,14.6629451 38.2920857,14.6355632 C37.9213445,14.6081813 37.5064736,14.5488546 37.0474606,14.4575816 L37.0474606,1.01312599 C37.6653626,0.794070625 38.4156611,0.579582131 39.2983784,0.369654075 C40.1810957,0.15972602 41.2844759,0.0547635667 42.6085518,0.0547635667 Z M58.9210862,14.8135448 C57.6499734,14.8135448 56.5686609,14.6173106 55.6771163,14.2248364 C54.7855719,13.8323622 54.057341,13.2984228 53.4924019,12.6230021 C52.9274628,11.9475814 52.5170054,11.1535177 52.2610174,10.240787 C52.0050294,9.32805632 51.8770373,8.35144912 51.8770373,7.31093617 C51.8770373,6.30693243 52.0315105,5.35770675 52.3404616,4.46323068 C52.6494126,3.56875462 53.1084187,2.79294519 53.7174937,2.1357791 C54.3265687,1.47861302 55.0812806,0.958364336 55.9816523,0.57501745 C56.8820239,0.191670567 57.9236148,0 59.106456,0 C59.7243581,0 60.4040402,0.0730173585 61.1455228,0.219054267 C61.8870052,0.365091175 62.6990929,0.620651931 63.5818104,0.985744198 C63.5641562,1.29607263 63.5288477,1.58814206 63.475885,1.86196127 C63.4229217,2.13578047 63.3567189,2.41415915 63.2772742,2.69710566 C63.1978301,2.98005217 63.1007324,3.28124877 62.9859792,3.60070451 C62.871226,3.92016025 62.7344069,4.28068346 62.5755175,4.68228495 C61.9752697,4.42672036 61.4191666,4.23961338 60.9071903,4.12095839 C60.3952142,4.0023034 59.9538622,3.94297681 59.5831209,3.94297681 C59.0005275,3.94297681 58.5062133,4.0342485 58.1001633,4.21679464 C57.6941133,4.39934077 57.3675128,4.64577435 57.120352,4.95610279 C56.8731911,5.26643122 56.6922367,5.62695443 56.5774835,6.03768323 C56.4627303,6.44841203 56.4053545,6.87282546 56.4053545,7.31093617 C56.4053545,8.53399526 56.6613386,9.43302152 57.1733147,10.0080418 C57.6852908,10.5830621 58.4355892,10.870568 59.4242326,10.870568 L59.9008976,10.870568 L59.9008976,6.84544583 C60.3422563,6.75417279 60.7350596,6.69028259 61.0793193,6.65377337 C61.4235789,6.61726416 61.7545929,6.5990098 62.072371,6.5990098 C62.6902737,6.5990098 63.422918,6.6811543 64.2703264,6.84544583 L64.2703264,13.8004188 C63.7583504,14.0012196 63.0433604,14.2202716 62.1253344,14.4575816 C61.2073084,14.6948916 60.1392362,14.8135448 58.9210862,14.8135448 Z M71.1025242,8.87169779 C71.296722,9.62013696 71.6365631,10.1495128 72.1220578,10.4598413 C72.6075525,10.7701697 73.2475126,10.9253315 74.0419583,10.9253315 C74.5539343,10.9253315 75.1276922,10.8614413 75.7632485,10.7336591 C76.3988049,10.6058768 77.0255249,10.4142062 77.643427,10.1586417 C77.8905876,10.6332616 78.1068502,11.1991461 78.2922209,11.8563122 C78.4775917,12.5134783 78.5791023,13.198016 78.5967566,13.909946 C77.02552,14.5123482 75.4189988,14.8135448 73.7771447,14.8135448 C72.5060314,14.8135448 71.4158918,14.6310014 70.506693,14.2659092 C69.5974941,13.9008169 68.8560227,13.3942589 68.2822568,12.7462202 C67.7084903,12.0981814 67.2847922,11.3269355 67.0111503,10.4324595 C66.7375077,9.53798338 66.6006886,8.56137625 66.6006886,7.50260862 C66.6006886,6.46209567 66.7419213,5.48548849 67.024391,4.57275782 C67.30686,3.66002714 67.7305581,2.86596337 68.2954975,2.19054267 C68.8604363,1.51512197 69.5665998,0.981182534 70.4140082,0.588708342 C71.2614166,0.196234151 72.2500455,0 73.3799236,0 C74.3156039,0 75.1497594,0.164289057 75.8824147,0.4928721 C76.6150699,0.821455141 77.2373764,1.27325005 77.7493524,1.84827037 C78.2613284,2.4232907 78.6541316,3.11695561 78.9277742,3.92928591 C79.2014167,4.74161621 79.3382359,5.6223881 79.3382359,6.57162801 C79.3382359,7.06450254 79.3161681,7.50717033 79.2720325,7.89964452 C79.2278963,8.29211871 79.1881748,8.61613322 79.1528658,8.87169779 L71.1025242,8.87169779 Z M73.2210355,3.47748649 C72.6560961,3.47748649 72.1706088,3.66002988 71.7645588,4.02512215 C71.3585088,4.39021442 71.120179,4.95609895 71.0495615,5.72279272 L75.2865834,5.72279272 C75.251275,5.08388125 75.0614937,4.54994181 74.7172336,4.12095839 C74.372974,3.69197498 73.874246,3.47748649 73.2210355,3.47748649 Z M85.8791381,8.87169779 C86.0733359,9.62013696 86.413177,10.1495128 86.8986717,10.4598413 C87.3841664,10.7701697 88.0241264,10.9253315 88.8185722,10.9253315 C89.3305482,10.9253315 89.9043061,10.8614413 90.5398624,10.7336591 C91.1754188,10.6058768 91.8021388,10.4142062 92.4200409,10.1586417 C92.6672021,10.6332616 92.8834641,11.1991461 93.0688348,11.8563122 C93.2542056,12.5134783 93.3557162,13.198016 93.3733711,13.909946 C91.8021339,14.5123482 90.1956127,14.8135448 88.5537586,14.8135448 C87.2826453,14.8135448 86.1925057,14.6310014 85.2833068,14.2659092 C84.374108,13.9008169 83.6326366,13.3942589 83.0588707,12.7462202 C82.4851042,12.0981814 82.0614061,11.3269355 81.7877642,10.4324595 C81.5141216,9.53798338 81.3773025,8.56137625 81.3773025,7.50260862 C81.3773025,6.46209567 81.5185352,5.48548849 81.8010049,4.57275782 C82.0834739,3.66002714 82.507172,2.86596337 83.0721114,2.19054267 C83.6370502,1.51512197 84.3432137,0.981182534 85.1906221,0.588708342 C86.0380311,0.196234151 87.0266594,0 88.1565375,0 C89.0922178,0 89.9263733,0.164289057 90.6590286,0.4928721 C91.3916838,0.821455141 92.0139903,1.27325005 92.5259663,1.84827037 C93.0379423,2.4232907 93.4307455,3.11695561 93.7043881,3.92928591 C93.9780306,4.74161621 94.1148498,5.6223881 94.1148498,6.57162801 C94.1148498,7.06450254 94.092782,7.50717033 94.0486464,7.89964452 C94.0045102,8.29211871 93.9647887,8.61613322 93.9294803,8.87169779 L85.8791381,8.87169779 Z M87.9976494,3.47748649 C87.43271,3.47748649 86.9472227,3.66002988 86.5411727,4.02512215 C86.1351227,4.39021442 85.8967929,4.95609895 85.8261754,5.72279272 L90.0631973,5.72279272 C90.0278889,5.08388125 89.8381076,4.54994181 89.4938475,4.12095839 C89.1495879,3.69197498 88.6508599,3.47748649 87.9976494,3.47748649 Z M96.815951,0.3285814 C97.2043468,0.237308332 97.5883228,0.173418144 97.9678914,0.136908917 C98.34746,0.10039969 98.7137819,0.08214535 99.0668691,0.08214535 C99.4023015,0.08214535 99.7642104,0.10039969 100.152606,0.136908917 C100.541002,0.173418144 100.920564,0.237308332 101.291306,0.3285814 L101.291306,14.4301998 C100.832293,14.5214729 100.417422,14.5807995 100.046681,14.6081814 C99.6759392,14.6355633 99.3493388,14.6492541 99.0668691,14.6492541 C98.7667452,14.6492541 98.4313177,14.6355633 98.0605762,14.6081814 C97.6898353,14.5807995 97.2749643,14.5214729 96.815951,14.4301998 L96.815951,0.3285814 Z M104.839811,0.3285814 C105.15759,0.255562946 105.54598,0.200799927 106.004992,0.1642907 C106.464006,0.127781473 106.870049,0.109527133 107.223136,0.109527133 C107.682149,0.109527133 108.145569,0.127781473 108.613409,0.1642907 C109.081249,0.200799927 109.456399,0.255562946 109.738868,0.3285814 L106.455176,6.90020941 L110.109607,14.4301998 C109.791829,14.5032182 109.394613,14.5579813 108.917945,14.5944905 C108.441277,14.6309998 108.026407,14.6492541 107.67332,14.6492541 C107.214307,14.6492541 106.759714,14.6309998 106.309529,14.5944905 C105.859342,14.5579813 105.501848,14.5032182 105.237032,14.4301998 L101.715008,7.09188186 L104.839811,0.3285814 Z"></path>
            </g>
        </g>
    </g>
</svg>