<?xml version="1.0" encoding="UTF-8"?>
<svg width="73px" height="55px" viewBox="0 0 73 55" version="1.1" xmlns="http://www.w3.org/2000/svg" xmlns:xlink="http://www.w3.org/1999/xlink">
    <!-- Generator: Sketch 52.2 (67145) - http://www.bohemiancoding.com/sketch -->
    <title>ds-automobiles</title>
    <desc>Created with Sketch.</desc>
    <g id="Mad/Studio-Website" stroke="none" stroke-width="1" fill="none" fill-rule="evenodd">
        <g id="SVG" transform="translate(-701.000000, -159.000000)" fill="#FFFFFF">
            <g id="ds-automobiles" transform="translate(701.000000, 159.000000)">
                <path d="M53.9112873,28.1751326 C54.0067319,28.269015 54.3434371,28.5532698 54.3911587,28.9783481 C54.3911587,29.4477599 54.0067319,29.7789559 53.7681218,29.9667205 L36.3495885,43.2771497 L36.3495885,42.758189 C36.3495885,42.4739341 36.3999619,42.2418362 36.4476835,42.0045225 C36.4954058,41.7202676 36.6862937,41.3890716 36.8771822,41.2013069 C37.8395754,40.2572679 40.7665255,37.3782095 41.4346336,36.6714842 C43.0200652,35.0676609 44.5551226,33.1300338 45.2762552,31.3384458 C45.5625877,30.5352302 45.7534755,29.7789559 45.7534755,28.9783481 C45.7534755,28.0812503 45.6103094,27.1841523 45.2762552,26.2401133 C43.7411971,21.6633494 37.9827416,16.3303111 36.734016,15.1489583 C36.638572,15.1020171 36.4476835,14.8647034 36.3495885,14.5830565 C36.2541445,14.9611936 35.965161,15.1958994 35.7742732,15.3393308 L18.3583916,28.6471521 L18.3583916,0 L35.7742732,13.3104292 C35.965161,13.4512527 36.2541445,13.7328997 36.3495885,14.0640957 C36.4476835,13.6859585 36.734016,13.4512527 36.927555,13.3104292 L54.3434371,0.046941188 L54.3434371,0.565901868 C54.3434371,0.753666552 54.2957148,1.03792142 54.2453414,1.32217624 C54.1976198,1.60643111 54.0544536,1.8880781 53.8158434,2.12539179 C52.8561013,3.11637203 49.9291513,5.94848925 49.258392,6.65521461 C47.6729605,8.25903783 46.137903,10.1940571 45.4194215,11.9882529 C45.1304379,12.7914685 44.9395501,13.545135 44.9395501,14.3457427 C44.9395501,15.2428406 45.0827163,16.1425464 45.4194215,17.0839776 C46.9544796,21.6633494 52.6625617,26.9963877 53.9112873,28.1751326 Z M3.11863314,51.908066 C3.11863314,50.6823799 2.49559593,50.1634191 1.29724326,50.1634191 L0.576110659,50.1634191 L0.576110659,53.7022617 L1.19914801,53.7022617 C2.59103991,53.7022617 3.11863314,53.1363598 3.11863314,51.908066 Z M1.44040928,49.6444584 C3.02318922,49.6444584 3.78939238,50.4450662 3.78939238,51.908066 C3.78939238,53.2771834 3.02318922,54.1742813 1.39268724,54.1742813 L0.000795337347,54.1742813 L0.000795337347,49.6444584 L1.44040928,49.6444584 Z M8.30071339,50.3978642 C8.10982486,50.2100996 7.72539807,50.1162173 7.34097058,50.1162173 C6.67021134,50.1162173 6.33350616,50.3978642 6.33350616,50.7786093 C6.33350616,51.1541386 6.57476743,51.29757 7.19515323,51.579217 C8.30071339,52.0512366 8.73286249,52.2390011 8.73286249,52.9952756 C8.73286249,53.6081186 8.25299108,54.2679028 7.05198702,54.2679028 C6.42895008,54.2679028 5.80591246,54.0801381 5.42148497,53.7984912 L5.71046854,53.3238638 C6.0445226,53.5611775 6.57476743,53.7489421 7.09970932,53.7489421 C7.82084199,53.7489421 8.15754717,53.417746 8.15754717,52.9952756 C8.15754717,52.6171384 7.82084199,52.4763148 7.05198702,52.1451188 C6.0922449,51.7669817 5.71046854,51.4853347 5.71046854,50.7786093 C5.71046854,50.1162173 6.19033994,49.5503154 7.34097058,49.5503154 C7.77311969,49.5503154 8.25299108,49.6911389 8.53932284,49.9258447 L8.30071339,50.3978642 Z M15.6899355,52.4275482 C15.4486742,51.767764 15.1146202,50.9176073 14.7779151,50.3047642 C14.4889321,50.7767837 14.1071558,51.8147052 13.8658945,52.4275482 L15.6899355,52.4275482 Z M16.8882885,54.221744 L16.3129732,54.221744 C16.169807,53.7966656 16.0239896,53.3715873 15.880824,52.9465089 L13.7227283,52.9465089 L13.2905792,54.221744 L12.6675423,54.221744 C13.147413,52.711803 13.7227283,51.105372 14.4889321,49.64498 L15.0191763,49.64498 C15.5944917,50.6359602 16.4587905,52.8082932 16.8882885,54.221744 Z M21.7352541,49.643937 L22.358291,49.643937 L22.358291,52.4265051 C22.358291,53.373152 22.0693082,54.2233086 20.6296939,54.2233086 C20.0066563,54.2233086 19.4790633,54.0329362 19.1927316,53.654799 C18.903748,53.2792696 18.8560257,52.8515834 18.8560257,52.3821717 L18.8560257,49.5943879 L19.4790633,49.5943879 L19.4790633,52.2882893 C19.4790633,53.0888972 19.6248806,53.704348 20.5819716,53.704348 C21.5417144,53.704348 21.7352541,53.0888972 21.7352541,52.2882893 L21.7352541,49.643937 Z M26.4371969,54.2230479 L25.8618816,54.2230479 L25.8618816,50.209578 L24.4699897,50.209578 L24.4699897,49.6906172 L27.8768112,49.6906172 L27.8768112,50.209578 L26.4371969,50.209578 L26.4371969,54.2230479 Z M30.131676,51.908066 C30.131676,52.901654 30.7069914,53.7492029 31.7621781,53.7492029 C32.8650864,53.7492029 33.3926801,52.852105 33.3926801,51.908066 C33.3926801,50.9170857 32.7696425,50.116478 31.7621781,50.116478 C30.8024352,50.116478 30.131676,50.8232033 30.131676,51.908066 Z M29.5086384,51.908066 C29.5086384,50.5415564 30.4180078,49.5949095 31.7621781,49.5949095 C33.1063477,49.5949095 34.0183682,50.5415564 34.0183682,51.908066 C34.0183682,53.183301 33.2495139,54.2681636 31.7621781,54.2681636 C30.4180078,54.2681636 29.5086384,53.3241246 29.5086384,51.908066 Z M41.2143174,49.643937 L41.2143174,54.1737597 L40.5912798,54.1737597 L40.5912798,50.25678 C40.3977408,50.5410348 39.9682422,51.2477602 39.7747032,51.5789562 C39.5838153,51.9075444 39.3425541,52.4760541 39.1516656,52.8515834 L38.4809063,52.8515834 C38.0964795,52.0040345 37.5688858,51.0599955 37.0412928,50.25678 L37.0412928,54.1737597 L36.415604,54.1737597 L36.415604,49.643937 L37.279903,49.643937 C37.807496,50.3506623 38.0010349,50.6349172 38.2396451,51.0599955 C38.5286286,51.5320151 38.6240726,51.7197797 38.8149604,52.194407 C39.1993879,51.3416425 39.7747032,50.3976035 40.3500185,49.643937 L41.2143174,49.643937 Z M44.236976,51.908066 C44.236976,52.901654 44.8122913,53.7492029 45.8701291,53.7492029 C46.9730382,53.7492029 47.5006312,52.852105 47.5006312,51.908066 C47.5006312,50.9170857 46.8775935,50.116478 45.8701291,50.116478 C44.8600136,50.116478 44.236976,50.8232033 44.236976,51.908066 Z M43.5662167,51.908066 C43.5662167,50.5415564 44.4782372,49.5949095 45.8197558,49.5949095 C47.163926,49.5949095 48.0759465,50.5415564 48.0759465,51.908066 C48.0759465,53.183301 47.3070922,54.2681636 45.8197558,54.2681636 C44.4782372,54.2681636 43.5662167,53.3241246 43.5662167,51.908066 Z M53.0180907,52.9011325 C53.0180907,52.2882893 52.5382193,52.0979169 51.8170867,52.0979169 L51.0986058,52.0979169 L51.0986058,53.7486813 L51.8648089,53.7486813 C52.6840366,53.7486813 53.0180907,53.4670343 53.0180907,52.9011325 Z M51.0986058,51.6728385 L51.7216427,51.6728385 C52.2996092,51.6728385 52.6336632,51.4850739 52.6336632,50.9165642 C52.6336632,50.3976035 52.2996092,50.1628976 51.7216427,50.1628976 L51.0986058,50.1628976 L51.0986058,51.6728385 Z M53.6411283,52.9480736 C53.6411283,53.373152 53.4502398,53.704348 53.1135346,53.936446 C52.7794806,54.1737597 52.3950531,54.2233086 51.8648089,54.2233086 L50.4755681,54.2233086 L50.4755681,49.6908781 L51.8170867,49.6908781 C52.731759,49.6908781 53.2089785,50.1628976 53.2089785,50.8722308 C53.2089785,51.2973092 53.0180907,51.6258974 52.5859416,51.813662 C53.2567008,51.9075444 53.6411283,52.3821717 53.6411283,52.9480736 Z M56.1847108,54.1750637 L56.1847108,49.6452408 L56.8077484,49.6452408 L56.8077484,54.1750637 L56.1847108,54.1750637 Z M60.3593266,53.7035656 L62.3742555,53.7035656 L62.3742555,54.2225263 L59.736289,54.2225263 L59.736289,49.6431546 L60.3593266,49.6431546 L60.3593266,53.7035656 Z M65.1089918,50.2093172 L65.1089918,51.5314935 L66.7394938,51.5314935 L66.7394938,52.0504542 L65.1089918,52.0504542 L65.1089918,53.7038265 L67.2670869,53.7038265 L67.2670869,54.2227871 L64.4859542,54.2227871 L64.4859542,49.6434154 L67.1239213,49.6434154 L67.1239213,50.2093172 L65.1089918,50.2093172 Z M72.1617741,50.3978642 C71.9708862,50.2100996 71.5864588,50.1162173 71.202032,50.1162173 C70.5312727,50.1162173 70.1945668,50.3978642 70.1945668,50.7786093 C70.1945668,51.1541386 70.435828,51.29757 71.0588657,51.579217 C72.1617741,52.0512366 72.5939239,52.2390011 72.5939239,52.9952756 C72.5939239,53.6081186 72.1140524,54.2679028 70.9156995,54.2679028 C70.2900114,54.2679028 69.6669738,54.0801381 69.2825463,53.7984912 L69.5715299,53.3238638 C69.9055839,53.5611775 70.435828,53.7489421 70.9634218,53.7489421 C71.6819033,53.7489421 72.0186085,53.417746 72.0186085,52.9952756 C72.0186085,52.6171384 71.6819033,52.4763148 70.9156995,52.1451188 C69.9533056,51.7669817 69.5715299,51.4853347 69.5715299,50.7786093 C69.5715299,50.1162173 70.0514012,49.5503154 71.202032,49.5503154 C71.634181,49.5503154 72.1140524,49.6911389 72.4030353,49.9258447 L72.1617741,50.3978642 Z"></path>
            </g>
        </g>
    </g>
</svg>