<?xml version="1.0" encoding="UTF-8"?>
<svg width="80px" height="28px" viewBox="0 0 80 28" version="1.1" xmlns="http://www.w3.org/2000/svg" xmlns:xlink="http://www.w3.org/1999/xlink">
    <!-- Generator: Sketch 52.2 (67145) - http://www.bohemiancoding.com/sketch -->
    <title>fred</title>
    <desc>Created with Sketch.</desc>
    <g id="Mad/Studio-Website" stroke="none" stroke-width="1" fill="none" fill-rule="evenodd">
        <g id="SVG" transform="translate(-697.000000, -98.000000)" fill="#FFFFFF">
            <g id="fred" transform="translate(697.000000, 98.000000)">
                <path d="M13.2721057,12.2153756 C12.9571496,12.2798259 12.8059918,12.20168 12.7043421,11.9433415 C12.6977586,11.9269604 12.689595,11.9105793 12.6861716,11.8933925 C12.465755,10.7931721 11.6759948,10.4094241 10.7047926,10.3124801 C10.0625034,10.2482983 9.41257735,10.2585028 8.76581144,10.2517894 C7.89046535,10.2429274 7.01538266,10.2488354 6.14029991,10.2504466 C5.83008399,10.2509838 5.76372202,10.3140913 5.76398537,10.6223787 C5.76582875,12.6925765 5.76793548,14.7630429 5.77609906,16.8332407 C5.77688908,17.08218 5.80243317,17.3329991 5.83956428,17.5789845 C5.95912118,18.3693064 6.42286499,18.8532209 7.20920172,19.0406639 C7.35930624,19.0766487 7.608427,19.0508686 7.5931532,19.2740278 C7.57656267,19.5170591 7.33086536,19.4582483 7.16627713,19.4582483 C4.90865321,19.4614708 2.65076596,19.4630821 0.393142044,19.4534145 C0.258311361,19.4526088 0.0276244895,19.3755371 0.00787390122,19.2928258 C-0.0461110402,19.0664441 0.187209243,19.0774543 0.32730675,19.0449606 C1.25295099,18.8303948 1.71300803,18.2804187 1.78042337,17.2782164 C1.80333405,16.9401208 1.81571109,16.6006824 1.81571109,16.2620497 C1.81808115,11.996513 1.81913452,7.73043934 1.81439438,3.46490263 C1.81413104,3.05564314 1.80228069,2.64262403 1.74803241,2.23792977 C1.62742214,1.34099622 1.17078854,0.86433243 0.301499314,0.672592745 C0.233557291,0.657554337 0.15297489,0.65594308 0.103203407,0.615661633 C0.0502718308,0.572963299 0.000500348238,0.491594777 0.000500348238,0.427144462 C0.000500348238,0.382029242 0.0797660429,0.313282239 0.135857713,0.296901118 C0.225920396,0.270583905 0.325990044,0.273000792 0.421846233,0.273000792 C5.64627186,0.27192662 10.8709608,0.27192662 16.0953864,0.272195164 C16.5159423,0.272195164 16.55281,0.299586547 16.606795,0.727912598 C16.7263519,1.67372097 16.8395886,2.62060351 16.953352,3.56721752 C16.9617789,3.6365016 16.9544053,3.70766549 16.9544053,3.77533832 C16.4756511,3.92196279 16.1533215,3.77829229 15.9350117,3.33439075 C15.8528492,3.16735702 15.7609432,3.00515705 15.6700904,2.84268856 C15.2147735,2.02766062 14.5048058,1.64042164 13.607339,1.57731404 C13.30239,1.5558306 12.9958608,1.54643159 12.6901217,1.54616306 C10.5199271,1.54347762 8.34973237,1.5445518 6.17901105,1.54508889 C5.8166536,1.54508889 5.76398537,1.59638059 5.76372202,1.95837652 C5.76266866,4.1625773 5.76266866,6.36677807 5.76345868,8.57124738 C5.76345868,8.91847343 5.82034037,8.97916419 6.16031384,8.97889562 C7.50783062,8.97782143 8.85561077,8.98856318 10.2031276,8.96036614 C10.6081464,8.95204135 11.0192219,8.86315363 11.4126537,8.75466223 C12.0599462,8.57634967 12.4776053,8.14399553 12.655624,7.46860987 C12.699602,7.30103912 12.8073085,7.12433779 12.9368723,7.01369811 C13.0904003,6.88264911 13.2699989,6.97153685 13.2702623,7.14662688 C13.2734224,8.83280821 13.2721057,10.5192581 13.2721057,12.2153756 Z M32.3825905,11.3921571 C32.9932787,13.2359732 33.7835656,14.9581393 34.8208665,16.5575813 C37.7260464,21.039295 41.8154715,23.7725255 46.8945329,25.031992 C48.7708387,25.4973771 50.6782189,25.715434 52.6092997,25.7436309 C55.4884088,25.7860608 58.3382871,25.5642443 61.136287,24.8270937 C62.2641773,24.5298167 63.3573065,24.1358642 64.4088278,23.6237527 C64.4717664,23.5934073 64.5347049,23.5579597 64.6015936,23.5434583 C64.6339845,23.5364762 64.6921829,23.5619878 64.7082468,23.5909905 C64.7240472,23.6186504 64.7137769,23.6822951 64.6911296,23.7072696 C64.6447816,23.7582927 64.5839497,23.7972314 64.5260147,23.8356332 C61.6076677,25.7629661 58.4325631,27.0173303 54.9880606,27.4966796 C49.9200597,28.2021419 44.9787257,27.6559255 40.2662354,25.5897558 C34.053227,22.8661929 30.0362206,18.1140564 28.099873,11.5183723 C28.0374611,11.3054177 27.9800527,11.0903148 27.930808,10.8733321 C27.8581258,10.5545716 27.9373914,10.4468858 28.2610377,10.4264765 C29.0900358,10.3746478 29.8879595,10.1853249 30.6342684,9.81446705 C31.9083131,9.18151131 32.8384341,8.2276466 33.1296894,6.76918974 C33.5670992,4.57734192 32.4874003,2.67659472 30.4048983,1.89647737 C29.4995313,1.55703905 28.5586133,1.42894404 27.6005781,1.41551689 C26.9530221,1.40638643 26.3054662,1.41283147 25.6579102,1.41417417 C25.3453242,1.41497981 25.2642152,1.49285727 25.2642152,1.80275587 C25.2631618,6.71091591 25.2613184,11.6190759 25.2663219,16.5272359 C25.2668486,16.8736564 25.2966061,17.2232994 25.3495377,17.5654231 C25.4767315,18.3903871 25.9262549,18.8530867 26.7289188,19.0405297 C26.8750732,19.0749032 27.1202438,19.0405297 27.0870628,19.2900061 C27.0559885,19.5212216 26.8292518,19.4573084 26.6749338,19.4575769 C24.4257369,19.4616051 22.1768032,19.4616051 19.9278695,19.4575769 C19.7656514,19.4573084 19.5217974,19.5214901 19.4986234,19.28007 C19.4770294,19.0536882 19.71983,19.0735604 19.8717779,19.0394554 C20.6989325,18.8525496 21.1737367,18.3213715 21.2619559,17.4510237 C21.297507,17.0965471 21.3193643,16.7393849 21.319891,16.3835655 C21.3238411,12.0374659 21.3238411,7.69163485 21.319891,3.34553528 C21.3196277,2.98971583 21.2980337,2.63255368 21.262746,2.27834548 C21.17479,1.39833014 20.6934023,0.86983756 19.820953,0.673801188 C19.7698648,0.66225384 19.7053462,0.671652844 19.6690052,0.642650202 C19.6000098,0.588404521 19.5470782,0.512943944 19.4875631,0.446345284 C19.5562951,0.391562517 19.6176536,0.316101941 19.695866,0.286830756 C19.7738149,0.257828113 19.8683544,0.272060892 19.9557837,0.272060892 C23.333661,0.271792348 26.7115383,0.268032747 30.0894156,0.273403607 C31.8990962,0.276357579 33.5913265,0.702535287 35.071304,1.81081216 C36.146526,2.61563547 36.8928349,3.6586564 37.1219417,5.02339182 C37.4840358,7.18006047 36.5665552,9.21776458 34.7244836,10.4119752 C34.0843012,10.8271426 33.3925039,11.1163635 32.6622589,11.3156224 C32.5787797,11.3384486 32.4955639,11.3612747 32.3825905,11.3921571 Z M65.554178,19.4599669 C64.2153512,19.4599669 62.8765246,19.4621153 61.537698,19.4575501 C61.3746899,19.4567445 61.1313626,19.5214632 61.1095053,19.2770892 C61.0889646,19.0461422 61.3354521,19.0746078 61.4852931,19.0394287 C62.3856566,18.8291595 62.8307033,18.2638766 62.9039121,17.2103825 C62.9265595,16.8816858 62.9402531,16.551378 62.9405165,16.2216071 C62.9428865,11.9740628 62.9442033,7.72651857 62.9384098,3.47897428 C62.9378832,3.04339758 62.9070722,2.60540397 62.8580908,2.1725127 C62.7711881,1.40447978 62.3271949,0.936946447 61.6114336,0.7229177 C61.502937,0.69069254 61.3812734,0.69122963 61.2817304,0.642623348 C61.2074682,0.606370046 61.1590135,0.515065433 61.0992349,0.448466774 C61.1677037,0.392878377 61.2293255,0.315000913 61.3072746,0.288146616 C61.3947038,0.258338345 61.4974068,0.271765494 61.5935264,0.271765494 C63.7550307,0.271496951 65.9165349,0.266663178 68.0777761,0.273376752 C70.2000429,0.280090327 72.2822811,0.544336618 74.2623435,1.37467151 C76.3825038,2.26408586 78.0573532,3.66641729 79.0672667,5.80912171 C79.5968459,6.93270555 79.861767,8.12557348 79.9231259,9.36731618 C79.9997583,10.9098271 79.8146291,12.4088339 79.1994644,13.8350657 C78.3609858,15.7782428 76.9339403,17.1284769 75.0876553,18.0444769 C73.5191949,18.8224459 71.8467155,19.2319739 70.1165634,19.3466418 C68.5991919,19.4470769 67.0760261,19.4556703 65.5554943,19.5050821 C65.555231,19.4900437 65.5547041,19.4752739 65.554178,19.4599669 Z M66.8882642,9.41833938 C66.8882642,11.827707 66.8880009,14.2373431 66.888791,16.6467107 C66.888791,16.7804451 66.8895806,16.9147166 66.9009042,17.0479139 C66.9635795,17.7775452 67.3880856,18.1894901 68.1072706,18.1755259 C68.6128855,18.1658583 69.1240305,18.1475974 69.6222722,18.0662289 C72.2043324,17.6435422 74.1520036,16.2973363 75.1985214,13.8157306 C76.2905974,11.2256336 76.2121219,8.57081773 75.2440795,5.96809916 C74.3500362,3.5646395 72.6177782,2.08550478 70.1076097,1.68349594 C69.1901294,1.53660293 68.2431547,1.58037543 67.3090833,1.5470761 C66.9332955,1.53391749 66.888791,1.59031152 66.8885276,1.97593924 C66.8880009,4.45673927 66.8882642,6.9375393 66.8882642,9.41833938 Z M53.6548698,12.2156441 C53.3378071,12.2800945 53.191126,12.2040967 53.0868429,11.9438786 C53.0799959,11.9274975 53.0713058,11.911385 53.0678823,11.8941982 C52.8440424,10.7805504 52.0445385,10.381227 51.0614859,10.3143599 C50.0160213,10.2426589 48.9642367,10.2662906 47.9148221,10.2501781 C47.6612246,10.2461499 47.4071004,10.2571602 47.1537661,10.2474927 C46.9041187,10.2380936 46.8051024,10.3578638 46.8074725,10.6017008 C46.8116859,11.0657431 46.8085258,11.5295168 46.8085258,11.9938276 L46.8085258,16.6785599 C46.8085258,16.7588542 46.8056291,16.8394171 46.8106326,16.919443 C46.8661976,17.8144967 47.248569,18.1813264 48.1289185,18.1805208 C49.63365,18.1789095 51.1389082,18.1875029 52.643903,18.1670936 C53.3180564,18.1582317 53.986943,18.0626304 54.6171185,17.7919391 C55.3821246,17.4632425 55.8874763,16.8737906 56.246937,16.1269726 C56.3570136,15.8984426 56.4960577,15.6723294 56.6677562,15.4897201 C56.928464,15.2131209 57.2684374,15.1551156 57.6418552,15.2520596 C57.4859573,16.5569099 57.3313759,17.8486016 57.1775847,19.1397563 C57.152304,19.3519053 57.0364339,19.4571741 56.8283943,19.4593225 C56.7496553,19.4603966 56.6709163,19.4603966 56.5921773,19.4603966 C51.5605174,19.4606652 46.5288575,19.4606652 41.497461,19.4603966 C41.4100317,19.4603966 41.3154922,19.4735552 41.2378066,19.4440155 C41.1590676,19.4142072 41.0974457,19.3382096 41.0287137,19.2826212 C41.0874388,19.2160225 41.1351035,19.1236438 41.2085757,19.0895387 C41.3257625,19.0350246 41.4616466,19.0240142 41.5872603,18.9864182 C42.3022316,18.7723895 42.7014568,18.2771962 42.7936262,17.5322581 C42.8370775,17.179124 42.8594615,16.8211562 42.8597249,16.4653368 C42.8639383,12.0660657 42.863675,7.66679461 42.8597249,3.26752355 C42.8594615,2.92083457 42.8354975,2.57226578 42.797313,2.22745659 C42.7072503,1.42048495 42.2664172,0.917235399 41.4916675,0.711531476 C41.3989714,0.686825522 41.2949516,0.686288436 41.2138425,0.641710302 C41.140107,0.601160312 41.0898088,0.515226559 41.0292404,0.449433529 C41.0966557,0.393308047 41.1566975,0.314087868 41.2341198,0.287502113 C41.3212857,0.2574253 41.4242521,0.27192662 41.5203717,0.27192662 C46.4556487,0.271658077 51.3909257,0.27192662 56.3264661,0.272195164 C56.8012702,0.272195164 56.8204941,0.286427941 56.8807992,0.765508615 C56.997196,1.69386169 57.1114861,2.62275186 57.2241961,3.55137348 C57.2336764,3.62844531 57.2255128,3.70739694 57.2255128,3.78258897 C56.7180544,3.91014689 56.4183721,3.77480123 56.1984822,3.33251095 C56.1157931,3.16574576 56.0273104,3.001666 55.9367211,2.8391975 C55.4879877,2.03276293 54.7853935,1.64740375 53.8992504,1.5789253 C53.6116818,1.55663624 53.3225332,1.54670014 53.034438,1.54616306 C51.1004604,1.54320908 49.1667461,1.54428325 47.2327685,1.54508889 C46.8617208,1.54508889 46.8090525,1.59879748 46.8087892,1.97717454 C46.8085258,4.15425246 46.8082625,6.33159893 46.8090525,8.5089454 C46.8093159,8.93807711 46.8525038,8.98050687 47.2793799,8.97943276 C48.3556552,8.97701581 49.432194,8.98910023 50.5079427,8.9617089 C50.9142781,8.95123564 51.3266704,8.8819516 51.7219455,8.78017385 C52.4205897,8.60051859 52.8838068,8.15420012 53.0447083,7.41409565 C53.0921096,7.19577027 53.191126,7.00671598 53.43972,6.97073124 C53.5653337,6.95247029 53.6575032,6.97529645 53.6572398,7.1474325 C53.6532898,8.83361383 53.6548698,10.5197952 53.6548698,12.2156441 Z"></path>
            </g>
        </g>
    </g>
</svg>