<?xml version="1.0" encoding="UTF-8"?>
<svg width="120px" height="34px" viewBox="0 0 120 34" version="1.1" xmlns="http://www.w3.org/2000/svg" xmlns:xlink="http://www.w3.org/1999/xlink">
    <!-- Generator: Sketch 52.2 (67145) - http://www.bohemiancoding.com/sketch -->
    <title>garnier</title>
    <desc>Created with Sketch.</desc>
    <g id="Mad/Studio-Website" stroke="none" stroke-width="1" fill="none" fill-rule="evenodd">
        <g id="SVG" transform="translate(-261.000000, -333.000000)" fill="#FEFEFE">
            <g id="garnier" transform="translate(261.000000, 333.000000)">
                <path d="M24.6593407,17.4163265 L31.4505494,17.4163265 L32.3076923,19.2204082 C31.2527473,27.5469388 24.4615384,34 16.2197802,34 C7.25274725,34 2.7000624e-13,26.367347 2.7000624e-13,17 C2.7000624e-13,16.8612245 2.7000624e-13,16.722449 2.7000624e-13,16.5836735 C0.131868132,20.7469388 2.76923077,24.9795918 9.56043955,24.9795918 C16.4835165,24.9795918 19.1208791,20.5387755 19.1208791,16.3061225 C19.1208791,15.9591837 19.1208791,15.6122449 19.054945,15.2653061 L5.40659341,15.2653061 L5.73626374,17.3469388 L16.4835165,17.3469388 C16.0219781,21.0244898 13.1208791,22.8285714 9.56043955,22.8285714 C5.67032967,22.8285714 2.57142857,20.677551 2.57142857,16.3061225 C2.57142857,11.9346939 5.6043956,9.78367349 9.56043955,9.78367349 C11.9340659,9.78367349 13.9780219,10.5469388 15.2307692,12.1428572 L18.1318682,12.1428572 C16.8131868,9.57551019 14.1098901,7.63265306 9.56043955,7.63265306 C3.69230769,7.63265306 0.857142854,10.8244898 0.197802198,14.432653 C1.38461539,6.24489796 8.10989011,-2.13162821e-14 16.2197802,-2.13162821e-14 C23.8681318,-2.13162821e-14 30.3296703,5.55102041 32.043956,12.9061225 L29.8021978,8.11836735 L26.5054945,8.11836735 L18.6593407,24.5632653 L21.4285715,24.5632653 L24.6593407,17.4163265 Z M113.274725,15.6122449 C115.846154,15.6122449 116.43956,14.1551021 116.43956,13.0448979 C116.43956,11.5183674 115.384616,10.477551 113.340659,10.477551 L106.087912,10.477551 L106.087912,15.6122449 L113.274725,15.6122449 Z M118.813186,20.9551021 C120,24.9795918 118.813186,20.9551021 120,24.9795918 L117.296703,24.9795918 L116.373626,21.9265306 C115.516483,19.0816326 114.725275,17.6938775 112.54945,17.6938775 L106.087912,17.6938775 L106.087912,25.0489796 L103.516483,25.0489796 L103.516483,8.39591837 L114,8.39591837 C117.494506,8.39591837 119.076923,10.4081633 119.076923,12.8367347 C119.076923,14.5020408 117.89011,16.3061225 115.978022,16.8612245 C115.978022,16.8612245 117.89011,17.832653 118.813186,20.9551021 Z M91.9780217,7.63265306 C98.9010989,7.63265306 101.538461,12.0734694 101.472527,16.3755102 C101.472527,16.722449 101.472527,17.0693877 101.406593,17.4163265 L88.0879124,17.4163265 L87.8241761,15.2653061 L98.9010989,15.2653061 C98.4395603,11.5877551 95.5384614,9.78367349 91.9780217,9.78367349 C88.0879124,9.78367349 84.9890113,11.9346939 84.9890113,16.3061225 C84.9890113,20.677551 88.0219783,22.8285714 91.9780217,22.8285714 C94.3516487,22.8285714 96.3956045,22.0653061 97.6483513,20.4693877 L100.54945,20.4693877 C99.2307693,23.0367347 96.5274727,24.9795918 91.9780217,24.9795918 C85.0549454,24.9795918 82.4175824,20.5387755 82.4175824,16.3061225 C82.4175824,12.0734694 85.0549454,7.63265306 91.9780217,7.63265306 Z M77.1428572,24.9795918 L77.1428572,8.32653061 L79.7802198,8.32653061 L79.7802198,24.9795918 L77.1428572,24.9795918 Z M71.2747252,22.4122449 L71.2747252,8.32653061 L73.8461539,8.32653061 L73.8461539,24.9795918 L70.0879121,24.9795918 L59.9340659,10.8938775 L59.9340659,24.9795918 L59.6043956,24.9795918 L57.3626374,24.9795918 L57.3626374,8.32653061 L59.6043956,8.32653061 L61.1208791,8.32653061 L71.2747252,22.4122449 Z M48.6593407,15.6122449 C51.2307692,15.6122449 51.8241758,14.1551021 51.8241758,13.0448979 C51.8241758,11.5183674 50.7692308,10.477551 48.7252748,10.477551 L41.4725275,10.477551 L41.4725275,15.6122449 L48.6593407,15.6122449 Z M51.3626374,16.8612245 C51.3626374,16.8612245 53.2087912,17.7632653 54.1978022,20.9551021 C55.3846154,24.9795918 54.1978022,20.9551021 55.3846154,24.9795918 L52.6813186,24.9795918 L51.7582417,21.9265306 C50.9010989,19.0816326 50.1098901,17.6938775 47.9340659,17.6938775 L41.4725275,17.6938775 L41.4725275,25.0489796 L38.9010989,25.0489796 L38.9010989,8.39591837 L49.3846154,8.39591837 C52.8791209,8.39591837 54.4615384,10.4081633 54.4615384,12.8367347 C54.4615384,14.5020408 53.2747252,16.3061225 51.3626374,16.8612245 Z M32.043956,12.9755102 L37.5824176,24.5632653 L34.8131868,24.5632653 L32.3736264,19.2204082 C32.4395605,18.5265306 32.5054945,17.7632653 32.5054945,17 C32.5054945,15.6122449 32.3736264,14.2938775 32.043956,12.9755102 Z M25.6483517,15.3346939 L28.0879121,9.92244896 L30.5274725,15.3346939 L25.6483517,15.3346939 Z"></path>
            </g>
        </g>
    </g>
</svg>