<?xml version="1.0" encoding="UTF-8"?>
<svg width="111px" height="20px" viewBox="0 0 111 20" version="1.1" xmlns="http://www.w3.org/2000/svg" xmlns:xlink="http://www.w3.org/1999/xlink">
    <!-- Generator: Sketch 52.2 (67145) - http://www.bohemiancoding.com/sketch -->
    <title>hsbc</title>
    <desc>Created with Sketch.</desc>
    <g id="Mad/Studio-Website" stroke="none" stroke-width="1" fill="none" fill-rule="evenodd">
        <g id="SVG" transform="translate(-489.000000, -515.000000)" fill="#FFFFFF" fill-rule="nonzero">
            <g id="hsbc" transform="translate(489.000000, 514.000000)">
                <path d="M82.2306403,1.17226497 L82.2306403,19.9414496 L72.8611993,10.5568668 L82.2306403,1.17226497 M100.967844,1.17226497 L100.967844,19.9414496 L110.337192,10.5568668 L100.967844,1.17226497 M82.2305471,1.17226497 L100.967844,1.17226497 L91.5994286,10.5568668 L82.2305471,1.17226497 M82.2305471,19.9414496 L91.5994286,10.5568668 L100.967844,19.9414496 L82.2305471,19.9414496 Z M14.5550755,10.1455643 L14.5550755,3.92278674 C14.5550755,3.11322491 14.1361816,2.21890571 12.1010211,2.21890571 L12.1010211,1.68907516 L19.8452432,1.68907516 L19.8452432,2.21890571 C17.8126006,2.21890571 17.3958515,3.11322491 17.3958515,3.92278674 L17.3958515,17.9318308 C17.3958515,18.7403565 17.8126006,19.63367 19.8452432,19.63367 L19.8452432,20.1639739 L12.1010211,20.1639739 L12.1010211,19.63367 C14.1361816,19.63367 14.5550755,18.7403565 14.5550755,17.9318308 L14.5550755,11.2894866 L6.11270311,11.2894866 L6.11270311,17.9318308 C6.11270311,18.7403565 6.52950815,19.63367 8.56418373,19.63367 L8.56418373,20.1639739 L0.819420746,20.1639739 L0.819420746,19.63367 C2.85306121,19.63367 3.27090137,18.7403565 3.27090137,17.9318308 L3.27090137,3.92278674 C3.27090137,3.11322491 2.85306121,2.21890571 0.819420746,2.21890571 L0.819420746,1.68907516 L8.56418373,1.68907516 L8.56418373,2.21890571 C6.52950815,2.21890571 6.11270311,3.11322491 6.11270311,3.92278674 L6.11270311,10.1455643 L14.5550755,10.1455643 Z M20.4990784,14.555225 L21.1395879,14.555225 C22.0043269,17.1508531 23.9538809,19.4968705 26.9072882,19.4968705 C29.1635989,19.4968705 30.6948371,17.5418085 30.0558654,15.364226 C28.9118616,11.4573338 21.3082795,11.2893741 21.3082795,5.95989105 C21.3082795,3.19635082 23.5080181,1.29800727 26.2387458,1.29800727 C29.1911087,1.29800727 30.5276339,3.3632554 31.197286,1.29800727 L31.7811451,1.29800727 L32.3941924,7.24416946 L31.6991754,7.24416946 C31.0575926,4.6480566 29.2181055,2.44345993 26.6280318,2.44345993 C24.9561676,2.44345993 23.7031787,3.3632554 23.7031787,5.12380927 C23.7031787,6.74086076 25.4580943,7.88475454 26.6555415,8.61007989 C30.444079,10.8999396 33.0066802,12.0995158 33.0066802,15.4479682 C33.0066802,17.9603294 30.9169665,20.5549119 27.1309936,20.5549119 C24.2331373,20.5549119 22.2264843,18.5198147 21.946715,20.5549119 L21.3347513,20.5549119 L20.4990784,14.555225 Z M34.416661,2.21890571 L34.416661,1.68907516 L41.881664,1.68907516 C46.172641,1.68907516 49.5164253,2.83349173 49.5164253,6.40659379 C49.5164253,8.74949342 47.9545255,9.95058094 45.8119371,10.4252975 L45.8119371,10.4814552 C48.2057499,10.9265341 50.4621073,12.4052256 50.4621073,15.0861167 C50.4621073,18.4357098 47.5663119,20.1639739 43.1922648,20.1639739 L34.416661,20.1639739 L34.416661,19.63367 C36.6724588,19.63367 37.0908119,18.7403565 37.0908119,17.9318308 L37.0908119,3.92278674 C37.0908119,3.11322491 36.6724588,2.21890571 34.416661,2.21890571 Z M42.2169656,9.85361678 C45.0301945,9.85361678 46.6740641,8.66874541 46.6740641,6.44055644 C46.6740641,4.34572764 45.3374642,3.21727056 43.3874347,2.86129491 C40.8238356,2.69458994 39.9315878,2.64124587 39.9315878,3.60351127 L39.9315878,9.85361678 L42.2169656,9.85361678 Z M39.9315878,17.6526584 C39.9315878,18.6306647 40.1833251,19.1318822 42.2169656,19.1318822 C45.1137495,19.1318822 47.260068,18.2671798 47.260068,15.0018992 C47.260068,11.6810123 43.9438866,11.0658731 41.3252401,11.0658731 L39.9315878,11.0658731 L39.9315878,17.6526584 Z M67.1833205,7.43617071 L66.5147874,7.43617071 C65.7081462,4.36585456 63.674571,2.2730504 60.4974303,2.2730504 C55.9017481,2.2730504 53.9236493,5.98395163 53.9236493,11.0071911 C53.9236493,14.9146536 55.9567675,19.1272381 60.5265253,19.1272381 C63.2567028,19.1272381 65.1232613,18.2344949 67.0453055,16.3372255 L67.5186594,16.8961405 C65.8197704,18.9889352 62.9494331,20.3855574 60.2753009,20.3855574 C54.8434068,20.3855574 50.69203,16.8961405 50.69203,10.7836251 C50.69203,5.23053795 54.6196921,1.12656166 60.2207477,1.12656166 C64.0363006,1.12656166 65.430531,3.41746698 66.3507548,1.15619889 L66.9336813,1.15619889 L67.1833205,7.43617071 Z"></path>
            </g>
        </g>
    </g>
</svg>