<?xml version="1.0" encoding="UTF-8"?>
<svg width="91px" height="52px" viewBox="0 0 91 52" version="1.1" xmlns="http://www.w3.org/2000/svg" xmlns:xlink="http://www.w3.org/1999/xlink">
    <!-- Generator: Sketch 52.2 (67145) - http://www.bohemiancoding.com/sketch -->
    <title>john-paul</title>
    <desc>Created with Sketch.</desc>
    <g id="Mad/Studio-Website" stroke="none" stroke-width="1" fill="none" fill-rule="evenodd">
        <g id="SVG" transform="translate(-275.000000, -407.000000)" fill="#FFFFFF">
            <g id="john-paul" transform="translate(275.000000, 407.000000)">
                <path d="M55.1764821,26.6466998 L69.5404544,26.6466998 L69.5404544,27.9697064 L22.4598297,27.9697064 L22.4598297,26.6466998 L33.7358854,26.6466998 C33.6313696,26.3815443 33.4836188,26.1189686 33.421022,25.8773188 C33.3982767,25.5505325 33.3753434,25.2225041 33.353068,24.8957178 C33.2368035,24.3597693 33.1588866,23.9089571 33.009162,23.3411898 C32.8921456,22.9458931 32.7527598,22.6686981 32.6404429,22.4454897 C32.4643074,22.0953889 32.3549041,21.8779136 32.5033129,21.5451076 C33.3858701,20.181396 34.254799,19.1761938 34.6752121,17.2713739 C34.7983378,16.7016956 34.8960864,16.1708112 34.7730547,15.5934888 C34.7488995,15.4669786 34.7112099,15.3410417 34.6715465,15.2196912 C34.2418285,16.3685074 33.4513805,17.1397994 32.9448735,17.5860251 C32.2621369,18.1843688 30.5459907,18.7081824 27.3423735,18.7081824 C27.2100369,18.7081824 27.0610642,18.2891889 27.2683101,18.2891889 L27.7394773,18.2891889 C31.7085413,18.2796337 33.9374919,17.0284819 34.0549783,13.0822033 C34.0549783,13.0401606 34.0586438,12.9982135 34.0586438,12.8945401 C34.0822351,11.2453205 34.3994482,10.0011439 34.9721235,9.12307303 C35.4056011,8.58970433 35.9332557,8.1414434 36.4638239,7.82930518 C37.6549473,7.20554473 38.8868619,6.85273023 39.5584138,6.66770423 C39.9648225,6.56786243 40.3760246,6.48649074 40.7878847,6.42865339 C41.352571,6.34853342 41.9228026,6.30146474 42.4923763,6.31166008 C42.6048812,6.31414442 42.7799828,6.3161319 42.9555544,6.32176944 C42.9555544,6.34787412 42.958656,6.39940506 42.958656,6.42352227 C42.9790517,7.16934026 43.1033992,7.92841124 43.3989008,8.61696519 C43.7118844,9.34372064 44.2586187,9.88476212 44.8677618,10.3559268 C45.1578121,10.5758864 45.364964,10.7112829 45.7472175,10.907068 C45.7304874,11.4946145 45.5424153,12.1971094 45.2580044,12.753506 C45.1009487,13.0643351 44.8955826,13.3847195 44.6129575,13.5894864 C44.3328701,13.7910046 44.2833379,13.8018975 44.0100177,13.617483 C43.9618013,13.5849955 43.8745794,13.5221226 43.7972264,13.4826598 C43.7260767,13.4299153 43.6667696,13.3847195 43.6389489,13.3650358 C43.3612112,13.1577845 43.0835675,12.9555975 42.7984987,12.7636344 C42.4038386,12.5047853 40.8033929,11.4779885 40.2813776,11.8499706 C40.2813776,16.2566165 39.4558717,17.060205 38.8336641,17.9707156 C38.6147636,18.2816403 38.3120248,18.6167395 37.9793035,18.9851863 C36.7278392,20.3708747 35.0501344,22.2283966 35.7971595,25.0464026 C35.9034611,25.3966946 36.0117365,25.7718299 36.1385278,26.1151466 C36.1736797,26.2072583 36.2232119,26.2766287 36.2807332,26.3307109 C36.7489867,26.3268888 36.9430741,26.3999857 37.1379135,26.6466998 L49.0119275,26.6466998 C48.990968,26.6117279 48.9673767,26.5696853 48.9495188,26.5099655 C48.758815,25.8706302 48.7556194,25.3497788 48.7527997,24.8781364 C48.750544,24.5083519 48.7484762,24.1688573 48.6563669,23.826305 C48.6409527,23.8240118 48.621591,23.8220052 48.5998795,23.8198075 C48.4701746,23.8065258 48.2574773,23.7847401 48.3093593,23.6425594 C48.3965811,23.3627845 48.6074926,22.8757583 48.7008237,22.5687512 C49.1145636,21.2068551 49.394181,19.1272714 49.62671,17.6038932 C49.6837613,17.2367842 49.6425001,16.9315926 49.6012389,16.6260188 C49.5713504,16.4049125 49.5414619,16.1837107 49.5487931,15.9387165 C48.8548718,16.0385679 47.358284,15.8948584 45.5350842,14.7186189 L45.5317946,14.7166124 C45.4427869,14.6607147 45.4378055,14.6576571 45.4787847,14.6067281 C45.7286077,14.5616278 45.9754229,14.4483992 46.2029704,14.3385149 C46.7472611,14.0752704 47.2506665,13.7020461 47.6773769,13.2665222 C48.0434642,12.8945401 48.3556959,12.4628382 48.5796718,11.9886159 C49.1059166,12.0921938 49.3916433,12.0406915 49.583381,11.9141813 C50.3007055,11.4411056 50.5617132,10.9407977 50.9396432,10.2185236 C51.3997196,9.32525053 51.5574333,8.18336186 51.5593131,7.14199341 C51.5574333,6.93028942 51.5444628,6.7204869 51.5197437,6.51699079 C51.5642945,6.45401277 51.602548,6.39750359 51.6266092,6.36949743 C51.8975797,6.03060479 52.0620606,5.62434831 52.2852846,5.25686664 C52.7144386,4.53971412 53.0212189,3.70747932 53.4473653,2.96680201 C53.7244451,2.56045953 54.0015248,2.15553122 54.2786046,1.75051691 C54.3192079,1.66582003 54.2907292,1.60024301 54.2594308,1.52818759 C54.2558592,1.52016126 54.2523816,1.51205849 54.248904,1.50384106 C54.3725936,1.1153973 54.4777674,0.801278299 54.6063444,0.48782243 C54.9903837,0.353010674 55.9045214,0.0720356398 56.0385498,0.268494382 C56.1070678,0.36898307 56.414506,0.360867877 56.7623595,0.351688241 C57.1185781,0.342285969 57.5170917,0.331767656 57.7442632,0.435703843 C58.0033911,0.553944095 58.2718238,0.950674086 58.6843418,1.07653648 C59.4932117,1.32321043 60.5143089,1.18209991 61.1389602,1.61189074 C61.2032487,1.65447806 61.0869842,2.00356605 61.0616072,2.06330488 C61.0177143,2.1605859 60.950888,2.26225274 60.8729711,2.33218691 C60.8030433,2.3939132 60.7468378,2.48804102 60.6713646,2.53568302 C60.6008728,2.57703773 60.5210761,2.56618307 60.4425952,2.5789392 C60.1128816,2.60818753 59.7937887,2.62343755 59.7072248,2.62343755 C59.5810915,2.68574671 59.5686849,2.74490267 59.64538,2.8249462 C59.9107111,2.86629135 60.3849799,2.92926937 60.393063,2.9318397 C60.3908072,2.97260199 60.3942848,3.01075572 60.3976684,3.04765772 C60.4064094,3.14190976 60.4143045,3.22796348 60.3232291,3.3284837 C60.2360072,3.42766619 60.1228444,3.47729566 59.9953952,3.49892853 C59.6960401,3.54980017 59.3998806,3.54598767 59.095638,3.55866735 C58.0485998,3.60125468 57.0603048,3.82448218 56.5049235,4.61221863 C55.6595859,5.72800262 53.7152341,13.087172 53.7152341,21.2781366 C53.7152341,23.265513 53.7405172,25.2740064 54.1171314,26.0376543 C54.1901609,26.1151466 54.1932625,26.1927344 54.318174,26.3307109 C54.7868974,26.3268888 54.979857,26.3999857 55.1764821,26.6466998 Z M44.3442428,8.17392136 C44.342363,8.55521023 44.4013881,8.87569009 44.496599,9.15350619 C44.2681116,8.92775612 44.0703586,8.67813728 43.9180024,8.35267918 C43.655115,7.778166 43.5501292,7.12969592 43.5844352,6.49936153 C43.5930822,6.34888696 43.6200571,6.2109201 43.6507915,6.07042111 C43.6834057,5.96375693 43.7257008,5.91365926 43.8553117,6.00961211 C43.8602931,6.01026186 43.861515,6.01083517 43.8651805,6.01336729 C44.0285335,6.13376223 44.1882209,6.25171105 44.3442428,6.35959829 L44.3442428,8.17392136 Z M50.2095362,10.2990736 C49.9993766,10.6329307 49.7008674,11.0802074 49.3201177,11.2211459 C49.1896608,11.2716927 48.9035581,11.2336632 48.5333352,11.1387805 C48.9357024,10.6971413 49.2663559,10.1393114 49.2601526,9.23599583 L49.2601526,6.89511689 C49.9005941,6.65305618 50.4697919,6.31115366 50.5760935,6.2431783 L50.5762815,6.24305408 C50.7208366,6.15198391 50.7998814,6.10218244 50.8493197,6.26366455 C50.9284585,6.52946982 50.9383273,6.86827647 50.932782,7.1378178 C50.932782,7.38922346 50.9203754,7.63811611 50.898194,7.8870852 C50.8197131,8.71187653 50.6459274,9.58465385 50.2095362,10.2990736 Z M48.1046511,11.1193836 C48.5382227,10.6642716 48.8609811,10.2257856 48.8659625,9.30232771 L48.8659625,7.07603418 C47.2518884,7.69559036 46.0464787,7.43419001 44.745952,6.6241805 L44.745952,8.20990607 C44.7502755,9.06709893 45.0292351,9.50682712 45.4138383,9.93005355 C46.0539038,10.3284079 47.2030141,10.8312001 48.1046511,11.1193836 Z M46.1658448,11.1595152 C46.8634316,11.501112 47.478214,11.7305312 48.1201593,11.8847514 C48.0341593,12.0696436 47.9389484,12.2448851 47.8245637,12.4169735 C47.0700195,12.4003475 46.5883256,12.2792837 46.0409333,11.9899536 C46.1096393,11.7183962 46.1504306,11.4373791 46.1658448,11.1595152 Z M45.7472175,12.6792624 C45.5474907,13.156829 45.2555607,13.6792093 44.7997138,13.9442693 C44.7162515,13.9917584 44.6209466,14.0081932 44.5375783,14.0469872 C44.5968854,14.1070891 44.6673772,14.1775106 44.7416285,14.2230887 C44.7948263,14.2548118 44.8139061,14.2840505 44.8720853,14.3062185 C45.0014143,14.3575297 45.1312132,14.3626895 45.2585684,14.3435792 C45.4404372,14.3126205 45.62287,14.2389502 45.794212,14.153336 C46.5128524,13.7932978 46.9624021,13.5174405 47.4721047,12.8696011 C46.8164371,12.7940198 46.4169835,12.6476349 45.8572787,12.3965254 C45.8059607,12.5651739 45.8133858,12.5215068 45.7472175,12.6792624 Z M50.9947208,26.7111971 C50.9728213,26.6653323 50.9419929,26.6252007 50.9134202,26.5990196 C50.811912,26.5116855 50.5482727,26.4843577 50.519794,26.3223979 C50.5002443,26.2204444 50.4818225,26.1216441 50.4616148,26.0210283 C50.2401766,25.9788901 50.0193963,25.9368474 49.7979581,25.8941359 C49.4321526,25.614361 49.6346051,23.8425488 49.7344214,23.3466363 C50.2158334,20.9777225 50.9626705,18.6806635 51.5735994,16.4079702 C51.5896715,16.3977461 51.6086573,16.3876177 51.6251994,16.379878 C51.688736,16.4838381 51.6549939,16.6998801 51.7078158,16.8712996 C52.1679862,18.370981 52.4036168,20.6762574 52.427396,22.5066427 C52.4392387,23.1286832 52.3878266,23.7561702 52.3571862,24.1297767 C52.3509829,24.2056446 52.3457195,24.2710019 52.341866,24.3237463 C52.341866,24.5130339 52.4006091,24.5283222 52.6368976,24.4505432 C52.8880364,24.7010794 53.183726,25.7762253 53.2484845,26.7111971 L50.9947208,26.7111971 Z M35.1060579,26.0483561 C35.0818088,25.985292 35.0432732,25.9030222 34.9435509,25.881332 C34.8792623,25.867477 34.8120602,25.8697702 34.744294,25.872159 C34.6785017,25.8744523 34.6122394,25.8767455 34.5477629,25.8641327 C34.4187159,25.8393848 34.3939028,25.7717344 34.3639203,25.6398732 C34.2503815,25.1624977 34.194552,24.6653431 34.1294176,24.1662774 L34.1283837,24.1583466 C34.0628733,23.6392151 33.9838285,23.0126837 34.1328952,22.5014829 C34.6197585,23.2083732 35.2016448,26.1567115 35.2414962,26.1567115 C35.1475071,26.1567115 35.1417738,26.1343524 35.1060579,26.0483561 Z M50.5883121,26.5397776 L50.5883121,26.9793147 C50.6538224,26.848218 50.6964935,26.8007289 50.7163252,26.7785609 C50.7249722,26.7689102 50.7292957,26.7641326 50.7292957,26.7593551 C50.7292957,26.7434935 50.6823011,26.7277275 50.5883121,26.5397776 Z M3.87327669,41.6491514 C3.87021265,43.9034033 3.4410304,45.5280662 2.77496752,46.8823181 C2.10584059,48.2360923 1.17509512,49.3316863 0.102087795,50.4375043 L1.42365859,51.7987315 C2.54614175,50.6419846 3.63648065,49.3871062 4.44044429,47.7554681 C5.24562038,46.1348184 5.74347104,44.1545128 5.74161945,41.6491514 L5.7416246,31.1241494 L3.87391582,31.1241494 C3.87391582,31.1343734 3.87327669,40.2221847 3.87327669,41.6491514 Z M87.1882165,41.6491514 C87.191882,43.9034033 87.6185924,45.5280662 88.2864787,46.8823181 C88.9544589,48.2360923 89.8864544,49.3316863 90.9582117,50.4375043 L89.6378534,51.7987315 C88.515342,50.6445644 87.4275126,49.3871062 86.6197706,47.7554681 C85.8140024,46.1348184 85.3180221,44.1545128 85.319244,41.6491514 C85.319244,40.218936 85.3180221,31.1343734 85.3180221,31.1241494 L87.1882165,31.1241494 L87.1882165,41.6491514 Z M19.9780486,40.7236392 C19.9780486,37.459312 17.5019068,35.0679436 14.1159508,35.0679436 C10.7077195,35.0679436 8.25306356,37.459312 8.25306356,40.7236392 C8.25306356,44.0079367 10.7077195,46.3762772 14.1159508,46.3762772 C17.5019068,46.3762772 19.9780486,44.0079367 19.9780486,40.7236392 Z M65.2713772,35.2005691 L60.9911154,46.2857899 L62.6726737,46.2857899 L63.8340965,43.3438535 L68.3697266,43.3438535 L69.5496653,46.2857899 L71.2120498,46.2857899 L66.9300022,35.2005691 L65.2713772,35.2005691 Z M32.5596123,35.2731883 L32.5596123,46.1723702 L30.9008933,46.1723702 L30.9008933,41.2936042 L24.2174252,41.2936042 L24.2174252,46.1723702 L22.5371827,46.1723702 L22.5371827,35.2731883 L24.2174252,35.2731883 L24.2174252,39.8582289 L30.9008933,39.8582289 L30.9008933,35.2731883 L32.5596123,35.2731883 Z M36.9987157,37.4395328 C37.0655419,37.7326849 37.1978785,37.962773 37.554097,38.4458816 L43.5276658,46.3099644 L45.055834,46.3099644 L45.055834,35.2731883 L43.5276658,35.2731883 L43.5276658,44.0282892 C43.4824571,43.6879346 43.3074494,43.2570927 43.1070648,43.0251891 L37.1323681,35.2731883 L35.44893,35.2731883 L35.44893,46.1723702 L36.9987157,46.1723702 L36.9987157,37.4395328 Z M57.0838021,35.2731883 L53.4084539,35.2731883 L53.4084539,46.1723702 L55.0917979,46.1723702 L55.0917979,41.8390123 C55.4672842,41.9519543 56.4623464,42.067285 57.3040185,42.067285 C59.4511986,42.067285 60.9552115,40.6536955 60.9552115,38.623703 C60.9552115,36.4357639 59.6071264,35.2731883 57.0838021,35.2731883 Z M77.7174087,45.0347336 C79.6215331,45.0347336 80.619133,44.0079367 80.619133,42.0239046 L80.619133,35.2731883 L82.2753142,35.2731883 L82.2753142,41.7275992 C82.2753142,43.8944215 81.8554651,44.9849512 80.7261865,45.6688136 C79.931979,46.1513489 78.73719,46.4910346 77.7174087,46.4910346 C76.7019509,46.4910346 75.507068,46.1513489 74.6876713,45.6688136 C73.5812321,44.9849512 73.161383,43.8944215 73.161383,41.7275992 L73.161383,35.2731883 L74.8218877,35.2731883 L74.8218877,42.0239046 C74.8218877,44.0079367 75.815728,45.0347336 77.7174087,45.0347336 Z M14.1159508,36.5261557 C11.7930112,36.5261557 10.0199075,38.3293088 10.0199075,40.7236392 C10.0199075,43.1175875 11.7930112,44.9422397 14.1159508,44.9422397 C16.4381386,44.9422397 18.1853012,43.1175875 18.1853012,40.7236392 C18.1853012,38.3293088 16.4381386,36.5261557 14.1159508,36.5261557 Z M55.0917979,40.4024905 C55.3571291,40.4739631 56.1518066,40.6313364 57.1289169,40.6313364 C58.4134654,40.6313364 59.2712095,39.8104532 59.2712095,38.5574858 C59.2712095,37.2547361 58.5871571,36.708468 56.9051289,36.708468 L55.0917979,36.708468 L55.0917979,40.4024905 Z M66.1111695,37.0463382 L64.2984964,41.926442 L67.9058906,41.926442 L66.1111695,37.0463382 Z"></path>
            </g>
        </g>
    </g>
</svg>