<?xml version="1.0" encoding="UTF-8"?>
<svg width="140px" height="17px" viewBox="0 0 140 17" version="1.1" xmlns="http://www.w3.org/2000/svg" xmlns:xlink="http://www.w3.org/1999/xlink">
    <!-- Generator: Sketch 52.2 (67145) - http://www.bohemiancoding.com/sketch -->
    <title>lemedecin</title>
    <desc>Created with Sketch.</desc>
    <g id="Mad/Studio-Website" stroke="none" stroke-width="1" fill="none" fill-rule="evenodd">
        <g id="SVG" transform="translate(-470.000000, -342.000000)" fill="#FFFFFF" fill-rule="nonzero">
            <g id="lemedecin" transform="translate(470.000000, 342.000000)">
                <path d="M21.2206178,15.1363637 L21.2206178,6.13636364 C21.2206178,5.18181818 21.9680266,4.40909091 22.8912963,4.40909091 C23.8145661,4.40909091 24.561975,5.18181818 24.561975,6.13636364 L24.561975,6.27272727 C25.3313664,5.25 26.3425665,4.31818182 28.0352277,4.31818182 C29.5740105,4.31818182 30.739089,5.02272727 31.3546021,6.25 C32.3877849,5 33.6188112,4.31818182 35.223542,4.31818182 C37.7075771,4.31818182 39.2023948,5.86363636 39.2023948,8.79545452 L39.2023948,15.1363637 C39.2023948,16.0909091 38.4549859,16.8636364 37.5317162,16.8636364 C36.6084465,16.8636364 35.8610377,16.0909091 35.8610377,15.1363637 L35.8610377,9.93181817 C35.8610377,8.29545457 35.157594,7.45454547 33.9045851,7.45454547 C32.6515762,7.45454547 31.8821848,8.29545457 31.8821848,9.93181817 L31.8821848,15.1363637 C31.8821848,16.0909091 31.134776,16.8636364 30.2115063,16.8636364 C29.2882366,16.8636364 28.5408278,16.0909091 28.5408278,15.1363637 L28.5408278,9.93181817 C28.5408278,8.29545457 27.8373842,7.45454547 26.5843753,7.45454547 C25.3313664,7.45454547 24.561975,8.29545457 24.561975,9.93181817 L24.561975,15.1363637 C24.561975,16.0909091 23.8145661,16.8636364 22.8912963,16.8636364 C21.9680266,16.8636364 21.2206178,16.0909091 21.2206178,15.1363637 Z M45.2964634,9.68181816 L50.3304817,9.68181816 C50.1326381,8.13636363 49.2533337,7.09090909 47.8464464,7.09090909 C46.4615418,7.09090909 45.5602547,8.11363636 45.2964634,9.68181816 Z M52.2649515,15.5227273 C51.2317688,16.4318182 49.8908294,17 48.1761856,17 C44.636985,17 42.0210542,14.4318182 42.0210542,10.7045455 L42.0210542,10.6590909 C42.0210542,7.18181818 44.4171589,4.31818182 47.8464464,4.31818182 C51.7813341,4.31818182 53.5179604,7.65909087 53.5179604,10.1818182 C53.5179604,11.1818182 52.8364995,11.8409091 51.957195,11.8409091 L45.3404286,11.8409091 C45.6701678,13.4090909 46.7253332,14.2272728 48.2201508,14.2272728 C49.1434206,14.2272728 49.912812,13.9318182 50.594273,13.4090909 C50.8360817,13.2272727 51.0559079,13.1363636 51.4076297,13.1363636 C52.1550385,13.1363636 52.7046038,13.7272727 52.7046038,14.5 C52.7046038,14.9545454 52.5067603,15.2954545 52.2649515,15.5227273 Z M68.405074,1.72727273 L68.405074,15.1363637 C68.405074,16.0909091 67.6576652,16.8636364 66.7343955,16.8636364 C65.8111258,16.8636364 65.063717,16.0909091 65.063717,15.1363637 L65.063717,14.9772727 C64.2503603,16.1136364 63.1292471,16.9545455 61.3926207,16.9545455 C58.6447941,16.9545455 56.0288633,14.7272727 56.0288633,10.6590909 L56.0288633,10.6136363 C56.0288633,6.54545454 58.6008289,4.31818182 61.3926207,4.31818182 C63.1732123,4.31818182 64.2723429,5.15909091 65.063717,6.13636364 L65.063717,1.72727273 C65.063717,0.772727275 65.8111258,0 66.7343955,0 C67.6576652,0 68.405074,0.772727275 68.405074,1.72727273 Z M62.2499426,7.25 C60.6891771,7.25 59.3702203,8.56818185 59.3702203,10.6136363 L59.3702203,10.6590909 C59.3702203,12.6818181 60.6891771,14.0227273 62.2499426,14.0227273 C63.8107081,14.0227273 65.1076822,12.6818181 65.1076822,10.6590909 L65.1076822,10.6136363 C65.1076822,8.59090912 63.8107081,7.25 62.2499426,7.25 Z M74.587073,9.68181816 L79.6210913,9.68181816 C79.4232477,8.13636363 78.5439432,7.09090909 77.1370563,7.09090909 C75.7521512,7.09090909 74.8508642,8.11363636 74.587073,9.68181816 Z M81.5555613,15.5227273 C80.5223783,16.4318182 79.181439,17 77.4667951,17 C73.9275946,17 71.3116639,14.4318182 71.3116639,10.7045455 L71.3116639,10.6590909 C71.3116639,7.18181818 73.7077685,4.31818182 77.1370563,4.31818182 C81.071944,4.31818182 82.8085704,7.65909087 82.8085704,10.1818182 C82.8085704,11.1818182 82.1271095,11.8409091 81.247805,11.8409091 L74.6310381,11.8409091 C74.9607776,13.4090909 76.0159432,14.2272728 77.5107602,14.2272728 C78.4340305,14.2272728 79.2034216,13.9318182 79.8848825,13.4090909 C80.1266911,13.2272727 80.3465173,13.1363636 80.6982394,13.1363636 C81.4456479,13.1363636 81.9952136,13.7272727 81.9952136,14.5 C81.9952136,14.9545454 81.79737,15.2954545 81.5555613,15.5227273 Z M91.4086563,17 C87.8694558,17 85.2755074,14.1818181 85.2755074,10.7045455 L85.2755074,10.6590909 C85.2755074,7.18181818 87.8474733,4.31818182 91.4526221,4.31818182 C93.2332137,4.31818182 94.486222,4.81818182 95.47544,5.68181818 C95.6952661,5.86363636 96.0030224,6.27272727 96.0030224,6.86363636 C96.0030224,7.72727275 95.3215615,8.40909091 94.486222,8.40909091 C94.0465698,8.40909091 93.716831,8.2272727 93.5189874,8.06818183 C92.9254566,7.59090907 92.3099434,7.29545455 91.4306389,7.29545455 C89.7599608,7.29545455 88.5728993,8.81818179 88.5728993,10.6136363 L88.5728993,10.6590909 C88.5728993,12.5227273 89.7379782,14.0227273 91.5625348,14.0227273 C92.4418393,14.0227273 93.1233002,13.7045455 93.7607961,13.1818182 C93.9366571,13.0454546 94.2663959,12.8636364 94.6620831,12.8636364 C95.4534574,12.8636364 96.0689707,13.5227273 96.0689707,14.3409091 C96.0689707,14.7954546 95.8711271,15.1590909 95.5853526,15.4318182 C94.5961355,16.3636364 93.3431264,17 91.4086563,17 Z M98.8436647,1.68181818 L98.8436647,1.63636364 C98.8436647,0.636363635 99.6570216,0.0227272722 100.712186,0.0227272722 C101.767352,0.0227272722 102.580709,0.636363635 102.580709,1.63636364 L102.580709,1.68181818 C102.580709,2.68181818 101.767352,3.31818182 100.712186,3.31818182 C99.6570216,3.31818182 98.8436647,2.68181818 98.8436647,1.68181818 Z M99.0415083,15.1363637 L99.0415083,6.13636364 C99.0415083,5.18181818 99.7889168,4.40909091 100.712186,4.40909091 C101.635457,4.40909091 102.382865,5.18181818 102.382865,6.13636364 L102.382865,15.1363637 C102.382865,16.0909091 101.635457,16.8636364 100.712186,16.8636364 C99.7889168,16.8636364 99.0415083,16.0909091 99.0415083,15.1363637 Z M106.014881,15.1363637 L106.014881,6.13636364 C106.014881,5.18181818 106.76229,4.40909091 107.68556,4.40909091 C108.60883,4.40909091 109.356238,5.18181818 109.356238,6.13636364 L109.356238,6.27272727 C110.12563,5.25 111.114847,4.31818182 112.807508,4.31818182 C115.335509,4.31818182 116.808344,6.04545455 116.808344,8.84090905 L116.808344,15.1363637 C116.808344,16.0909091 116.060935,16.8636364 115.137666,16.8636364 C114.214395,16.8636364 113.466987,16.0909091 113.466987,15.1363637 L113.466987,9.93181817 C113.466987,8.29545457 112.719578,7.45454547 111.444587,7.45454547 C110.169595,7.45454547 109.356238,8.29545457 109.356238,9.93181817 L109.356238,15.1363637 C109.356238,16.0909091 108.60883,16.8636364 107.68556,16.8636364 C106.76229,16.8636364 106.014881,16.0909091 106.014881,15.1363637 Z M126.128972,15.9545454 L126.128972,6.52272728 L125.205702,6.52272728 C124.788032,6.52272728 124.480275,6.18181818 124.480275,5.75 C124.480275,5.34090909 124.810015,5 125.205702,5 L126.128972,5 L126.128972,3.97727273 C126.128972,2.63636364 126.480693,1.61363636 127.118189,0.954545455 C127.689737,0.363636363 128.525077,0.0454545452 129.558259,0.0454545452 C130.107825,0.0454545452 130.525494,0.0909090904 130.899199,0.181818182 C131.228938,0.25 131.514711,0.545454545 131.514711,0.931818181 C131.514711,1.38636363 131.141007,1.72727273 130.701355,1.68181818 C130.415581,1.63636364 130.107825,1.56818182 129.778085,1.56818182 C128.459128,1.56818182 127.79965,2.38636364 127.79965,4.06818182 L127.79965,5.02272727 L130.74532,5.02272727 C131.16299,5.02272727 131.492729,5.34090909 131.492729,5.77272727 C131.492729,6.18181818 131.16299,6.52272728 130.74532,6.52272728 L127.821632,6.52272728 L127.821632,15.9545454 C127.821632,16.4318182 127.469911,16.8409091 126.986294,16.8409091 C126.502676,16.8409091 126.128972,16.4318182 126.128972,15.9545454 Z M133.559095,15.9545454 L133.559095,5.75 C133.559095,5.27272727 133.932799,4.86363637 134.394434,4.86363637 C134.878052,4.86363637 135.251755,5.25 135.251755,5.75 L135.251755,7.95454542 C136.087095,6 137.735791,4.81818182 139.164661,4.81818182 C139.67026,4.81818182 140,5.20454545 140,5.70454545 C140,6.18181818 139.692244,6.52272728 139.252591,6.59090909 C137.05433,6.86363636 135.251755,8.56818185 135.251755,11.9545455 L135.251755,15.9545454 C135.251755,16.4318182 134.900034,16.8409091 134.416417,16.8409091 C133.932799,16.8409091 133.559095,16.4545454 133.559095,15.9545454 Z M119.863927,15.2954545 C119.863927,14.6818182 120.303579,14.2272728 120.919092,14.2272728 C121.512623,14.2272728 121.952275,14.6818182 121.952275,15.2954545 L121.952275,15.75 C121.952275,16.3636364 121.512623,16.8409091 120.919092,16.8409091 C120.303579,16.8409091 119.863927,16.3636364 119.863927,15.75 L119.863927,15.2954545 Z M0,15.1363637 L0,1.72727273 C0,0.772727275 0.747408821,0 1.67067854,0 C2.59394826,0 3.34135708,0.772727275 3.34135708,1.72727273 L3.34135708,15.1363637 C3.34135708,16.0909091 2.59394826,16.8636364 1.67067854,16.8636364 C0.747408821,16.8636364 0,16.0909091 0,15.1363637 Z M16.6457226,15.5227273 C15.6125398,16.4318182 14.2716004,17 12.5569567,17 C9.0177561,17 6.40182522,14.4318182 6.40182522,10.7045455 L6.40182522,10.6590909 C6.40182522,7.18181818 8.79792998,4.31818182 12.2272175,4.31818182 C16.1621051,4.31818182 17.8987315,7.65909087 17.8987315,10.1818182 C17.8987315,11.1818182 17.2172705,11.8409091 16.337966,11.8409091 L9.72119969,11.8409091 C10.0509389,13.4090909 11.1061043,14.2272728 12.6009219,14.2272728 C13.5241916,14.2272728 14.293583,13.9318182 14.9750441,13.4090909 C15.2168528,13.2272727 15.4366789,13.1363636 15.7884007,13.1363636 C16.5358096,13.1363636 17.0853749,13.7272727 17.0853749,14.5 C17.0853749,14.9545454 16.8875313,15.2954545 16.6457226,15.5227273 Z M9.67723447,9.68181816 L14.7112527,9.68181816 C14.5134092,8.13636363 13.6341047,7.09090909 12.2272175,7.09090909 C10.8423129,7.09090909 9.94102581,8.11363636 9.67723447,9.68181816 Z"></path>
            </g>
        </g>
    </g>
</svg>