<?xml version="1.0" encoding="UTF-8"?>
<svg width="101px" height="19px" viewBox="0 0 101 19" version="1.1" xmlns="http://www.w3.org/2000/svg" xmlns:xlink="http://www.w3.org/1999/xlink">
    <!-- Generator: Sketch 52.2 (67145) - http://www.bohemiancoding.com/sketch -->
    <title>loreal</title>
    <desc>Created with Sketch.</desc>
    <g id="Mad/Studio-Website" stroke="none" stroke-width="1" fill="none" fill-rule="evenodd">
        <g id="SVG" transform="translate(-266.000000, -514.000000)" fill="#FFFFFF">
            <g id="loreal" transform="translate(266.000000, 514.000000)">
                <path d="M2.08214362,15.7983904 L13.1620074,15.7983904 L13.1620074,17.3658411 L0.0539642702,17.3658411 L0.0539642702,3.00726249 L2.08214362,3.00726249 L2.08214362,15.7983904 Z M54.7190605,17.3658411 L54.7190605,3.00726249 L67.6857661,3.00726249 L67.6857661,4.56989471 L56.9418638,4.56989471 L56.9418638,9.19289903 L65.0122176,9.19289903 L65.0122176,10.7798789 L56.9418638,10.7798789 L56.9418638,15.7983904 L67.6857661,15.7983904 L67.6857661,17.3658411 L54.7190605,17.3658411 Z M61.4571554,0.686036045 L65.2130424,0.686036045 L59.7021313,2.63882697 L61.4571554,0.686036045 Z M89.453581,15.7983904 L100.53481,15.7983904 L100.53481,17.3658411 L87.426767,17.3658411 L87.426767,3.00726249 L89.453581,3.00726249 L89.453581,15.7983904 Z M68.713521,17.3658411 L76.0873473,3.00726249 L78.9260753,3.00726249 L86.3053818,17.3658411 L83.8388019,17.3658411 L81.9370071,13.649512 L73.0928845,13.649512 L71.2067489,17.3658411 L68.713521,17.3658411 Z M77.5009297,4.99116008 L74.0263901,11.8495849 L81.016477,11.8495849 L77.5009297,4.99116008 Z M51.3114865,7.16166931 C51.3278708,8.03664149 51.0055534,10.4837123 47.6832271,11.362064 C48.9787112,13.3127913 52.128909,17.3658411 52.128909,17.3658411 L49.5031949,17.3658411 L45.1251685,11.3431312 L39.1751601,11.3431312 L39.1751601,17.3658411 L37.0916698,17.3658411 L37.0916698,3.00726249 L46.2314525,3.00726249 C49.3672246,3.00726249 51.1134633,4.59626817 51.3114865,7.16166931 Z M39.1751601,9.64660584 L45.8769787,9.64660584 C46.9704189,9.64660584 48.0719288,9.44173347 48.6511207,8.48223558 C49.0051708,7.90208573 49.1431184,7.04942591 48.928146,6.40030369 C48.6051696,5.4523075 47.7070501,4.70648575 46.1101244,4.70648575 L39.1751601,4.70648575 L39.1751601,9.64660584 Z M14.6792806,9.65195932 C14.6792806,4.68208626 18.6885205,0.575683682 24.5702708,0.575683682 C30.3966536,0.575683682 34.4543871,4.68208626 34.4543871,9.65195932 C34.4543871,14.9369129 30.0285734,18.5774159 24.5702708,18.5774159 C19.1078156,18.5774159 14.6792806,14.8841849 14.6792806,9.65195932 Z M17.0769055,9.65669253 C17.0769055,13.5568974 20.4298817,16.7950774 24.4991783,16.7950774 C28.5665163,16.7950774 32.0772613,13.5568974 32.0772613,9.65669253 C32.0772613,5.7612587 28.9339374,2.3682175 24.6569942,2.3682175 C20.2721411,2.3682175 17.0769055,5.7612587 17.0769055,9.65669253 Z M9.43201912,8.08668102 L11.4683906,3.00726249 L13.6638774,3.00726249 L10.9350556,8.08668102 L9.43201912,8.08668102 Z"></path>
            </g>
        </g>
    </g>
</svg>