<?xml version="1.0" encoding="UTF-8"?>
<svg width="118px" height="45px" viewBox="0 0 118 45" version="1.1" xmlns="http://www.w3.org/2000/svg" xmlns:xlink="http://www.w3.org/1999/xlink">
    <!-- Generator: Sketch 52.2 (67145) - http://www.bohemiancoding.com/sketch -->
    <title>pernod-ricard</title>
    <desc>Created with Sketch.</desc>
    <g id="Mad/Studio-Website" stroke="none" stroke-width="1" fill="none" fill-rule="evenodd">
        <g id="SVG" transform="translate(-482.000000, -243.000000)" fill="#FFFFFF">
            <g id="pernod-ricard" transform="translate(481.000000, 242.000000)">
                <path d="M49.8631941,14.5284273 C46.8582295,13.3796369 44.751043,13.6093949 44.751043,13.6093949 C44.9846152,12.193168 45.3749518,10.8529187 45.960461,9.62753919 C45.960461,9.62753919 48.848315,10.0870553 51.3855081,11.771951 C53.7268968,13.3413469 54.5075454,14.7964753 54.5075454,14.7964753 C54.2343411,15.4857495 54.0391695,16.2516129 54.0001389,16.9785563 C54.0001389,16.9785563 52.3613472,15.4474596 49.8631941,14.5284273 Z M51.6586517,9.58925245 C49.9411661,7.94327668 47.5997774,6.94765525 47.5997774,6.94765525 C48.419484,5.83715477 49.434364,4.84153982 50.565702,3.99971085 C50.565702,3.99971085 52.8680602,5.64569588 54.2732731,7.63692949 C55.7175165,9.66584156 56.5762639,12.3463494 56.5762639,12.3463494 C55.9126881,12.8052541 55.3271827,13.4179392 54.897809,14.1072135 C54.897809,14.1072135 54.0390709,11.8485433 51.6586517,9.58925245 Z M55.8346417,6.79447131 C55.0930614,4.95640667 53.6489502,2.19992117 53.6489502,2.19992117 C54.8979181,1.62552875 56.2249376,1.24259892 57.629395,1.01284084 C57.629395,1.01284084 58.4099964,2.96578452 59.0735062,6.06689788 C59.6589643,8.70850434 59.6199338,11.3123953 59.6199338,11.3123953 C58.8003018,11.3890122 57.8635783,11.6570324 57.1616612,12.0011137 C57.1616612,12.0011137 56.8884474,9.47435843 55.8346417,6.79447131 Z M69.9624032,14.5284273 C67.503904,15.4474596 65.8254584,16.9785563 65.8254584,16.9785563 C65.8254584,16.2516129 65.6302896,15.4857495 65.3570541,14.7964753 C65.3570541,14.7964753 66.1377282,13.3413469 68.4797525,11.771951 C71.0163128,10.0870553 73.8651364,9.62753919 73.8651364,9.62753919 C74.4506417,10.8529187 74.8800155,12.193168 75.0752154,13.6093949 C75.0752154,13.6093949 72.9673678,13.3796369 69.9624032,14.5284273 Z M68.2063355,9.58925245 C65.8252836,11.8485433 64.9665455,14.1072135 64.9665455,14.1072135 C64.5378045,13.4179392 63.9522982,12.8052541 63.2496927,12.3463494 C63.2496927,12.3463494 64.147466,9.66584156 65.5520509,7.63692949 C66.9962943,5.64569588 69.2992757,3.99971085 69.2992757,3.99971085 C70.4306232,4.84153982 71.4064623,5.83715477 72.2652003,6.94765525 C72.2652003,6.94765525 69.9231883,7.94327668 68.2063355,9.58925245 Z M64.0301862,6.79447131 C62.9373594,9.47435843 62.6641456,12.0011137 62.6641456,12.0011137 C61.9616147,11.6570324 61.064561,11.3890122 60.2449373,11.3123953 C60.2449373,11.3123953 60.2059077,8.70850434 60.7523233,6.06689788 C61.4548598,2.96578452 62.234819,1.01284084 62.234819,1.01284084 C63.6398902,1.24259892 64.9662676,1.62552875 66.2152167,2.19992117 C66.2152167,2.19992117 64.7717477,4.95640667 64.0301862,6.79447131 Z M51.9318493,23.5727494 C49.7459595,24.5833607 48.497511,25.7069333 48.497511,25.7069333 C47.5607024,24.6957199 46.7409978,23.5727494 46.116459,22.3368177 C46.116459,22.3368177 47.4826413,21.3256061 50.565667,20.7263674 C52.5947925,20.3518432 55.2490772,20.6514625 55.2490772,20.6514625 C55.9126247,21.4754195 56.8104311,22.1121088 57.8636797,22.5240798 C57.8636797,22.5240798 54.8977739,22.2244679 51.9318493,23.5727494 Z M49.6288744,19.1592191 C47.2484551,19.2700774 45.2974002,20.1932509 45.2974002,20.1932509 C44.8680293,18.9375211 44.6338274,17.6072867 44.5947937,16.2407079 C44.5947937,16.2407079 46.3897171,15.6864461 49.4343355,16.0929049 C51.6586326,16.3515606 54.0390896,17.6442425 54.0390896,17.6442425 C54.117094,18.4202041 54.3512962,19.1222726 54.741696,19.7504386 C54.741696,19.7504386 52.6735022,19.0114235 49.6288744,19.1592191 Z M59.9324271,25.8994465 C55.6003485,25.8994465 53.7267314,29.5749643 53.7267314,29.5749643 C52.3611818,29.0005691 51.1511405,28.2347058 50.0191603,27.3162942 C50.0191603,27.3162942 53.6876914,22.7983331 59.9324271,22.7983331 C66.1765584,22.7983331 69.8451273,27.3162942 69.8451273,27.3162942 C68.7131188,28.2347058 67.4646702,29.0005691 66.1375562,29.5749643 C66.1375562,29.5749643 64.2255035,25.8994465 59.9324271,25.8994465 Z M67.8941295,23.5727494 C64.9666028,22.2244679 61.9616382,22.5240798 61.9616382,22.5240798 C63.0155478,22.1121088 63.9523564,21.4754195 64.6159323,20.6514625 C64.6159323,20.6514625 67.2695936,20.3518432 69.2993424,20.7263674 C72.3824059,21.3256061 73.7479554,22.3368177 73.7479554,22.3368177 C73.1233534,23.5727494 72.304307,24.6957199 71.3674984,25.7069333 C71.3674984,25.7069333 70.0793866,24.5833607 67.8941295,23.5727494 Z M70.196529,19.1592191 C67.1915644,19.0114235 65.1227757,19.7504386 65.1227757,19.7504386 C65.4740789,19.1222726 65.7473144,18.4202041 65.8253821,17.6442425 C65.8253821,17.6442425 68.2064341,16.3515606 70.4307312,16.0929049 C73.4747263,15.6864461 75.2702446,16.2407079 75.2702446,16.2407079 C75.2312424,17.6072867 74.958038,18.9375211 74.5676381,20.1932509 C74.5676381,20.1932509 72.6166115,19.2700774 70.196529,19.1592191 Z M6.11335754,40.9844855 L3.81100882,40.9844855 L3.81100882,44.5833772 L5.33269003,44.5833772 L5.33269003,45.6939055 L1.0005831,45.6939055 L1.0005831,44.5833772 L2.56192758,44.5833772 L2.56192758,34.8588387 L1.0005831,34.8588387 L1.0005831,33.7483382 L5.99625647,33.7483382 C7.01113557,33.7483382 7.98697469,33.9015099 8.84508945,34.5141988 C9.7038275,35.1651766 10.2503023,36.2367664 10.2503023,37.3472669 C10.2503023,38.3811783 9.82092857,39.3002106 9.04088433,40.027154 C8.18214629,40.8313073 7.24533772,40.9844855 6.11335754,40.9844855 Z M3.81100882,34.8588387 L3.81100882,39.8739851 L5.99625647,39.8739851 C6.77693343,39.8739851 7.44050932,39.8363066 8.06504522,39.3385005 C8.68958112,38.8023952 9.00122107,38.1514202 9.00122107,37.3472669 C9.00122107,36.6196935 8.61151059,35.89275 8.02601467,35.4332339 C7.40146933,34.9354185 6.77693343,34.8588387 5.99625647,34.8588387 L3.81100882,34.8588387 Z M15.0119114,44.9665067 C16.3390537,44.9665067 17.4704012,44.3538215 18.1339676,43.2439418 L19.3440183,43.2439418 C18.5633413,44.8899175 16.9245591,45.9238289 15.0509419,45.9238289 C12.4753511,45.9238289 10.3675318,43.8949168 10.3675318,41.4058771 C10.3675318,38.9174489 12.3972805,36.7730371 15.0119114,36.7730371 C17.6655633,36.7730371 19.6953215,38.8025699 19.6953215,41.3675779 L19.6953215,41.7122151 L11.499512,41.7122151 C11.616613,43.5119898 13.1779575,44.9665067 15.0119114,44.9665067 Z M14.9728714,37.7686585 C13.2553953,37.7686585 11.7337141,39.147207 11.499512,40.7931827 L18.6414119,40.8314819 C18.4072097,39.0323279 16.807458,37.7686585 14.9728714,37.7686585 Z M22.9343228,38.6875162 C23.3636871,37.4621432 24.5346979,36.9643337 25.8221864,36.9260407 L25.8221864,37.959952 C23.8320914,38.113121 22.9343228,39.2619114 22.9343228,41.1376545 L22.9343228,44.6599941 L24.4566368,44.6599941 L24.4566368,45.6939055 L20.319692,45.6939055 L20.319692,44.6599941 L21.8413732,44.6599941 L21.8413732,37.959952 L20.319692,37.959952 L20.319692,36.9260407 L22.9343228,36.9260407 L22.9343228,38.6875162 Z M30.1155076,38.4579327 C30.6619824,37.3474323 31.8720237,36.7730371 33.1204722,36.7730371 C34.0963113,36.7730371 35.6186253,37.3091396 36.2041306,38.4579327 C36.4383328,38.8791497 36.7109422,39.683303 36.7109422,40.7548928 L36.7109422,44.6601595 L38.1942539,44.6601595 L38.1942539,45.6940708 L34.0572808,45.6940708 L34.0572808,44.6601595 L35.5795947,44.6601595 L35.5795947,41.1378199 C35.5795947,40.3719658 35.5405547,39.6061024 35.150221,38.9174489 C34.6427861,38.1132956 33.6669376,37.8452384 32.8088323,37.8452384 C32.0281553,37.8452384 31.2084478,38.1898755 30.701013,38.7642707 C30.1155076,39.4535449 30.1155076,40.1811183 30.1155076,41.0229408 L30.1155076,44.6601595 L31.5987816,44.6601595 L31.5987816,45.6940708 L27.4618462,45.6940708 L27.4618462,44.6601595 L28.9835274,44.6601595 L28.9835274,37.9601174 L27.4618462,37.9601174 L27.4618462,36.9262088 L30.1155076,36.9262088 L30.1155076,38.4579327 Z M47.8729657,41.2909981 C47.8729657,43.8566269 45.8041864,45.9238289 43.1895555,45.9238289 C40.5743014,45.9238289 38.4671148,43.8949168 38.4671148,41.3675779 C38.4671148,38.8025699 40.5743014,36.7730371 43.1895555,36.7730371 C45.7651464,36.7730371 47.8729657,38.8025699 47.8729657,41.2909981 Z M39.599095,41.329288 C39.599095,43.2439418 41.1604395,44.8516276 43.1895555,44.8516276 C45.1406105,44.8516276 46.7409949,43.2822317 46.7409949,41.3675779 C46.7409949,39.4535449 45.1802737,37.8452384 43.1895555,37.8452384 C41.19947,37.8452384 39.599095,39.415255 39.599095,41.329288 Z M59.5421474,45.6939055 L56.9275449,45.6939055 L56.9275449,43.8564893 C56.1468774,45.1577724 54.8197256,45.9236635 53.2583812,45.9236635 C51.853801,45.9236635 50.214386,45.0812481 49.3946776,43.8564893 C48.9653076,43.1288603 48.6146343,42.1715659 48.6146343,41.3291134 C48.6146343,38.8789844 50.7218209,36.7728717 53.2193506,36.7728717 C54.7416646,36.7728717 56.2249385,37.577025 56.9275449,38.9555642 L56.9275449,34.7822496 L55.405231,34.7822496 L55.405231,33.7483382 L58.0589302,33.7483382 L58.0589302,44.6599941 L59.5421474,44.6599941 L59.5421474,45.6939055 Z M49.7459817,41.3674126 C49.7459817,43.3203563 51.4244273,44.8897522 53.3754822,44.8897522 C55.405231,44.8897522 56.9659522,43.2820941 56.9659522,41.3291134 C56.9659522,39.3767904 55.3271605,37.8067738 53.3754822,37.8067738 C51.3463568,37.8067738 49.7459817,39.4150804 49.7459817,41.3674126 Z M75.4264747,45.6939055 L73.0460744,45.6939055 L69.2994728,40.5632593 L69.7672444,40.5632593 C70.6650224,40.5632593 71.562791,40.5632593 72.3434679,40.1037432 C73.202206,39.5682586 73.7090175,38.6875162 73.7090175,37.691904 C73.7090175,36.8494516 73.4357848,36.0835975 72.8118722,35.5481129 C72.0702352,34.8971286 71.2895583,34.8588387 70.3917897,34.8588387 L67.9723305,34.8588387 L67.9723305,44.5833772 L69.4556044,44.5833772 L69.4556044,45.6939055 L65.201568,45.6939055 L65.201568,44.5833772 L66.7622892,44.5833772 L66.7622892,34.8588387 L65.201568,34.8588387 L65.201568,33.7483382 L70.4698508,33.7483382 C71.6408615,33.7483382 72.6167006,33.8632172 73.5919165,34.6290769 C74.4896945,35.3949347 74.9580704,36.4665245 74.9580704,37.6536048 C74.9580704,39.6831376 73.3577143,41.3291227 71.2505277,41.3291227 L73.8261186,44.5833772 L75.4264747,44.5833772 L75.4264747,45.6939055 Z M78.9778186,35.4715238 L77.8848784,35.4715238 L77.8848784,33.7483382 L78.9778186,33.7483382 L78.9778186,35.4715238 Z M80.5001325,44.6599941 L80.5001325,45.6939055 L76.3241666,45.6939055 L76.3241666,44.6599941 L77.8848784,44.6599941 L77.8848784,37.959952 L76.3632002,37.959952 L76.3632002,36.9260407 L78.9778186,36.9260407 L78.9778186,44.6599941 L80.5001325,44.6599941 Z M89.1644321,39.568424 L88.1105224,39.568424 C87.4859865,38.5345126 86.2759453,37.8835375 85.0274968,37.8835375 C83.0758091,37.8835375 81.5144646,39.4535449 81.5144646,41.3675779 C81.5144646,43.3588208 83.1148396,44.8516276 85.1439651,44.8516276 C86.4320769,44.8133377 87.6811487,44.1246749 88.188593,42.9758845 L89.476072,42.9375946 C88.8131289,44.7750385 86.9785423,45.9238289 85.0274968,45.9238289 C82.4903037,45.9238289 80.3831172,43.8566269 80.3831172,41.4058771 C80.3831172,40.1422077 80.8905548,38.9940288 81.7096362,38.1515855 C82.5683743,37.3091396 83.700345,36.7730371 84.9878335,36.7730371 C86.2369053,36.7730371 87.2908149,37.2708459 88.1105224,38.1515855 L88.1105224,36.9262088 L89.1644321,36.9262088 L89.1644321,39.568424 Z M100.868829,45.6940708 L98.2550101,45.6940708 L98.2550101,43.8949168 C97.4745693,45.1962647 96.1484563,45.9238289 94.587584,45.9238289 C92.9492928,45.9238289 91.4664627,45.1579655 90.6470026,43.8949168 C90.217762,43.1673527 89.9055869,42.3249095 89.9446088,41.3675779 C89.9446088,40.0662393 90.3348272,39.4912234 90.6860247,38.8408598 C91.4274416,37.5771903 92.9492928,36.7730371 94.587584,36.7730371 C96.1874774,36.7730371 97.4355482,37.500604 98.2550101,38.8408598 L98.2550101,36.9262088 L100.868829,36.9262088 L100.868829,37.9601174 L99.3866503,37.9601174 L99.3866503,44.6601595 L100.868829,44.6601595 L100.868829,45.6940708 Z M98.2575221,41.329288 C98.2575221,39.415255 96.6577704,37.8452384 94.7060922,37.8452384 C92.7153739,37.8452384 91.0765917,39.415255 91.0765917,41.3675779 C91.0765917,43.2439418 92.6769667,44.8516276 94.6280216,44.8516276 C96.6577704,44.8516276 98.2575221,43.2822317 98.2575221,41.329288 Z M104.697952,38.6875162 C105.088295,37.4621432 106.297704,36.9643337 107.546785,36.9260407 L107.546785,37.959952 C105.595098,38.113121 104.697952,39.2619114 104.697952,41.1376545 L104.697952,44.6599941 L106.180603,44.6599941 L106.180603,45.6939055 L102.043668,45.6939055 L102.043668,44.6599941 L103.565981,44.6599941 L103.565981,37.959952 L102.043668,37.959952 L102.043668,36.9260407 L104.697952,36.9260407 L104.697952,38.6875162 Z M118.78617,45.6939055 L116.171568,45.6939055 L116.171568,43.8564893 C115.3909,45.1577724 114.063749,45.9236635 112.503037,45.9236635 C111.097824,45.9236635 109.459042,45.0812481 108.639331,43.8564893 C108.20996,43.1288603 107.858657,42.1715659 107.858657,41.3291134 C107.858657,38.8789844 109.965844,36.7728717 112.464006,36.7728717 C113.985687,36.7728717 115.468971,37.577025 116.171568,38.9555642 L116.171568,34.7822496 L114.649263,34.7822496 L114.649263,33.7483382 L117.30352,33.7483382 L117.30352,44.6599941 L118.78617,44.6599941 L118.78617,45.6939055 Z M108.990005,41.3674126 C108.990005,43.3203563 110.66845,44.8897522 112.620138,44.8897522 C114.649254,44.8897522 116.210608,43.2820941 116.210608,41.3291134 C116.210608,39.3767904 114.571193,37.8067738 112.620138,37.8067738 C110.59038,37.8067738 108.990005,39.4150804 108.990005,41.3674126 Z" id="Pernod-Ricard"></path>
            </g>
        </g>
    </g>
</svg>