<?xml version="1.0" encoding="UTF-8"?>
<svg width="53px" height="62px" viewBox="0 0 53 62" version="1.1" xmlns="http://www.w3.org/2000/svg" xmlns:xlink="http://www.w3.org/1999/xlink">
    <!-- Generator: Sketch 52.2 (67145) - http://www.bohemiancoding.com/sketch -->
    <title>porsche</title>
    <desc>Created with Sketch.</desc>
    <g id="Mad/Studio-Website" stroke="none" stroke-width="1" fill="none" fill-rule="evenodd">
        <g id="SVG" transform="translate(-510.000000, -683.000000)" fill="#FFFFFF">
            <g id="porsche" transform="translate(510.000000, 683.000000)">
                <path d="M47.3700145,10.0057094 C36.5271168,7.36068195 30.0810561,6.94196788 24.4335034,6.94196788 C18.7851102,6.94196788 12.33989,7.36068195 1.49615178,10.0057094 L1.04394411,4.0691469 C5.27939849,3.05145047 14.3655787,0.957060728 24.4335034,0.957060728 C34.5005876,0.957060728 43.5867678,3.05145047 47.8222222,4.0691469 L47.3700145,10.0057094 Z M46.5631012,19.8254147 L33.6415611,19.8254147 L33.6415611,19.5345272 L24.9243757,19.5345272 L24.9243757,12.8351021 L47.0968407,12.9580123 L46.5631012,19.8254147 Z M45.5326056,32.8637283 L33.6205477,32.8276746 L33.6415611,26.2372299 L46.0646641,26.2036344 L45.5326056,32.8637283 Z M45.0602251,39.3779687 C43.5867678,48.8338598 33.518843,56.1945417 24.9243757,60.6234058 L24.9243757,43.2570145 C26.3650522,43.1931012 27.6199705,42.8481332 28.6950144,42.3196194 L28.6689578,42.559704 C28.3814949,43.3823829 28.3974651,43.7289896 28.3806544,43.9067997 C28.3319034,44.2779885 27.8645661,44.3140422 27.7813531,44.2730721 C27.680489,44.2140752 27.5619736,44.1804797 27.4350528,44.1804797 C27.0610149,44.1804797 26.7584224,44.4754642 26.7584224,44.8409172 C26.7584224,44.9031917 26.7668277,44.9458006 26.7836384,45.0023393 C26.5398834,45.1023062 26.4322949,45.2973237 26.4322949,45.5701844 C26.4322949,45.9356373 26.6743689,46.2306218 27.0484069,46.2306218 C27.2030653,46.2306218 27.3039294,46.2478292 27.4182421,46.1626115 C27.5426413,46.3002709 27.7233562,46.3863081 27.9259251,46.3863081 C28.3008036,46.3863081 28.4907644,46.2887993 28.5151399,45.5464217 C31.0165712,44.2558647 34.8233529,43.2684861 36.508625,43.356162 C38.4141172,43.456129 39.7993184,45.3194476 39.9464119,45.4390802 C40.0935055,45.5587127 40.2162236,45.5587127 40.1918481,45.3669728 C40.06913,44.601652 39.8262155,43.447935 37.9694743,42.4580982 C38.0921924,41.9558052 38.9982888,41.861574 39.1663957,41.7886473 C39.2933165,41.7337474 39.3387054,41.5723254 39.1663957,41.5723254 C37.9232449,41.4125421 37.0364808,41.9558052 36.8641712,42.1713077 C36.6927021,42.1229631 35.8513269,42.0639662 35.6058907,42.0877288 C35.7437384,41.4723584 36.1127331,41.0233265 36.6616023,40.5734752 C36.5825921,40.6390273 36.8095364,40.3817353 36.6372268,40.3817353 C35.262112,40.5021873 34.4089693,41.8902531 34.3106267,42.2491509 C34.1879087,42.2729135 32.6959596,42.5129981 32.4505234,42.584286 C32.6749462,41.1732769 34.3165105,40.2145774 34.4644446,40.1187075 C34.6115382,40.0228375 34.6602892,39.8794423 34.4644446,39.8794423 C32.3984103,39.9466332 30.8854478,42.5482323 30.8114808,43.0996894 C30.4920776,43.2185026 30.0012053,43.3864799 29.7557692,43.5298751 C29.6700346,42.59248 29.6876858,42.3015925 29.9499327,41.7419415 L30.0886209,41.4641644 C32.4866664,39.6655785 33.6415611,36.8968215 33.6415611,34.9491046 L33.6415611,33.7888324 L45.4973032,33.7535981 L45.0602251,39.3779687 Z M16.2113929,34.3509417 L16.2113929,20.7062711 L24.4335034,20.7062711 L32.6598166,20.7062711 L32.6598166,34.3509417 C32.6598166,38.0611908 29.4674658,42.310606 24.4335034,42.310606 C19.4020626,42.3081478 16.2113929,38.0603714 16.2113929,34.3509417 Z M12.2154909,52.8022203 L23.9417906,52.7768189 L23.9417906,60.6086566 C20.0215367,58.588013 15.7936471,55.9610124 12.2154909,52.8022203 Z M6.35612345,46.0462565 C5.09111872,43.9879204 4.19510872,41.7894667 3.81938971,39.462367 L16.818259,39.4484372 C18.2253141,41.4272914 20.5788112,43.107064 23.9417906,43.2570145 L23.9417906,46.0437983 L6.35612345,46.0462565 Z M15.2288078,27.9817353 C14.9573151,27.656433 14.6715333,27.4204454 14.5370478,27.3507963 C14.5992473,27.0959625 14.9379828,26.6215291 15.2262862,26.2659089 L15.2288078,27.9817353 Z M1.58692953,11.0692923 C12.4600865,8.29316064 19.0759352,8.03341043 23.9417906,7.96540012 L23.9417906,19.7492103 L15.2246051,19.7492103 L15.2296484,20.7521575 C14.9396639,20.6947994 14.6059716,20.6374414 14.4479511,20.6521906 C14.6110148,19.568942 15.4305362,19.0191238 15.5137491,18.938003 C15.5961215,18.8568823 15.6793344,18.6626842 15.4851709,18.6626842 C13.938587,18.797066 13.2056408,20.403912 13.0946902,20.8078768 C12.9568425,20.8349171 12.1028592,21.0291152 11.8271639,21.1102359 C11.9927492,19.4132558 13.1434412,18.6233529 13.3098671,18.5160114 C13.4754524,18.4078504 13.5300872,18.2464283 13.3098671,18.2464283 C11.418664,18.282482 10.3814442,21.0741823 10.2704936,21.5322276 C9.91158526,21.6666094 9.06768842,22.0648384 8.7911525,22.2262605 C8.65582641,20.0777903 10.4856705,18.6143395 10.5966211,18.506998 C10.7067311,18.3996564 10.7891035,18.2103747 10.5411458,18.2644552 C8.19269179,18.5881187 7.49336691,22.3073812 7.45134018,22.7514967 C7.39586489,23.168572 7.00921892,23.0071499 6.91591957,22.9620829 C6.80160685,22.894892 6.66880236,22.8571995 6.52591146,22.8571995 C6.10564411,22.8571995 5.76354649,23.1898764 5.76354649,23.5995771 C5.76354649,23.6700456 5.77447344,23.7175709 5.7929652,23.7814842 C5.51895089,23.8945616 5.29452812,24.1805326 5.29452812,24.4886275 C5.29452812,24.8983282 5.63578521,25.2310051 6.05605256,25.2310051 C6.23088378,25.2310051 6.37797736,25.1834798 6.50657917,25.0876099 C6.64610793,25.2416573 6.85035786,25.3391661 7.07814277,25.3391661 C7.49925066,25.3391661 7.99012292,25.0269742 8.01786057,24.1920042 C10.8075953,22.4147228 12.8299218,21.9263596 14.0402917,21.9304566 C14.8135837,21.9320954 15.0657441,22.0845041 15.2271268,22.2270799 L15.2246051,25.7726294 C14.3823894,26.1167779 13.3989638,27.1688892 13.2754052,27.3253948 C13.1299927,27.2844248 12.6492068,27.2696755 12.4424353,27.2901606 C12.5643128,26.4781339 13.1787437,25.6456222 13.2409432,25.5849865 C13.3031428,25.5243508 13.3653424,25.3784973 13.2207704,25.3784973 C12.059992,25.4792837 11.4489232,27.2237891 11.3657103,27.5261482 C11.2623245,27.5466332 10.7445552,27.6326703 10.5377836,27.693306 C10.6621828,26.4207758 11.2791352,25.7087161 11.4035344,25.6275953 C11.5279335,25.547294 11.5699602,25.4260226 11.4035344,25.4260226 C9.98555232,25.4530628 9.39213482,28.0554814 9.30892188,28.3988105 C9.03995077,28.4995969 8.59110524,28.8281768 8.38349317,28.9494482 C8.282629,27.3376859 9.04079131,26.0610586 9.12316371,25.9799379 C9.20637665,25.8996366 9.26857621,25.7578801 9.08197751,25.7980308 C7.36728671,26.2716447 7.41015398,29.3984801 7.37905419,29.7319765 C7.33786799,30.0449878 7.10924255,29.8942179 7.03863764,29.8598031 C6.9529031,29.8098196 6.85287947,29.7811406 6.74613156,29.7811406 C6.43009051,29.7811406 6.17456796,30.0302386 6.17456796,30.3383334 C6.17456796,30.3907751 6.18213277,30.4268288 6.19642186,30.4751735 C5.99133139,30.5595718 5.82238392,30.7742549 5.82238392,31.0045067 C5.82238392,31.3126016 6.078747,31.5616996 6.39394752,31.5616996 C6.52507093,31.5616996 6.63518098,31.5264653 6.73184247,31.454358 C6.83606877,31.5698936 6.98988662,31.6428203 7.16051517,31.6428203 C7.47655622,31.6428203 7.84471042,31.409291 7.86488325,30.782449 C9.36187557,28.9945153 11.9347523,28.1595454 12.8416893,28.158726 C14.3756651,28.1570872 14.8900723,28.5717042 15.2237646,28.8273574 L15.2246051,32.8637283 L3.29573659,32.8653671 L1.58692953,11.0692923 Z M0,3.23089936 C9.94520665,1.01687702 15.9617541,0 24.4335034,0 C32.9052527,0 38.9209596,1.01687702 48.8661663,3.23089936 L46.1646877,37.9423776 C45.6738154,47.876799 36.096763,56.1347254 24.4335034,62 C12.7694033,56.1347254 3.19235082,47.876799 2.70147855,37.9423776 L0,3.23089936 Z M35.728945,47.9471037 C35.8272876,47.5447776 36.4593697,47.3497601 36.5946958,47.2907632 C36.6955599,47.247335 36.7317029,47.118689 36.5946958,47.118689 C35.6003432,46.9908624 34.8287323,47.4849613 34.6917252,47.6570356 C34.5538775,47.6193432 33.8814497,47.5709985 33.6847646,47.5898447 C33.7948746,47.0982039 34.6110338,46.649172 35.051474,46.2894548 C34.9875934,46.3410771 35.1691489,46.1362268 35.0313012,46.1362268 C33.8259744,46.1108253 32.7879141,47.3727034 32.7097443,47.6594938 C32.6114018,47.6791595 31.6330194,47.87008 31.4363343,47.9282575 C31.6153681,46.7991224 33.051842,46.0616613 33.1703574,45.9846375 C33.2880322,45.9092526 33.3275373,45.793717 33.1703574,45.793717 C31.5178661,45.8469781 30.1536783,47.8389427 30.0940003,48.2797806 C29.8393183,48.3748312 29.261871,48.5698487 29.0651858,48.6837455 C28.9416272,47.3268169 30.5092245,46.1100059 30.3755795,46.2402908 C30.4545897,46.163267 30.5134271,46.0297046 30.3360743,46.0673971 C28.6667724,46.2976488 27.9951852,48.6698156 27.9657664,48.9861045 C27.9262613,49.2827278 27.5530639,49.3114069 27.4866617,49.2786308 C27.4051298,49.2311055 27.3101494,49.2040653 27.2092852,49.2040653 C26.9100549,49.2040653 26.6671403,49.4408723 26.6671403,49.7325791 C26.6671403,49.7825626 26.6747051,49.8161581 26.6881537,49.8620445 C26.4931496,49.9423459 26.4074151,50.0980321 26.4074151,50.3168123 C26.4074151,50.6085191 26.6007381,50.8445067 26.8999684,50.8445067 C27.0243676,50.8445067 27.1042184,50.8592559 27.1958367,50.7904262 C27.2950198,50.900226 27.4404323,50.9690557 27.6026555,50.9690557 C27.9010453,50.9690557 28.0540226,50.8912126 28.0733549,50.297966 C30.074668,49.264701 32.9972072,48.5649323 34.3454249,48.6354008 C35.8693143,48.7148827 37.0082388,49.7866596 37.1259137,49.8817102 C37.2444291,49.9783995 37.3419311,49.9783995 37.3225988,49.8251715 C37.2242562,49.2122593 36.8031484,48.5649323 35.728945,47.9471037 Z M32.4349735,52.5594317 C32.5022163,52.2841129 32.7501741,52.121052 32.8426329,52.0809013 C32.9123973,52.0505835 32.9367728,51.9629076 32.8426329,51.9629076 C32.1626403,51.8752316 31.8197021,52.2882099 31.7255622,52.4062037 C31.6314224,52.3799828 31.3094976,52.3922738 31.175012,52.4053843 C31.2506601,52.0686103 31.6557979,51.6720201 31.9558688,51.4253803 C31.912161,51.461434 32.0365601,51.3204969 31.9432607,51.3204969 C31.1178557,51.3041089 30.3008559,52.3758858 30.2470617,52.5725421 C30.096606,52.619248 29.7124816,52.6790643 29.5603448,52.756088 C29.6830629,51.984212 30.1588056,51.49421 30.2394969,51.4425877 C30.3201882,51.3893266 30.3470853,51.3114835 30.2394969,51.3114835 C29.1089777,51.3475372 28.729056,52.7405194 28.6887104,53.0420591 C28.5138791,53.1067918 28.257516,53.1944677 28.1230305,53.2731302 C27.9481993,52.2898487 28.6500458,51.4974876 28.5584275,51.5868024 C28.6122217,51.5343607 28.6525674,51.4425877 28.5315304,51.4688086 C27.5027159,51.6466186 27.3909248,53.3083645 27.3707519,53.5246864 C27.3438548,53.727898 27.0883323,53.7467442 27.0429434,53.7254398 C26.9874681,53.6926637 26.9227469,53.6738175 26.8529826,53.6738175 C26.6487326,53.6738175 26.4823067,53.8360589 26.4823067,54.0359929 C26.4823067,54.0695883 26.48735,54.0925316 26.4965958,54.1236688 C26.3637914,54.1793881 26.3049539,54.2850909 26.3049539,54.4350413 C26.3049539,54.6341558 26.4369179,54.7955779 26.6411678,54.7955779 C26.7260618,54.7955779 26.7815371,54.8054107 26.8437367,54.7595242 C26.91182,54.8340897 27.0110031,54.881615 27.1219537,54.881615 C27.3262036,54.881615 27.5228887,54.7972167 27.5363373,54.391613 C28.9299438,53.5623789 30.7354124,53.0715575 31.6574789,53.1207216 C32.699742,53.1748021 33.4175586,53.6533325 33.4982499,53.7188846 C33.5789413,53.7844367 33.6461841,53.7844367 33.6327355,53.6795533 C33.5654927,53.2600198 33.2267572,52.9330787 32.4349735,52.5594317 Z M25.2464686,38.1366576 C25.5994931,37.7171242 26.3055423,37.4934276 26.5820782,37.4483605 C26.8577736,37.4024741 26.8888734,37.1337104 26.8577736,36.9993286 C26.8275143,36.8641274 26.8115442,36.5199789 26.9804917,36.3413494 C27.2259278,36.4011657 28.0093061,36.5650459 28.3774603,37.0591449 C28.4388194,37.1943461 28.453949,37.2680922 28.515308,37.3582264 C28.4077196,37.5384947 28.1933832,37.7023749 28.1168946,37.8818238 C28.0395654,38.0612727 27.9479471,38.3603542 27.5949225,38.6307566 C27.241898,38.8995203 26.9342623,39.0642199 26.7661553,39.3034851 C26.5972078,39.5427503 26.4896194,39.7967647 26.5207192,40.126164 C26.5509784,40.4555633 26.6434372,40.2908637 26.7964146,40.2908637 C26.9502324,40.2908637 27.303257,40.126164 27.3183866,39.9016481 C27.3335162,39.6779515 27.2259278,39.5722487 27.5486931,39.4378669 C27.8714585,39.3034851 28.4388194,38.8544532 28.5615374,38.5701209 C28.6842555,38.2866081 29.0524097,37.7326928 29.3440753,37.5679931 C29.6357408,37.4024741 29.5743818,37.1640283 29.4365341,36.9247631 C29.2978459,36.6854979 28.8221032,36.0414485 28.914562,35.6227344 C29.0070208,35.2040204 29.5130227,34.9491865 29.6668406,34.3059565 C29.8198179,33.6627265 29.7281996,33.363645 29.6357408,33.1391291 C29.8971471,33.0645635 30.0501244,33.1243798 30.3880194,33.2735109 C30.7259143,33.4234613 31.4933225,33.3931435 31.5849408,33.1841961 C31.6773996,32.9744294 31.6462998,32.5557153 31.5849408,32.4664006 C31.8001177,32.2861323 31.953095,31.8977361 31.8303769,31.7182872 C31.7076589,31.5380189 31.6462998,31.2987537 31.7076589,31.0594885 C31.4933225,31.0299901 31.263016,30.8497218 31.4159933,30.71534 C31.5698112,30.5809582 31.8766063,30.2671275 31.7387586,29.8623432 C31.7841475,29.6083288 31.8001177,29.2936787 31.3546343,29.3092473 C31.3395047,29.1445477 31.2008164,28.606201 30.5107374,29.0994806 C30.403149,29.1740461 30.2804309,29.0101659 30.4342488,28.9650988 C30.5872261,28.9200317 31.3857341,28.6660173 31.5084521,28.3964343 C31.6311702,28.1268513 31.5849408,27.9924694 31.5387114,27.8875861 C31.6009109,27.7679535 31.6614294,27.5286883 31.6009109,27.4385542 C31.5387114,27.3492394 31.2932752,27.3639886 31.1243278,27.7679535 C30.9553803,28.1719183 31.0016097,28.1719183 30.5569668,28.2473032 C30.1114834,28.3218688 29.774429,28.2473032 29.4827635,28.7258336 C29.3903047,28.8454662 29.3440753,28.979848 29.1297389,29.0994806 C28.914562,29.2191132 28.791844,29.4133113 28.7615847,29.5788304 C28.7304849,29.7427106 28.8843028,30.0426115 28.853203,30.2515588 C28.8221032,30.4613256 28.6993851,30.9103575 29.2675866,31.3888879 C29.5441225,31.6879693 29.9576656,32.0763656 29.651711,32.3762664 C29.3440753,32.6753479 29.0683799,32.3615172 28.8372328,32.2115668 C28.6077669,32.0616163 27.8554883,31.8379198 27.364616,31.8674182 C26.8737438,31.8977361 25.2624387,31.5085205 24.8783144,31.1938703 C24.49419,30.8800396 24.7295397,30.7210758 24.9245438,30.6252058 C25.0623915,30.5662089 25.1548503,30.5055733 25.2313389,30.3564422 C25.3078276,30.2064918 25.4305457,30.1769933 25.5692339,30.1769933 C25.7070816,30.1769933 25.8449293,30.1474949 25.9676473,29.8623432 C26.0903654,29.5788304 26.2130835,29.6828943 26.3517717,29.6533959 C26.4896194,29.623078 26.5820782,29.3387458 26.3358015,29.249431 C26.0903654,29.1592969 25.9525177,29.0699822 25.9676473,28.979848 C25.982777,28.8905333 26.152565,28.6955158 26.3828715,28.6807665 C26.6123375,28.6660173 26.6283076,28.5160669 26.6123375,28.3964343 C26.5972078,28.2768017 26.6123375,28.2014168 26.7661553,28.1268513 C26.9191326,28.0522857 26.904003,27.8728368 26.6434372,27.7982713 C26.3828715,27.7237058 25.9987471,27.6335717 25.9987471,27.5139391 C25.9987471,27.3943065 26.1676946,27.1845397 26.3358015,27.1247235 C26.5055896,27.0649072 26.5820782,26.8108928 26.1979539,26.825642 C25.81467,26.8403912 25.5994931,26.8854583 25.5230045,26.6461931 C25.4456753,26.4069279 25.4305457,26.2717267 25.8297997,26.1225957 C25.9987471,26.0775286 26.0449765,25.8530126 25.7373408,25.8677618 C25.4305457,25.8825111 25.0775211,26.0324615 24.9699326,25.9275781 C24.8623442,25.8235142 24.893444,25.73338 24.954803,25.688313 C25.0170026,25.6432459 25.0321322,25.4941148 24.8783144,25.4941148 C24.7244965,25.4941148 24.1260358,25.7186308 23.9730585,25.5539311 C23.8192406,25.3892315 23.5738045,25.2990973 23.3737572,25.4187299 C23.1745505,25.5383625 23.1745505,25.7186308 23.282139,25.8235142 C23.3897274,25.9275781 23.2510392,26.0922778 23.1283211,25.9873944 C23.005603,25.8825111 23.0518324,25.8079455 23.0518324,25.7628785 C23.0518324,25.7186308 22.9602142,25.5686804 22.8526257,25.5088641 C22.7450373,25.4490478 22.7450373,25.2843481 22.7761371,25.1794647 C22.8063963,25.0754008 22.6836782,24.9705174 22.4996011,25.0754008 C22.315524,25.1794647 22.1465766,25.3589136 22.2381948,25.6284967 C22.0389881,25.6432459 21.5329862,25.7628785 21.5170161,25.9128289 C21.5018864,26.0627794 21.5783751,26.2266596 21.5481159,26.2872953 C21.5170161,26.3471116 21.3480686,26.3471116 21.2564503,26.4069279 C20.995044,26.6609423 20.5504012,26.9002075 20.4428127,27.0050909 C20.3352243,27.1099742 20.2587356,27.2140382 20.1200474,27.3795573 C19.9821997,27.5286883 19.9704322,27.7007626 20.0284291,27.7827027 C20.1973766,28.0227873 20.3352243,27.8580876 20.4276831,27.9924694 C20.5193014,28.1268513 20.5193014,28.1571691 20.5041717,28.2317346 C20.4890421,28.3063001 20.6731192,28.4709998 20.9496551,28.2473032 C21.2253505,28.0227873 21.4253978,27.7827027 21.6397341,28.0375365 C21.854911,28.2915509 21.6557043,28.4415014 21.5632455,28.606201 C21.3791684,28.7856499 20.9496551,29.3387458 20.7496079,29.5034455 C20.5504012,29.6681451 20.3965833,30.0573607 20.3200946,30.4162585 C20.243606,30.7751563 20.1511472,30.8497218 20.0746585,30.9398559 C19.7065043,30.8054741 19.2921207,30.6407745 19.0618142,30.4613256 C18.9079963,30.341693 18.5709419,30.1917425 18.355765,30.490824 C18.2481766,30.6104566 17.6959453,31.3438208 17.5580976,31.6584709 C17.4194094,31.9723016 17.205073,31.852669 17.205073,32.450832 C17.205073,32.6605987 17.035285,32.7499134 16.9436667,33.0793128 C16.9285371,33.1694469 16.683101,33.7225428 16.9285371,33.8274262 C17.1739732,33.9323095 17.4656388,33.7971083 17.5269978,33.6479773 C17.5883568,33.4980268 17.6034865,33.0342457 17.6186161,32.869546 C17.6959453,32.6450301 17.9413814,32.3762664 17.9716407,32.2418846 C18.0027405,32.1066834 17.9565111,32.0026194 18.0489699,31.8674182 C18.1405882,31.7330364 18.4011539,31.479022 18.4936127,31.3888879 C18.5860715,31.2987537 18.9079963,31.1643719 19.0769438,31.5232697 C19.2458913,31.8821674 19.5375568,32.6753479 20.1200474,32.9146131 C19.8905814,33.0342457 19.3375096,33.2292632 19.0466846,33.2882601 C18.7541785,33.3488958 18.5247125,33.3931435 18.6474306,34.0961898 C18.7701486,34.8000555 18.8012484,35.099137 18.7541785,35.3236529 C18.7087896,35.5481689 18.69366,36.0266993 19.1231732,36.4011657 L19.5064571,36.9247631 C19.6602749,37.0591449 20.0284291,37.208276 20.0595289,36.9091945 C20.0897881,36.6109324 20.182247,36.3110315 19.8746113,36.2807137 C19.7670228,36.2667838 19.4761978,36.0266993 19.5064571,35.7579356 C19.5375568,35.4883526 19.4610682,35.2638366 19.3375096,35.0393207 C19.2147915,34.8148047 19.1694026,34.5607903 19.2307617,34.335455 C19.2921207,34.1117584 19.4610682,33.9773766 19.844352,34.0519421 C20.1511472,34.1568255 21.5632455,34.5304725 21.9927587,34.0666913 C22.2844243,34.2764581 24.0192879,34.9049389 25.0321322,34.8000555 C25.2162093,35.1147056 25.5994931,35.8021833 25.8449293,35.9972008 C26.0449765,36.1758303 26.1214652,36.7453142 25.7835702,37.0443957 C25.5843635,37.1943461 25.0623915,37.7171242 24.6328782,37.8375762 C24.203365,37.9563893 24.0344175,38.0317743 23.8343703,38.2259724 C23.6351635,38.4209899 23.5124455,38.4209899 23.3897274,38.6750043 C23.2670093,38.9298381 22.9904734,39.3780506 23.4359568,39.3780506 C23.8805997,39.3780506 24.0033177,39.1691033 24.0344175,39.0486513 C24.0646768,38.9298381 24.0344175,38.6750043 24.203365,38.6307566 C24.3714719,38.5856896 24.893444,38.5553717 25.2464686,38.1366576 Z M5.99502974,18.6186823 C6.15052866,18.7899372 6.37747304,18.8980982 6.63047398,18.8980982 C7.09781128,18.8980982 7.6433183,18.5514914 7.67441809,17.6239292 C10.7743101,15.649172 14.1196382,14.8117439 15.8998907,14.8117439 C17.6801432,14.8117439 19.0922415,15.918755 19.2763186,16.0678861 C19.4612363,16.2178365 19.6142136,16.2178365 19.5839544,15.9785713 C19.4301365,15.0206912 18.110497,14.1529452 17.649884,13.91368 C17.8028613,13.2851992 18.6013693,12.5969021 18.7240873,12.4772695 C18.8468054,12.357637 18.9384237,12.2085059 18.7240873,12.2085059 C17.4044479,12.2978207 16.4832218,13.2851992 16.2688855,13.5547823 C16.0537086,13.494966 15.1938416,13.494966 14.8870464,13.5244644 C14.8870464,12.3281385 16.1150676,11.3104421 16.2066859,11.2211273 C16.2991447,11.1309932 16.3916035,10.9810428 16.1764266,10.9810428 C14.4575332,11.1309932 13.5060479,13.3155171 13.3833298,13.764549 C13.229512,13.7940474 12.2469269,13.9431785 11.9401317,14.0333126 C12.1242088,12.1486896 13.5060479,11.0711769 13.690125,10.9515443 C13.8742021,10.8319117 13.9355611,10.6524628 13.690125,10.6524628 C11.4190002,10.7122791 10.4061559,13.91368 10.3136971,14.6019771 C9.91444308,14.7519276 8.84023973,15.2599564 8.53344456,15.4402247 C8.28800842,12.7468526 10.3136971,11.1604916 10.4364151,11.040859 C10.5591332,10.9212265 10.651592,10.7122791 10.3750561,10.7720954 C7.76603637,11.1309932 7.09024647,15.5295394 7.04485759,16.0236384 C6.98349856,16.4874195 6.55398532,16.3079707 6.44975902,16.2571678 C6.32283828,16.1826023 6.17490417,16.1408128 6.01604311,16.1408128 C5.54870581,16.1408128 5.1704652,16.5103628 5.1704652,16.9659499 C5.1704652,17.043793 5.18139215,17.0970541 5.20156498,17.168342 C4.89813195,17.2937104 4.64765261,17.6116381 4.64765261,17.9533285 C4.64765261,18.4089156 5.02673376,18.7784656 5.49491159,18.7784656 C5.68823458,18.7784656 5.85213884,18.7252045 5.99502974,18.6186823 Z M6.18507464,5.50547545 L3.13141205,6.1634547 L3.10031227,5.55054252 C3.10031227,5.55054252 5.74043178,4.96712879 6.04722695,4.9073125 C6.35402212,4.8474962 6.4649727,4.99744664 6.47674018,5.10151061 C6.49186981,5.23589242 6.44648093,5.44565916 6.18507464,5.50547545 M6.33889249,3.88961607 L1.96474988,4.8474962 L2.27154505,9.00595784 L3.33061878,8.76669266 L3.19193055,7.12133483 L6.86086455,6.31340514 C7.55094354,6.1634547 7.73502064,5.76030926 7.70476139,4.80242913 C7.67366161,3.844549 6.89112379,3.76998348 6.33889249,3.88961607 M12.7997466,5.90952224 L10.1142382,6.3282363 C9.74608398,6.3880526 9.50064785,6.40362123 9.46954806,5.93902068 L9.43844828,4.81726029 C9.43844828,4.50342959 9.42331865,4.20352871 9.99152011,4.09946475 L12.7081283,3.65043283 C12.9997938,3.60536576 13.306589,3.81513249 13.306589,4.09946475 L13.3368482,5.3261085 C13.3368482,5.52030661 13.24523,5.83495672 12.7997466,5.90952224 Z M14.3807924,3.65043283 L14.4270218,5.65468843 C14.4421514,6.0742219 14.4110516,6.62731778 13.2603596,6.79201745 L9.97639049,7.30086566 C9.3930594,7.40574903 8.44073358,7.31561488 8.41047433,6.23810216 L8.36424492,4.35347915 C8.36424492,3.96426353 8.3491153,3.39559902 9.43844828,3.23089936 L12.9838237,2.66305425 C13.4133369,2.58766933 14.3807924,2.87200159 14.3807924,3.65043283 Z M23.3282003,2.85676072 C23.1239503,2.85676072 22.9592055,3.01736338 22.9592055,3.2164779 C22.9592055,3.41477301 23.1239503,3.57537567 23.3282003,3.57537567 L26.7046282,3.57537567 C26.9122402,3.57537567 27.8174961,3.51555937 27.8174961,4.80939404 C27.8174961,6.10404811 27.0114233,6.05898103 26.7046282,6.05898103 L21.8858427,6.05898103 L21.8858427,5.1617366 L26.2137559,5.1617366 C26.4171653,5.1617366 26.5827506,5.03063239 26.5827506,4.83233728 C26.5827506,4.63322276 26.4171653,4.4726201 26.2137559,4.4726201 L22.8213578,4.4734395 C22.6372807,4.4734395 21.7631246,4.45049627 21.7547193,3.23122712 C21.7471545,2.01195797 22.5759217,1.95951629 22.8213578,1.95951629 L27.6561135,1.95951629 L27.6561135,2.85676072 L23.3282003,2.85676072 Z M36.1126491,5.02653539 L35.989931,6.8521615 L34.9762462,6.71696029 L35.2376525,2.4683645 L36.2504968,2.61831494 L36.1588785,4.17353862 L39.7193835,4.83233728 L39.8261314,3.18616005 L40.8238461,3.36560893 L40.5632804,7.6002749 L39.550436,7.42000661 L39.6731541,5.68533404 L36.1126491,5.02653539 Z M46.3952464,7.88444327 L46.3187577,8.73744003 L41.5142613,7.73449283 L41.760538,3.54571334 L46.6406825,4.54784114 L46.5793235,5.4008379 L42.7271529,4.60765744 L42.6968937,5.38608868 L46.5179644,6.17844975 L46.4566054,7.03144651 L42.6346941,6.23826604 L42.5893052,7.0912628 L46.3952464,7.88444327 Z M29.6051453,6.17877751 C28.7915077,6.11896121 28.530942,5.41591489 28.5460716,4.99720082 C28.5460716,4.99720082 28.5771714,4.44328553 28.6385304,3.21664178 C28.6998895,1.98917862 29.4361979,2.01949646 29.8203222,2.04899491 L34.3163424,2.39314346 L34.2709535,3.32070574 L30.4339126,3.02162426 C29.8505815,2.97655719 29.7278634,3.30595652 29.7127338,3.66485429 L29.681634,4.56291813 C29.6513748,5.19139893 30.0346586,5.2962823 30.3885237,5.31103152 L34.1331058,5.58061455 L34.0868764,6.50735743 L29.6051453,6.17877751 Z M19.2794286,3.67862023 L16.1366694,3.84987511 L16.1232208,3.19353466 L19.3063257,3.0304738 C19.5526024,3.03702901 19.6543071,3.12306615 19.6652341,3.3418463 C19.6753205,3.56062645 19.4971271,3.66223221 19.2794286,3.67862023 M20.6503407,4.12519395 C20.8730824,4.29317122 21.079854,4.74220313 21.0756513,5.39280777 L21.0748108,6.08438248 L20.014056,6.13436596 L20.0148965,5.52637018 C20.0132154,4.92247142 19.6727989,4.54390802 19.0961921,4.58241988 L16.1652475,4.76842397 L16.1946663,6.42033701 L15.1389547,6.46950109 L15.0229609,2.33889909 L19.4223195,2.05292804 C20.2275518,1.98901474 20.9361225,2.14961739 20.9344415,3.22631071 C20.9336009,3.5335862 20.8201287,3.8465975 20.6503407,4.12519395 Z M17.7494033,23.7047063 C17.9519722,23.7047063 18.093182,23.5998229 18.093182,23.4498725 C18.093182,23.3695711 18.0469526,23.3154906 17.9301183,23.2614102 L17.3686411,23.0073958 C17.1232049,22.8967766 17.0130949,22.7320769 17.0130949,22.4657715 C17.0130949,22.0675425 17.2795444,21.8045146 17.6846821,21.8045146 C18.1301655,21.8045146 18.3848475,22.0527932 18.4033393,22.507561 L18.0343446,22.507561 C17.997361,22.2682958 17.8964969,22.1691482 17.6914064,22.1691482 C17.5064888,22.1691482 17.3745248,22.2740316 17.3745248,22.4207044 C17.3745248,22.4895341 17.4207542,22.5460728 17.5039672,22.5854041 L18.0814145,22.8459737 C18.3419803,22.9623287 18.4554525,23.0999881 18.4554525,23.3933338 C18.4554525,23.5998229 18.3756017,23.7825494 18.2251459,23.9136536 C18.0990657,24.0250922 17.9578559,24.0693399 17.7367953,24.0693399 C17.4300001,24.0693399 17.2123016,23.9644565 17.0862214,23.7555092 C17.0156165,23.64489 16.991241,23.5457424 16.978633,23.3458085 L17.3409034,23.3458085 C17.3871328,23.5998229 17.5064888,23.7047063 17.7494033,23.7047063 Z M19.1423374,24.0275504 L19.1423374,22.2412555 L18.586744,22.2412555 L18.586744,21.8463041 L20.0635635,21.8463041 L20.0635635,22.2412555 L19.5197375,22.2412555 L19.5197375,24.0275504 L19.1423374,24.0275504 Z M21.0638838,24.0695857 C20.4771906,24.0695857 20.3242133,23.6951193 20.3242133,23.1928263 L20.3242133,21.8465499 L20.7016134,21.8465499 L20.7016134,23.1838129 C20.7016134,23.5369748 20.8024775,23.6746342 21.0580001,23.6746342 C21.3278117,23.6746342 21.4261543,23.5427106 21.4261543,23.1838129 L21.4261543,21.8465499 L21.8035544,21.8465499 L21.8035544,23.1928263 C21.8035544,23.6893835 21.6530986,24.0695857 21.0638838,24.0695857 Z M22.5578502,24.0275504 L22.5578502,22.2412555 L22.0022568,22.2412555 L22.0022568,21.8463041 L23.4790762,21.8463041 L23.4790762,22.2412555 L22.9352503,22.2412555 L22.9352503,24.0275504 L22.5578502,24.0275504 Z M25.9281422,24.0695857 C25.4339078,24.0695857 25.0842454,23.6090821 25.0842454,22.9568387 C25.0842454,22.2619864 25.4397915,21.8039411 25.9836175,21.8039411 C26.4257388,21.8039411 26.7199259,22.0768017 26.7754012,22.5405828 L26.3887552,22.5405828 C26.3147882,22.3037759 26.1920701,22.1997119 25.9861391,22.1997119 C25.6700981,22.1997119 25.4734129,22.4832247 25.4734129,22.9388119 C25.4734129,23.3845662 25.6768223,23.6746342 25.9861391,23.6746342 C26.2231699,23.6746342 26.3795093,23.5132122 26.4282604,23.2198665 L26.0147173,23.2198665 L26.0147173,22.8454001 L26.7754012,22.8454001 L26.7754012,24.0277962 L26.5148354,24.0277962 L26.4778519,23.7524774 C26.3332799,23.9704381 26.1584487,24.0695857 25.9281422,24.0695857 Z M31.1602186,24.0275504 L31.1602186,22.2412555 L30.6046252,22.2412555 L30.6046252,21.8463041 L32.0814446,21.8463041 L32.0814446,22.2412555 L31.5376187,22.2412555 L31.5376187,24.0275504 L31.1602186,24.0275504 Z M24.2154687,24.0275504 L24.2154687,22.2412555 L23.6598753,22.2412555 L23.6598753,21.8463041 L25.1366947,21.8463041 L25.1366947,22.2412555 L24.5928688,22.2412555 L24.5928688,24.0275504 L24.2154687,24.0275504 Z M27.8464946,22.345975 L28.0768011,23.1956942 L27.6161881,23.1956942 L27.8464946,22.345975 Z M27.5119618,23.5701606 L28.1785058,23.5701606 L28.3037455,24.0273865 L28.7156075,24.0273865 L28.0675552,21.8461402 L27.6405636,21.8461402 L26.9874681,24.0273865 L27.38336,24.0273865 L27.5119618,23.5701606 Z M29.3038977,22.2411736 L29.662806,22.2411736 C29.9242123,22.2411736 30.0040631,22.3042675 30.0040631,22.5164924 C30.0040631,22.7287174 29.9208502,22.7975471 29.662806,22.7975471 L29.3038977,22.7975471 L29.3038977,22.2411736 Z M29.3038977,23.1654583 L29.6510385,23.1654583 C30.000701,23.1654583 29.9544716,23.3637534 29.9637174,23.6833199 C29.9670796,23.8783374 29.9729633,23.9078359 30.0099469,24.0274684 L30.4268521,24.0274684 C30.3688552,23.9619163 30.3596093,23.9078359 30.3478418,23.5554933 C30.3318716,23.1326822 30.3108583,23.0728659 30.1326649,22.9802736 C30.32935,22.8549052 30.3932307,22.7262592 30.3932307,22.474703 C30.3932307,22.2592004 30.3259879,22.0854873 30.2032698,21.9715906 C30.0923193,21.8732624 29.9948172,21.8462222 29.7334109,21.8462222 L28.9264976,21.8462222 L28.9264976,24.0274684 L29.3038977,24.0274684 L29.3038977,23.1654583 Z M51.2373987,7.28349435 C50.3775317,7.28349435 49.68325,6.60666887 49.68325,5.76432432 C49.68325,4.92935439 50.3775317,4.25334831 51.2373987,4.25334831 C52.0930631,4.25334831 52.7873447,4.92935439 52.7873447,5.76432432 C52.7873447,6.60666887 52.0930631,7.28349435 51.2373987,7.28349435 M51.2373987,4.04603978 C50.2564947,4.04603978 49.4663921,4.81709641 49.4663921,5.76432432 C49.4663921,6.71974625 50.2564947,7.49080288 51.2373987,7.49080288 C52.2132595,7.49080288 53,6.71974625 53,5.76432432 C53,4.81709641 52.2132595,4.04603978 51.2373987,4.04603978 M51.1914215,5.65550783 L50.8215862,5.65550783 L50.8215862,4.97458534 L51.385585,4.97458534 C51.6310211,4.97458534 51.8991517,5.010639 51.8991517,5.30808168 C51.8991517,5.7005749 51.4687979,5.65550783 51.1914215,5.65550783 M52.1437473,5.31299808 C52.1437473,5.15075662 52.0697802,4.97950175 51.9218461,4.89838102 C51.773912,4.81234388 51.6074862,4.80333047 51.4410603,4.80333047 L50.5803527,4.80333047 L50.5803527,6.72892354 L50.8215862,6.72892354 L50.8215862,5.84069253 L51.2653885,5.84069253 L51.8293873,6.72892354 L52.1168502,6.72892354 L51.5200705,5.84069253 C51.871414,5.83167911 52.1437473,5.69156149 52.1437473,5.31299808"></path>
            </g>
        </g>
    </g>
</svg>