<?xml version="1.0" encoding="UTF-8"?>
<svg width="68px" height="39px" viewBox="0 0 68 39" version="1.1" xmlns="http://www.w3.org/2000/svg" xmlns:xlink="http://www.w3.org/1999/xlink">
    <!-- Generator: Sketch 52.2 (67145) - http://www.bohemiancoding.com/sketch -->
    <title>psa-groupe</title>
    <desc>Created with Sketch.</desc>
    <g id="Mad/Studio-Website" stroke="none" stroke-width="1" fill="none" fill-rule="evenodd">
        <g id="SVG" transform="translate(-287.000000, -692.000000)" fill="#FFFFFF" fill-rule="nonzero">
            <g id="psa-groupe" transform="translate(287.000000, 692.000000)">
                <path d="M56.9639236,0.893574624 C56.8619236,0.683923809 56.656305,0.57992381 56.4506857,0.57992381 L52.3868764,0.57992381 C52.1812572,0.57992381 51.9756379,0.683923809 51.8736379,0.893574624 L44.7255428,14.7387809 C44.6235428,13.5270984 43.9030665,12.3187175 42.9267807,11.5808127 C41.3320192,10.4219556 38.5553522,9.63287619 35.4176379,9.3704 C33.6188764,9.21192381 28.3229715,8.9477968 26.6764,8.37001905 C25.4426857,7.89624129 24.8258285,7.2111619 24.8258285,6.21243177 C24.8258285,3.4737651 29.864305,3.26411428 31.5626857,3.26411428 C35.2638285,3.26411428 38.1441143,4.05319367 40.5613522,5.31605081 C40.8171621,5.47287619 41.1264,5.36887619 41.2802093,5.1064 L42.2581143,3.2096381 C42.4119236,2.89598729 42.3601143,2.52620953 42.0006857,2.31490796 C39.1722093,0.683923809 35.830495,0.000495238095 31.9221143,0.000495238095 C28.9916379,0.000495238095 26.1631621,0.421447619 23.8479236,1.84113014 C23.386495,2.10525715 23.0270665,2.42220952 22.6660192,2.73586034 C21.6379236,1.31617775 19.4781143,0.57992381 17.266495,0.57992381 L1.22335236,0.57992381 C0.86392379,0.57992381 0.606495218,0.8424 0.606495218,1.15770156 L0.606495218,22.0039238 C0.606495218,22.3720508 0.86392379,22.634527 1.22335236,22.634527 L3.6405905,22.634527 C3.9482095,22.634527 4.20725715,22.3720508 4.20725715,22.0039238 L4.20725715,4.42297143 C4.20725715,4.10601905 4.46306647,3.84189205 4.77230497,3.84189205 L16.3420192,3.84189205 C19.2206857,3.84189205 20.7118285,5.05357462 20.7118285,7.52811429 C20.7118285,9.79135238 19.324305,10.9485587 16.5476379,10.9485587 L8.11401925,10.9485587 L6.41725715,14.2121778 L16.4958285,14.2121778 C19.0668764,14.2121778 21.0210665,13.6344 22.3584,12.4771937 C22.8214478,12.0545904 23.1808764,11.5808127 23.488495,11.0542095 C24.9278285,11.7376381 27.3968764,12.2642413 30.9442093,12.4771937 C34.9562093,12.738019 37.4236379,13.002146 38.3497335,13.2646223 C40.098305,13.7384 40.9725907,14.6331301 40.9725907,16.0561143 C40.9725907,19.4253841 35.830495,19.9503365 33.1558285,19.9503365 C29.5048764,19.9503365 25.9057335,19.2140825 22.8716379,17.1604952 C22.5624,16.9508445 22.3065907,17.0020191 22.1527807,17.266146 L21.0728764,19.3180825 C20.8672572,19.6878604 21.0210665,19.9503365 21.2266857,20.1088127 C24.9812572,22.5833524 29.3008764,23.1611302 33.3614478,23.1611302 C36.086305,23.1611302 39.9946857,22.4248762 41.2802093,21.4773206 L40.9725907,22.0550985 C40.8705907,22.2664 40.9725907,22.634527 41.3838285,22.634527 L44.212305,22.634527 C44.4179236,22.634527 44.6235428,22.4760508 44.7255428,22.3192254 L53.8278285,4.68544762 C53.9298285,4.47414606 54.0318285,4.36849524 54.2908764,4.36849524 L54.598495,4.36849524 C54.8559236,4.36849524 54.9579236,4.47414606 55.0615428,4.68544762 L59.7405907,13.7384 C59.9462093,14.1593524 59.7924,14.4234794 59.3811621,14.4234794 L51.6680192,14.4234794 L49.9712572,17.6870985 L61.4373522,17.6870985 C61.6429715,17.6870985 61.8502093,17.7910984 61.9522093,18.0024 L64.1120192,22.3192254 C64.2140192,22.4760508 64.4196379,22.634527 64.6252572,22.634527 L67.4537335,22.634527 C67.9167807,22.634527 67.9167807,22.2135747 67.8131621,21.9510984 L56.9639236,0.893574624 Z M56.1414478,38.6373206 L51.9756379,38.6373206 L51.9756379,34.5846222 L55.9876379,34.5846222 L55.9876379,35.1640508 L52.644305,35.1640508 L52.644305,36.2156063 L55.5245907,36.2156063 L55.5245907,36.8478604 L52.644305,36.8478604 L52.644305,38.0595429 L56.1414478,38.0595429 L56.1414478,38.6373206 Z M47.4002093,36.4797333 C47.9134478,36.4797333 48.1708764,36.2684318 48.1708764,35.8491301 C48.1708764,35.3753524 47.9134478,35.1640508 47.3484,35.1640508 L44.9829715,35.1640508 L44.9829715,36.4797333 L47.4002093,36.4797333 Z M47.5022093,34.5846222 C47.9134478,34.5846222 48.2226857,34.690273 48.4801143,34.9015746 C48.7359236,35.1640508 48.8395428,35.426527 48.8395428,35.8491301 C48.8395428,36.2684318 48.7359236,36.5325587 48.4801143,36.7950349 C48.2226857,37.0063366 47.8616379,37.1103365 47.4002093,37.1103365 L44.9829715,37.1103365 L44.9829715,38.6373206 L44.3661143,38.6373206 L44.3661143,34.5846222 L47.5022093,34.5846222 Z M40.9725907,37.3216381 C40.9725907,37.7425905 40.7669715,38.1107175 40.3541143,38.3748444 C39.944495,38.6373206 39.3778285,38.7957968 38.7107807,38.7957968 C38.040495,38.7957968 37.4754478,38.6373206 37.0642093,38.3748444 C36.6529715,38.1107175 36.4473522,37.7425905 36.4473522,37.3216381 L36.4473522,34.5846222 L37.1144,34.5846222 L37.1144,37.1648127 C37.1144,37.4801143 37.2180192,37.7425905 37.5272572,37.9010667 C37.7846857,38.0595429 38.1959236,38.1635428 38.7107807,38.1635428 C39.2240192,38.1635428 39.6352572,38.0595429 39.8926857,37.9010667 C40.1501143,37.7425905 40.3039236,37.4801143 40.3039236,37.1648127 L40.3039236,34.5846222 L40.9725907,34.5846222 L40.9725907,37.3216381 Z M32.8482093,36.5837334 C32.8482093,36.1099556 32.6425907,35.7418286 32.2313522,35.426527 C31.870305,35.1640508 31.4590665,35.0584 30.9442093,35.0584 C30.4309715,35.0584 29.9679236,35.2168762 29.608495,35.4793524 C29.2474478,35.794654 29.0936379,36.1627809 29.0936379,36.5837334 C29.0936379,37.0575111 29.2474478,37.4272889 29.608495,37.7425905 C29.9161143,38.0050667 30.3791621,38.1635428 30.9442093,38.1635428 C31.5108764,38.1635428 31.9739236,38.0050667 32.3333522,37.7425905 C32.6425907,37.4272889 32.8482093,37.0575111 32.8482093,36.5837334 Z M33.5168764,36.5837334 C33.5168764,37.2688127 33.2578285,37.7954159 32.6927807,38.2163682 C32.2313522,38.5844953 31.6646857,38.7957968 30.9442093,38.7957968 C30.2771621,38.7957968 29.660305,38.5844953 29.1972572,38.2163682 C28.6824,37.7954159 28.3747807,37.2688127 28.3747807,36.5837334 C28.3747807,35.9514794 28.6824,35.426527 29.1972572,35.0055747 C29.710495,34.6357968 30.2771621,34.426146 30.9442093,34.426146 C31.6646857,34.426146 32.2313522,34.6357968 32.6927807,35.0055747 C33.2578285,35.426527 33.5168764,35.9514794 33.5168764,36.5837334 Z M24.0033522,36.4797333 C24.5182093,36.4797333 24.7740192,36.2684318 24.7740192,35.8491301 C24.7740192,35.3753524 24.5182093,35.1640508 23.9515428,35.1640508 L21.6379236,35.1640508 L21.6379236,36.4797333 L24.0033522,36.4797333 Z M25.494495,38.6373206 L24.7222093,38.6373206 L23.642305,37.1103365 L21.6379236,37.1103365 L21.6379236,38.6373206 L20.9708764,38.6373206 L20.9708764,34.5846222 L24.1069715,34.5846222 C24.5182093,34.5846222 24.8776379,34.690273 25.0832572,34.9015746 C25.3406857,35.1640508 25.4426857,35.4793524 25.4426857,35.8491301 C25.4426857,36.2156063 25.3406857,36.4797333 25.1868764,36.6910349 C24.9812572,36.9006857 24.7222093,37.0063366 24.4145907,37.0575111 L25.494495,38.6373206 Z M17.7311621,36.5325587 C17.7311621,37.2159873 17.5239236,37.7425905 17.0608764,38.1635428 C16.5978285,38.5844953 15.9809715,38.7957968 15.210305,38.7957968 C14.4914478,38.7957968 13.9247807,38.5844953 13.4617335,38.2163682 C12.8966857,37.7954159 12.6392572,37.2688127 12.6392572,36.5837334 C12.6392572,35.9514794 12.8966857,35.426527 13.4617335,35.0055747 C13.9247807,34.6357968 14.5416379,34.426146 15.2621143,34.426146 C16.1347807,34.426146 16.8568764,34.7430984 17.4219236,35.426527 L16.8050665,35.7418286 C16.3922093,35.2680508 15.8789715,35.0584 15.210305,35.0584 C14.6970665,35.0584 14.2842093,35.1640508 13.9247807,35.426527 C13.5135428,35.7418286 13.3079236,36.1099556 13.3079236,36.5837334 C13.3079236,37.0575111 13.5135428,37.4272889 13.8211621,37.7425905 C14.1822093,38.0050667 14.6452572,38.1635428 15.210305,38.1635428 C16.0845907,38.1635428 16.6512572,37.7954159 16.9070665,37.1103365 L15.0548764,37.1103365 L15.0548764,36.4797333 L17.7311621,36.4797333 L17.7311621,36.5325587 Z M12.7930665,29.5843683 L56.1414478,29.5843683 L56.1414478,29.0032889 L12.7930665,29.0032889 L12.7930665,29.5843683 Z"></path>
            </g>
        </g>
    </g>
</svg>