<?xml version="1.0" encoding="UTF-8"?>
<svg width="118px" height="24px" viewBox="0 0 118 24" version="1.1" xmlns="http://www.w3.org/2000/svg" xmlns:xlink="http://www.w3.org/1999/xlink">
    <!-- Generator: Sketch 52.2 (67145) - http://www.bohemiancoding.com/sketch -->
    <title>societe-generale</title>
    <desc>Created with Sketch.</desc>
    <g id="Mad/Studio-Website" stroke="none" stroke-width="1" fill="none" fill-rule="evenodd">
        <g id="SVG" transform="translate(-476.000000, -601.000000)" fill="#FFFFFF">
            <g id="societe-generale" transform="translate(475.000000, 601.000000)">
                <path d="M23.8451647,23.9041543 L1.05509578,23.9041543 L1.05509578,1.06657523 L23.8451647,1.06657523 L23.8451647,23.9041543 Z M19.9072307,12.1767338 L4.8534406,12.1767338 L4.8534406,13.4095911 L19.9072307,13.4095911 L19.9072307,12.1767338 Z M39.4213032,3.39454231 C38.1849799,2.8732907 36.8627286,2.53350502 35.6856026,2.53350502 C33.9642876,2.53350502 33.1050641,2.90014025 33.1050641,3.56026884 C33.1050641,5.44992165 40.7807498,3.93245915 40.7807498,7.96544672 C40.7807498,9.63474805 39.2045886,10.9235264 36.0445651,10.9235264 C34.1714589,10.9235264 32.7069595,10.5393001 31.0247961,9.63474805 L31.7198115,8.13024741 C33.1938504,8.94499237 34.5695634,9.30607252 36.0560171,9.30607252 C37.9291234,9.30607252 38.9334628,8.76908153 38.9334628,7.96544672 C38.9334628,5.89803138 31.254877,7.44141757 31.254877,3.66211196 C31.254877,2.03169619 32.8196185,0.910496014 35.6483693,0.910496014 C37.3400761,0.910496014 38.7644744,1.27990879 40.123959,1.95670261 L39.4213032,3.39454231 Z M47.9780245,10.9744295 C44.9115542,10.9744295 42.3701672,8.94404801 42.3701672,5.91097471 C42.3701672,2.91308358 44.9115542,0.843816545 47.9780245,0.843816545 C51.0607231,0.843816545 53.5629398,2.91308358 53.5629398,5.91097471 C53.5629398,8.94497385 51.0607231,10.9744295 47.9780245,10.9744295 Z M47.9780245,2.47793571 C45.7449965,2.47793571 44.2194008,3.98058465 44.2194008,5.91097471 C44.2194008,7.88673125 45.6791237,9.35604972 47.9780245,9.35604972 C50.2625959,9.35604972 51.7137251,7.87284355 51.7137251,5.91097471 C51.7137251,3.98058465 50.2625959,2.47793571 47.9780245,2.47793571 Z M60.8874875,10.9633193 C57.6654086,10.9633193 55.2385796,8.93571539 55.2385796,5.89893871 C55.2385796,2.91308358 57.7035914,0.843816545 60.8874875,0.843816545 C62.7863655,0.843816545 64.1467997,1.3798817 65.366866,2.27332362 L64.416976,3.67598114 C63.5291129,2.99918731 62.4188092,2.50478526 60.9390405,2.50478526 C58.5885868,2.50478526 57.1279143,3.98058465 57.1279143,5.89801286 C57.1279143,7.87284355 58.6029065,9.30605401 60.9629036,9.30605401 C62.438855,9.30605401 63.6093149,8.83294642 64.4924016,8.1543009 L65.4452069,9.55973596 C64.2231749,10.4531779 62.7863655,10.9633193 60.8874875,10.9633193 Z M67.3897695,10.7068784 L67.3897695,1.13732842 L69.1788564,1.13732842 L69.1788564,10.7068784 L67.3897695,10.7068784 Z M71.8196841,10.7068784 L71.8196841,1.13732842 L80.5847067,1.13732842 L80.5847067,2.71960017 L73.6068623,2.71960017 L73.6068623,5.04440086 L79.0295123,5.04440086 L79.0295123,6.62296922 L73.6068623,6.62296922 L73.6068623,9.1246066 L80.8930753,9.1246066 L80.8930753,10.7068784 L71.8196841,10.7068784 Z M87.5518871,2.70941586 L87.5518871,10.7068784 L85.7713845,10.7068784 L85.7713845,2.70941586 L81.8466497,2.70941586 L81.8466497,1.13732842 L91.4746942,1.13732842 L91.4746942,2.70941586 L87.5518871,2.70941586 Z M92.9087593,10.7068784 L92.9087593,1.13732842 L101.673772,1.13732842 L101.673772,2.71960017 L94.6959375,2.71960017 L94.6959375,5.04440086 L100.123354,5.04440086 L100.123354,6.62296922 L94.6959375,6.62296922 L94.6959375,9.1246066 L101.981182,9.1246066 L101.981182,10.7068784 L92.9087593,10.7068784 Z M36.5294618,22.0308427 C37.5080199,22.0308427 38.5171262,21.8114171 39.277061,21.4540403 L39.277061,18.6727973 L41.0117841,18.6727973 L41.0117841,22.3863678 C39.7906922,23.2020386 38.111387,23.700144 36.4530866,23.700144 C33.2357841,23.700144 30.8089551,21.6743918 30.8089551,18.6357634 C30.8089551,15.6508341 33.2730174,13.5861963 36.4530866,13.5861963 C38.3166495,13.5861963 39.714317,14.1083738 40.9353424,15.0018157 L39.9873515,16.4044732 C39.0966302,15.7286052 37.980591,15.265682 36.502731,15.265682 C34.1541954,15.2184638 32.6954221,16.7248161 32.6954221,18.6357634 C32.6954221,20.6152233 34.1713734,22.0308427 36.5294618,22.0308427 Z M43.3621999,23.4436845 L43.3621999,13.8787638 L52.1291216,13.8787638 L52.1291216,15.458258 L45.1436521,15.458258 L45.1436521,17.7821329 L50.5739368,17.7821329 L50.5739368,19.3625529 L45.1436521,19.3625529 L45.1436521,21.8641903 L52.4346224,21.8641903 L52.4346224,23.4436845 L43.3621999,23.4436845 Z M55.9354144,23.4436845 L54.1892868,23.4436845 L54.1892868,13.8787638 L56.0108401,13.8787638 L62.2869781,21.0874051 L62.3299374,21.0744432 C62.2249227,19.2616357 62.2106029,17.7950947 62.2106029,16.375772 L62.2106029,13.8787638 L63.9548313,13.8787638 L63.9548313,23.4436845 L62.1485475,23.4436845 L55.8943638,16.2359691 L55.8666834,16.2498568 C55.9354144,17.6673279 55.9354144,20.1411899 55.9354144,20.9457505 L55.9354144,23.4436845 Z M66.4676264,23.4436845 L66.4676264,13.8787638 L75.2316898,13.8787638 L75.2316898,15.458258 L68.2490786,15.458258 L68.2490786,17.7821329 L73.6784137,17.7821329 L73.6784137,19.3625529 L68.2490786,19.3625529 L68.2490786,21.8641903 L75.5429262,21.8641903 L75.5429262,23.4436845 L66.4676264,23.4436845 Z M79.212735,19.9236159 L79.212735,23.4436845 L77.4274655,23.4436845 L77.4274655,13.8787638 L83.6129086,13.8787638 C85.6654961,13.8787638 86.9381411,15.1305084 86.9381411,16.9275765 C86.9381411,18.6357634 85.6874506,19.6551204 84.1771337,19.8726944 L87.0421207,23.4436845 L84.8062725,23.4436845 L82.088272,19.9236159 L79.212735,19.9236159 Z M85.1690525,16.9294282 C85.1690525,16.0211727 84.6153392,15.4591839 83.6129086,15.4591839 L79.212735,15.4591839 L79.212735,18.3311599 L83.4219753,18.3311599 C84.5380049,18.3311599 85.1690525,17.7562092 85.1690525,16.9294282 Z M89.5958239,23.4436845 L87.66353,23.4436845 L92.352976,13.8787638 L94.2279814,13.8787638 L98.9231534,23.4436845 L96.9994532,23.4436845 L95.8910582,21.1207355 L90.699452,21.1207355 L89.5958239,23.4436845 Z M95.1492604,19.567165 L93.3019354,15.6915714 L91.4421993,19.567165 L95.1492604,19.567165 Z M100.236526,23.4436845 L100.236526,13.8787638 L102.018937,13.8787638 L102.018937,21.8641903 L108.445917,21.8641903 L108.445917,23.4436845 L100.236526,23.4436845 Z M109.652623,23.4436845 L109.652623,13.8787638 L118.422412,13.8787638 L118.422412,15.458258 L111.437892,15.458258 L111.437892,17.7821329 L116.867228,17.7821329 L116.867228,19.3625529 L111.437892,19.3625529 L111.437892,21.8641903 L118.727923,21.8641903 L118.727923,23.4436845 L109.652623,23.4436845 Z"></path>
            </g>
        </g>
    </g>
</svg>