<?xml version="1.0" encoding="UTF-8"?>
<svg width="92px" height="46px" viewBox="0 0 92 46" version="1.1" xmlns="http://www.w3.org/2000/svg" xmlns:xlink="http://www.w3.org/1999/xlink">
    <!-- Generator: Sketch 52.2 (67145) - http://www.bohemiancoding.com/sketch -->
    <title>thalassa</title>
    <desc>Created with Sketch.</desc>
    <g id="Mad/Studio-Website" stroke="none" stroke-width="1" fill="none" fill-rule="evenodd">
        <g id="SVG" transform="translate(-494.000000, -159.000000)" fill="#FFFFFF" fill-rule="nonzero">
            <g id="thalassa" transform="translate(494.000000, 159.000000)">
                <path d="M47.8313816,32.0559137 C56.8805618,33.9895814 64.8093676,33.3450255 73.5569085,29.7784828 C73.7292739,29.7355124 73.7723647,29.8214532 73.6,29.9503644 C65.8435595,35.6654267 57.4838405,36.9115682 47.9175643,35.794338 C38.5667446,34.7200782 29.8622949,32.4426472 20.468384,33.8606702 C20.468384,33.8606702 19.9943793,29.0479861 29.2159249,29.0479861 C34.6454331,29.0479861 37.1878219,29.7784828 47.8313816,32.0559137 Z M30.120843,36.6967162 C26.3718969,36.9545386 25.9840749,39.1460287 25.9840749,39.1460287 C33.3957844,38.9311767 40.7644026,40.6929628 47.9175643,41.2945483 C55.0707258,41.8961338 61.3620607,40.9078148 67.7826693,37.3412721 C67.9550347,37.2553313 67.9119438,37.1264202 67.6964869,37.1693905 C61.1035127,39.4897917 54.2950817,39.8765253 47.9606556,38.9741471 C38.7822012,37.6850353 32.9648711,36.4818642 30.120843,36.6967162 Z M35.5934425,42.4977193 C33.2665104,42.5406897 32.9648711,43.9157423 32.9648711,43.9157423 C37.1878219,44.1735647 40.03185,45.5915877 44.5133488,45.8923804 C48.9517563,46.2361437 53.6056205,45.8064398 57.6562058,43.872772 C57.7423886,43.8298016 57.7423886,43.7438607 57.6131145,43.7868312 C53.4763464,44.9900022 49.3395783,44.4313871 45.4182667,44.0016832 C39.6871193,43.3571272 37.3601872,42.4547489 35.5934425,42.4977193 Z M12.1948477,0.601585511 L0.560187348,0.601585511 C0.258548009,0.601585511 0,0.816437477 0,1.07425984 C0,1.11723024 0,1.24614141 0,1.37505259 C0,1.76178614 0.172365339,2.0196085 0.560187348,2.0196085 L5.38641684,2.0196085 L5.38641684,14.2661707 C5.38641684,14.5669634 5.64496485,14.738845 5.9466042,14.738845 L6.80843087,14.738845 C7.06697892,14.738845 7.32552692,14.5669634 7.36861824,14.2661707 L7.36861824,2.0196085 L12.1948477,2.0196085 C12.4533958,2.0196085 12.7119437,1.84772693 12.7550351,1.54693417 C12.7550351,1.50396378 12.7550351,1.37505259 12.7550351,1.24614141 C12.7550351,0.773467086 12.4964871,0.601585511 12.1948477,0.601585511 Z M20.597658,4.08218739 C19.1325527,4.08218739 17.9690866,4.38298015 17.0210773,4.81268409 L17.0210773,1.03128945 C17.0210773,0.687526303 16.7194379,0.558615117 16.4608898,0.558615117 L15.5990631,0.558615117 C15.3405151,0.558615117 15.0388758,0.730496694 15.0388758,1.03128945 L15.0388758,14.2661707 C15.0388758,14.5669634 15.2974238,14.738845 15.5990631,14.738845 C15.6852459,14.738845 16.4177985,14.738845 16.5470725,14.738845 C16.8056206,14.738845 17.0641686,14.5239931 17.0641686,14.2661707 L17.0641686,6.44555903 C17.0641686,6.2307071 17.1503513,6.1017959 17.3658079,5.92991434 C17.9690866,5.45724 19.5634659,5.32832882 20.33911,5.37129921 C22.6660421,5.37129921 23.6140515,6.40258863 23.6140515,7.51981893 L23.6140515,14.3091411 C23.6140515,14.6099338 23.8725994,14.7818154 24.1742387,14.7818154 L25.1222482,14.7818154 C25.3377048,14.7818154 25.6393442,14.6099338 25.6393442,14.3091411 L25.6393442,8.03546365 C25.5531615,4.98456567 23.053864,4.12515779 20.597658,4.08218739 Z M30.1639344,4.7267433 C31.1119437,4.38298015 33.2665104,4.08218739 34.3868851,4.08218739 C36.9723652,4.08218739 38.6098359,4.89862488 38.6098359,7.00417414 L38.6098359,14.2661707 C38.6098359,14.5239931 38.4374705,14.738845 38.1358313,14.738845 L37.4032786,14.738845 C37.0154566,14.738845 36.8430912,14.5669634 36.8430912,14.1802299 C35.5934425,14.6099338 34.4299764,14.9107267 33.094145,14.9107267 C30.4224823,14.9107267 28.5264636,13.9224075 28.5264636,12.0746807 C28.5264636,10.0550721 30.8533957,9.41051625 32.6201404,8.89487149 C33.3957844,8.68001958 35.5072598,8.12140438 36.1967211,7.90655244 C36.4552691,7.82061165 36.5845431,7.64873006 36.5845431,7.30496694 C36.5845431,7.21902614 36.5845431,7.09011494 36.5845431,6.96120375 C36.5845431,5.71506236 35.5072598,5.37129921 33.9990631,5.37129921 C32.5770491,5.37129921 31.4566744,5.67209197 30.250117,6.2307071 C30.0346603,6.3596183 29.6037469,6.48852943 29.4313816,6.05882551 C29.345199,5.88694394 29.3882903,5.58615119 29.3882903,5.50021039 C29.4313816,5.07050645 29.6899296,4.94159528 30.1639344,4.7267433 Z M36.6276345,9.15269391 C36.6276345,9.15269391 34.5161592,9.711309 33.9128804,9.84022016 C32.706323,10.1410129 30.5948477,10.6566577 30.5948477,12.0746807 C30.5948477,13.1489405 31.930679,13.6645852 33.2665104,13.6645852 C34.0421544,13.6645852 35.6365339,13.5786444 36.2829039,13.1489405 C36.4983605,12.9770589 36.5845431,12.8481477 36.5845431,12.6332957 L36.5845431,9.15269391 L36.6276345,9.15269391 Z M49.5550349,4.7267433 C50.5030443,4.38298015 52.657611,4.08218739 53.7779857,4.08218739 C56.3634658,4.08218739 58.0009366,4.89862488 58.0009366,7.00417414 L58.0009366,14.2661707 C58.0009366,14.5239931 57.8285713,14.738845 57.5269318,14.738845 L56.7943792,14.738845 C56.4065571,14.738845 56.2341918,14.5669634 56.2341918,14.1802299 C54.9845431,14.6099338 53.8210771,14.9107267 52.4852457,14.9107267 C49.8135829,14.9107267 47.9175643,13.9224075 47.9175643,12.0746807 C47.9175643,10.0550721 50.2444963,9.41051625 52.011241,8.89487149 C52.7868851,8.68001958 54.8983604,8.12140438 55.5878219,7.90655244 C55.8463698,7.82061165 55.9756438,7.64873006 55.9756438,7.30496694 C55.9756438,7.21902614 55.9756438,7.09011494 55.9756438,6.96120375 C55.9756438,5.71506236 54.8983604,5.37129921 53.3901638,5.37129921 C51.9681496,5.37129921 50.847775,5.67209197 49.6412176,6.2307071 C49.425761,6.3596183 48.9948477,6.48852943 48.8224822,6.05882551 C48.7362995,5.88694394 48.7793909,5.58615119 48.7793909,5.50021039 C48.8224822,5.07050645 49.037939,4.94159528 49.5550349,4.7267433 Z M55.9756438,9.15269391 C55.9756438,9.15269391 53.8641684,9.711309 53.2608897,9.84022016 C52.0543323,10.1410129 49.9428569,10.6566577 49.9428569,12.0746807 C49.9428569,13.1489405 51.2786884,13.6645852 52.6145197,13.6645852 C53.3901638,13.6645852 54.9845431,13.5786444 55.6309132,13.1489405 C55.8463698,12.9770589 55.9325525,12.8481477 55.9325525,12.6332957 L55.9325525,9.15269391 L55.9756438,9.15269391 Z M83.5540982,4.7267433 C84.5021076,4.38298015 86.6566744,4.08218739 87.7770487,4.08218739 C90.3625284,4.08218739 92,4.89862488 92,7.00417414 L92,14.2661707 C92,14.5239931 91.8276342,14.738845 91.5259948,14.738845 L90.8365335,14.738845 C90.4487117,14.738845 90.2763459,14.5669634 90.2763459,14.1802299 C89.026697,14.6099338 87.8632317,14.9107267 86.5273999,14.9107267 C83.8557375,14.9107267 81.9597186,13.9224075 81.9597186,12.0746807 C81.9597186,10.0550721 84.2866507,9.41051625 86.0533958,8.89487149 C86.8290392,8.68001958 88.9405146,8.12140438 89.6299759,7.90655244 C89.8885241,7.82061165 90.0177986,7.64873006 90.0177986,7.30496694 C90.0177986,7.21902614 90.0177986,7.09011494 90.0177986,6.96120375 C90.0177986,5.71506236 88.9405146,5.37129921 87.4323185,5.37129921 C86.0103043,5.37129921 84.8899293,5.67209197 83.6833721,6.2307071 C83.4679151,6.3596183 83.0370019,6.48852943 82.8646365,6.05882551 C82.7784541,5.88694394 82.8215457,5.58615119 82.8215457,5.50021039 C82.8215457,5.07050645 83.0800934,4.94159528 83.5540982,4.7267433 Z M90.0177986,9.15269391 C90.0177986,9.15269391 87.9063225,9.711309 87.3030439,9.84022016 C86.0964866,10.1410129 83.9850114,10.6566577 83.9850114,12.0746807 C83.9850114,13.1489405 85.3208426,13.6645852 86.6566744,13.6645852 C87.4323185,13.6645852 89.026697,13.5786444 89.673068,13.1489405 C89.8885241,12.9770589 89.9747065,12.8481477 89.9747065,12.6332957 L89.9747065,9.15269391 L90.0177986,9.15269391 Z M44.1255267,0 L43.2206087,0 C42.9189694,0 42.6604214,0.171881575 42.6604214,0.472674333 L42.6604214,14.3091411 C42.6604214,14.6099338 42.9189694,14.7818154 43.2206087,14.7818154 L44.1255267,14.7818154 C44.3840748,14.7818154 44.6857141,14.6529042 44.6857141,14.3091411 L44.6857141,0.472674333 C44.6857141,0.128911181 44.3409834,0 44.1255267,0 Z M62.2238874,13.0629997 C61.534426,12.8051773 61.3189694,13.0629997 61.3189694,13.3637924 L61.3189694,13.7075556 C61.3189694,14.0513187 61.4482433,14.1372595 61.7498827,14.2661707 C62.6117094,14.6958747 63.990632,14.8677562 64.9386415,14.8677562 C67.3948475,14.8677562 69.1615919,13.750526 69.1615919,11.9457695 C69.1615919,10.4418057 68.0843086,9.84022016 66.9208428,9.23863466 C65.8435595,8.68001958 65.5850116,8.55110833 64.6800937,8.07843405 C63.7751754,7.60575966 63.3011707,7.39090773 63.3011707,6.66041102 C63.3011707,5.62912158 64.5077282,5.28535843 65.5419202,5.28535843 C66.5330211,5.28535843 67.3086646,5.54318079 68.0843086,5.88694394 C68.6444963,6.1017959 68.9030442,5.80100315 68.9030442,5.54318079 L68.9030442,5.19941764 C68.9030442,4.89862488 68.6444963,4.7267433 68.3859479,4.55486173 C67.567213,4.16812819 66.1021072,4.039217 65.5850116,4.039217 C63.4304447,4.039217 61.534426,4.89862488 61.534426,6.91823341 C61.534426,8.29328597 62.568618,8.89487149 63.8182667,9.53942741 C64.4215453,9.88319049 65.1540984,10.2269537 65.6281025,10.4847761 C66.576112,11.0004208 67.1362998,11.2582432 67.1362998,12.0746807 C67.1362998,13.1919109 65.8435595,13.5786444 64.6800937,13.5786444 C63.7320841,13.6645852 63.1288053,13.4497332 62.2238874,13.0629997 Z M72.6519906,13.0629997 C71.9625289,12.8051773 71.7470726,13.0629997 71.7470726,13.3637924 L71.7470726,13.7075556 C71.7470726,14.0513187 71.8763465,14.1372595 72.1779858,14.2661707 C73.0398122,14.6958747 74.418735,14.8677562 75.3667444,14.8677562 C77.8229505,14.8677562 79.5896955,13.750526 79.5896955,11.9457695 C79.5896955,10.4418057 78.5124121,9.84022016 77.3489457,9.23863466 C76.2716623,8.68001958 76.0131146,8.55110833 75.1081966,8.07843405 C74.2032786,7.60575966 73.7292739,7.39090773 73.7292739,6.66041102 C73.7292739,5.62912158 74.9358312,5.28535843 75.970023,5.28535843 C76.9611241,5.28535843 77.7367681,5.54318079 78.5124121,5.88694394 C79.0725993,6.1017959 79.331147,5.80100315 79.331147,5.54318079 L79.331147,5.19941764 C79.331147,4.89862488 79.0725993,4.7267433 78.8140514,4.55486173 C77.9953159,4.16812819 76.5302102,4.039217 76.0131146,4.039217 C73.8585478,4.039217 71.9625289,4.89862488 71.9625289,6.91823341 C71.9625289,8.29328597 72.9967208,8.89487149 74.2463695,9.53942741 C74.8496481,9.88319049 75.5822013,10.2269537 76.0562061,10.4847761 C77.0042149,11.0004208 77.5644026,11.2582432 77.5644026,12.0746807 C77.5644026,13.1919109 76.2716623,13.5786444 75.1081966,13.5786444 C74.1601871,13.6645852 73.5569085,13.4497332 72.6519906,13.0629997 Z M28.0524589,22.2586639 C28.4402809,22.3875752 28.7850115,22.4305455 29.474473,22.4735159 C30.3362997,22.5164863 30.767213,22.6024271 30.767213,22.9891607 C30.767213,23.4188646 30.0777517,23.5907462 29.5175643,23.5907462 C28.8281029,23.5907462 28.3110069,23.4188646 27.7508195,23.0751014 L27.4060889,23.5907462 C28.0093676,24.0204501 28.6126463,24.2353021 29.5606556,24.2353021 C30.6810303,24.2353021 31.4997657,23.8485685 31.4997657,22.9891607 C31.4997657,21.9578712 30.4655737,21.9149008 29.5175643,21.8719304 C29.0004683,21.82896 28.6988289,21.82896 28.4833722,21.7430192 C28.2679156,21.6570784 28.2248243,21.5711376 28.2248243,21.3992561 C28.2248243,21.0554929 28.6557376,20.9265817 29.345199,20.9265817 C29.9915689,20.9265817 30.379391,21.0554929 30.896487,21.3133152 L31.2843091,20.840641 C30.6810303,20.4968777 30.2070257,20.3249962 29.3882903,20.3249962 C28.3110069,20.3249962 27.5353629,20.7117297 27.5353629,21.4851968 C27.4922716,21.82896 27.6646368,22.1297527 28.0524589,22.2586639 Z M53.0885243,22.2586639 C53.4763464,22.3875752 53.8210771,22.4305455 54.5105385,22.4735159 C55.3723651,22.5164863 55.8032785,22.6024271 55.8032785,22.9891607 C55.8032785,23.4188646 55.1138171,23.5907462 54.5536298,23.5907462 C53.8641684,23.5907462 53.3470724,23.4188646 52.7868851,23.0751014 L52.4421544,23.5907462 C53.045433,24.0204501 53.6487118,24.2353021 54.5967211,24.2353021 C55.7170958,24.2353021 56.5358311,23.8485685 56.5358311,22.9891607 C56.5358311,21.9578712 55.5016391,21.9149008 54.5536298,21.8719304 C54.0365338,21.82896 53.7348944,21.82896 53.5194378,21.7430192 C53.3039811,21.6570784 53.2608897,21.5711376 53.2608897,21.3992561 C53.2608897,21.0554929 53.6918031,20.9265817 54.3812644,20.9265817 C55.0276344,20.9265817 55.4154564,21.0554929 55.9325525,21.3133152 L56.3203745,20.840641 C55.7170958,20.4968777 55.2430911,20.3249962 54.4243558,20.3249962 C53.3470724,20.3249962 52.5714284,20.7117297 52.5714284,21.4851968 C52.5714284,21.82896 52.7437937,22.1297527 53.0885243,22.2586639 Z M33.3526931,22.4735159 L35.3779858,22.4735159 L35.3779858,21.8719304 L33.3526931,21.8719304 L33.3526931,21.0554929 L36.2829039,21.0554929 L36.2829039,20.4539074 L32.706323,20.4539074 L32.706323,24.1923317 L36.4121778,24.1923317 L36.4121778,23.5907462 L33.3526931,23.5907462 L33.3526931,22.4735159 Z M41.6262294,24.1063908 L40.8936767,24.1063908 L40.419672,23.2040126 L38.1789226,23.2040126 L37.7049178,24.1063908 L36.9723652,24.1063908 L38.997658,20.3679666 L39.6440279,20.3679666 L41.6262294,24.1063908 Z M39.2992973,21.1414337 L38.4805619,22.6024271 L40.0749413,22.6024271 L39.2992973,21.1414337 Z M66.5330211,24.1063908 L65.8435595,24.1063908 L65.3695547,23.2040126 L63.1288053,23.2040126 L62.6548007,24.1063908 L61.9222479,24.1063908 L63.9475408,20.3679666 L64.5939107,20.3679666 L66.5330211,24.1063908 Z M64.2060889,21.1414337 L63.3873534,22.6024271 L64.981733,22.6024271 L64.2060889,21.1414337 Z M48.2192036,23.5048053 C48.5208429,23.6766869 48.8655736,23.7196573 49.2103043,23.7626277 L49.2103043,24.3642132 C48.6501169,24.3212428 48.2622949,24.2353021 47.7451989,23.9345092 C47.2711942,24.2782725 46.7110069,24.450154 46.1077281,24.450154 C45.2028101,24.450154 44.4702575,23.9345092 44.5133488,23.1610422 C44.5133488,22.5164863 45.0304448,22.0438119 45.9784542,21.82896 C45.8060888,21.5711376 45.7629975,21.3133152 45.7629975,21.0984633 C45.7629975,20.4539074 46.2370022,19.9812331 46.9264635,19.9812331 C47.5297422,19.9812331 48.0468382,20.3679666 48.0468382,21.0554929 C48.0468382,21.614108 47.6590161,22.0008416 46.9695549,22.1727232 C47.2281028,22.5164863 47.4866509,22.8602494 47.8313816,23.1180718 C48.0468382,22.9461902 48.2622949,22.5594567 48.4777515,22.0867823 L49.1241216,22.0867823 C48.7793909,22.6883678 48.4777515,23.2040126 48.2192036,23.5048053 Z M46.2800935,22.3016343 C45.4613581,22.4735159 45.1597188,22.7313382 45.1597188,23.1180718 C45.1597188,23.5907462 45.6337235,23.8055981 46.1939108,23.8055981 C46.5386414,23.8055981 46.8833722,23.7196573 47.2711942,23.5048053 C46.8833722,23.1180718 46.5817328,22.7313382 46.2800935,22.3016343 Z M46.5386414,21.6570784 C46.9695549,21.614108 47.3573768,21.3992561 47.3573768,21.0125225 C47.3573768,20.7117297 47.1850115,20.5398482 46.8833722,20.5398482 C46.5386414,20.5398482 46.3662762,20.7547002 46.3662762,21.0554929 C46.3231848,21.2273745 46.4093675,21.4422265 46.5386414,21.6570784 Z M60.500234,20.410937 C61.146604,20.410937 61.7067913,20.7976706 61.7067913,21.5711376 C61.7067913,22.3016343 61.146604,22.7313382 60.4140513,22.7313382 L58.3456672,22.7313382 L58.3456672,24.1063908 L57.6992972,24.1063908 L57.6992972,20.3679666 L60.500234,20.410937 Z M61.01733,21.5711376 C61.01733,21.1844041 60.8449646,21.0125225 60.3278686,21.0125225 L58.3025759,21.0125225 L58.3025759,22.1297527 L60.4140513,22.1297527 C60.8018733,22.1297527 61.01733,21.9578712 61.01733,21.5711376 Z"></path>
            </g>
        </g>
    </g>
</svg>