<?xml version="1.0" encoding="UTF-8"?>
<svg width="124px" height="22px" viewBox="0 0 124 22" version="1.1" xmlns="http://www.w3.org/2000/svg" xmlns:xlink="http://www.w3.org/1999/xlink">
    <!-- Generator: Sketch 52.2 (67145) - http://www.bohemiancoding.com/sketch -->
    <title>toyota</title>
    <desc>Created with Sketch.</desc>
    <g id="Mad/Studio-Website" stroke="none" stroke-width="1" fill="none" fill-rule="evenodd">
        <g id="SVG" transform="translate(-264.000000, -100.000000)" fill="#FFFFFF" fill-rule="nonzero">
            <g id="toyota" transform="translate(264.000000, 100.000000)">
                <path d="M18.8298177,11 C18.6981109,14.6851777 17.6727809,17.2700592 16.3578376,17.2700592 C14.8849879,17.2700592 13.8589497,14.6851777 13.7279511,11 L13.8589497,11 C14.5960827,11 15.4635063,11.1651185 16.4888363,11.1651185 C17.6727809,11.1651185 17.961686,11.1651185 18.8298177,11 Z M18.5402044,8.41511847 L18.383006,8.41511847 L16.3578376,8.41511847 L14.148563,8.41511847 L13.8589497,8.25 C14.3064695,5.66511847 15.173893,4.125 16.1999311,4.125 C17.3838757,4.125 18.0933928,5.5 18.5402044,8.25 L18.5402044,8.41511847 Z M4.23373495,5.36227787 C4.07653656,5.5 4.07653656,5.5 4.07653656,5.66511847 C4.07653656,7.9471594 7.28423339,9.9544965 12.1233946,10.6971594 L12.2551013,10.8622779 L12.2551013,11.1651185 C12.2551013,15.7573371 13.2811394,18.9471594 15.0428944,20.625 C7.57384664,20.0200592 2.31407356,15.7573371 2.31407356,10.3950592 C2.31407356,8.71721863 2.91879168,6.875 4.23373495,5.36227787 Z M17.5148744,20.625 C19.4083361,18.8101777 20.3026674,15.5929591 20.3026674,10.8622779 L20.4343742,10.6971594 C25.1149208,10.0922186 28.3240338,7.9471594 28.3240338,5.66511847 L28.3240338,5.5 C29.6389771,7.04011847 30.2174955,8.71721863 30.2174955,10.5601777 C30.2174955,15.7573371 24.6681091,20.1851777 17.5148744,20.625 Z M32.5577688,11 C32.5577688,4.7573371 25.404534,0 16.1999311,0 C7.15323474,0 0,4.7573371 0,10.8622779 C0,17.1323371 7.15323474,22 16.3578376,22 C25.2473356,22 32.5577688,17.1323371 32.5577688,11 Z M20.0130542,8.11227787 C19.5662425,4.45523694 17.961686,1.54011847 16.3578376,1.54011847 C14.5960827,1.54011847 13.1225249,4.125 12.5447146,8.11227787 L12.2551013,8.11227787 C8.75708315,7.34221863 6.86362149,6.27005924 6.86362149,4.89505924 C6.86362149,2.91511847 10.9401581,1.375 16.0682244,1.375 C21.3279975,1.375 25.6934392,2.91511847 25.6934392,4.89505924 C25.6934392,6.27005924 23.5110724,7.64505924 20.0130542,8.11227787 Z M48.2060185,6.26998519 L43.5247638,6.26998519 L43.5247638,18.8101037 L40.1584524,18.8101037 L40.1584524,6.26998519 L35.6351042,6.26998519 L35.6351042,3.3830035 L48.2060185,3.3830035 L48.2060185,6.26998519 Z M64.5642102,11.1648963 C64.5642102,15.7578554 61.1978988,19.4148963 56.6738425,19.4148963 C52.4401075,19.4148963 48.9158896,15.7578554 48.9158896,11.3026185 C48.9158896,6.57267771 52.4401075,2.91489634 56.8055492,2.91489634 C61.0392842,2.91489634 64.5642102,6.57267771 64.5642102,11.1648963 Z M61.0392842,11.1648963 C61.0392842,8.11205574 59.303729,5.9669965 56.8055492,5.9669965 C54.1756627,5.9669965 52.5718143,8.11205574 52.4401075,11.1648963 C52.4401075,14.3828554 54.1756627,16.3627962 56.8055492,16.3627962 C59.303729,16.3627962 61.0392842,14.2177369 61.0392842,11.1648963 Z M74.0579306,13.1450592 L74.0579306,18.8101777 L70.6916192,18.8101777 L70.6916192,13.1450592 L64.8533278,3.3823371 L68.6409592,3.3823371 L72.2961757,9.79011847 L76.0830991,3.3823371 L80.0279289,3.3823371 L74.0579306,13.1450592 Z M95.6757538,11.1648963 C95.6757538,15.7578554 92.1784437,19.4148963 87.7860942,19.4148963 C83.3937446,19.4148963 80.0274332,15.7578554 80.0274332,11.3026185 C80.0274332,6.57267771 83.5523592,2.91489634 87.7860942,2.91489634 C92.1784437,2.91489634 95.6757538,6.57267771 95.6757538,11.1648963 Z M92.0205372,11.1648963 C92.0205372,8.11205574 90.4159807,5.9669965 87.9178009,5.9669965 C85.2879144,5.9669965 83.5523592,8.11205574 83.5523592,11.1648963 C83.5523592,14.3828554 85.1562076,16.3627962 87.7860942,16.3627962 C90.4159807,16.3627962 92.0205372,14.2177369 92.0205372,11.1648963 Z M108.956752,6.26998519 L104.302405,6.26998519 L104.302405,18.8101037 L100.936093,18.8101037 L100.936093,6.26998519 L96.412037,6.26998519 L96.412037,3.3830035 L108.956752,3.3830035 L108.956752,6.26998519 Z M118.030002,3.38263328 L124,18.8097334 L120.370983,18.8097334 L119.055332,15.4273963 L112.770229,15.4273963 L111.586284,18.8097334 L107.931068,18.8097334 L113.927265,3.38263328 L118.030002,3.38263328 Z M115.979342,6.73757404 L113.796267,12.6773963 L118.030002,12.6773963 L115.979342,6.73757404 Z"></path>
            </g>
        </g>
    </g>
</svg>