<?xml version="1.0" encoding="UTF-8"?>
<svg width="69px" height="22px" viewBox="0 0 69 22" version="1.1" xmlns="http://www.w3.org/2000/svg" xmlns:xlink="http://www.w3.org/1999/xlink">
    <!-- Generator: Sketch 52.2 (67145) - http://www.bohemiancoding.com/sketch -->
    <title>visa</title>
    <desc>Created with Sketch.</desc>
    <g id="Mad/Studio-Website" stroke="none" stroke-width="1" fill="none" fill-rule="evenodd">
        <g id="SVG" transform="translate(-506.000000, -422.000000)" fill="#FFFFFF">
            <g id="visa" transform="translate(506.000000, 422.000000)">
                <path d="M6.16133907,3.94577676 C6.06095711,3.6558522 5.92203411,3.45370199 5.58917381,3.26796904 C4.01297488,2.43317248 2.24079474,1.75640941 0.280452595,1.27428548 L0.353335239,0.845075892 L9.22131939,0.845075892 L9.22190617,0.845075892 C10.4069671,0.896288433 11.3763861,1.2846502 11.7165297,2.57288808 L13.6452409,12.0008743 C13.6210962,11.9382312 13.5965189,11.8757201 13.5715097,11.8133443 C13.5933669,11.8795964 13.6143766,11.9457548 13.6345246,12.0118026 L14.2128446,14.8504128 L19.6049453,0.865745196 L25.4326267,0.865745196 L16.7685218,21.3349098 L10.9420139,21.3447061 L6.16133907,3.94577676 Z M49.678227,1.35531284 L49.6800252,1.35531284 L48.9493883,5.80348474 L48.4634958,5.56937165 C47.4384273,5.15296908 46.1318932,4.76277414 44.3394666,4.78899147 C42.1867376,4.78899147 41.1871279,5.69923618 41.1871279,6.55886971 C41.1752976,7.50813489 42.3532131,8.14585711 44.2742582,9.09511259 C47.4509201,10.5522452 48.9233617,12.3348877 48.8984708,14.6638944 C48.8593837,18.918803 45.1061622,21.6641055 39.3170948,21.6641055 C36.8449487,21.6379173 34.462334,21.1441237 33.1806908,20.5709894 L33.9486168,15.9783496 L34.653795,16.3045386 C36.45985,17.0714658 37.6253674,17.3835907 39.828446,17.3835907 C41.403385,17.3835907 43.1069427,16.7593409 43.1200033,15.3814519 C43.1200033,14.4833896 42.4029948,13.8328546 40.2639889,12.8312032 C38.1758058,11.8550612 35.4222888,10.2028748 35.4477475,7.26304215 C35.4862668,3.28066576 39.3158644,0.495673485 44.7465223,0.495673485 C46.8856228,0.495673485 48.5891805,0.938905414 49.678227,1.35531284 Z M27.6339071,0.691378135 L33.1291109,0.691378135 L29.6841387,21.1970821 L24.1888403,21.1970821 L27.6339071,0.691378135 Z M59.5286706,0.860258277 L63.7807505,0.860258277 L68.2247645,21.3525626 L63.1153219,21.3525626 C63.1153219,21.3525626 62.6152331,18.9980466 62.4493255,18.282235 C61.6552784,18.282235 56.0321185,18.2688499 55.4039789,18.2688499 C55.199552,18.8285021 54.2515222,21.3525626 54.2515222,21.3525626 L48.4754207,21.3525626 L56.646535,2.56429155 C57.2236624,1.22423298 58.2090759,0.860258277 59.5286706,0.860258277 Z M57.0044714,14.0803818 L61.5646113,14.0803818 C61.3465559,13.0525423 60.2965965,8.15926161 60.2965965,8.15926161 L59.9250317,6.39121654 C59.8027541,6.72383617 59.6419572,7.14463254 59.5022654,7.51034634 C59.3197955,7.98790328 59.1732895,8.37151237 59.1950572,8.34217185 C59.1950572,8.34217185 57.4666087,12.8958008 57.0044714,14.0803818 Z" id="Visa"></path>
            </g>
        </g>
    </g>
</svg>