<?xml version="1.0" encoding="UTF-8"?>
<svg width="30px" height="30px" viewBox="0 0 30 30" version="1.1" xmlns="http://www.w3.org/2000/svg" xmlns:xlink="http://www.w3.org/1999/xlink">
    <!-- Generator: Sketch 52.2 (67145) - http://www.bohemiancoding.com/sketch -->
    <title>Icons / Social Networks</title>
    <desc>Created with Sketch.</desc>
    <defs>
        <path d="M6.46153846,0 C8.21638462,0 8.43661538,0.00753846154 9.12638462,0.0393076923 C11.4751538,0.147 12.7787692,1.45330769 12.8843077,3.79776923 C12.9155385,4.487 12.9230769,4.70669231 12.9230769,6.46153846 C12.9230769,8.21638462 12.9155385,8.43661538 12.8837692,9.12584615 C12.7776923,11.4746154 11.4703077,12.7766154 9.12584615,12.8843077 C8.43661538,12.9155385 8.21638462,12.9230769 6.46153846,12.9230769 C4.70669231,12.9230769 4.487,12.9155385 3.79723077,12.8843077 C1.44846154,12.7766154 0.146461538,11.4724615 0.0387692308,9.12584615 C0.00753846154,8.43661538 0,8.21638462 0,6.46153846 C0,4.70669231 0.00753846154,4.487 0.0393076923,3.79723077 C0.147,1.44846154 1.45115385,0.146461538 3.79776923,0.0387692308 C4.487,0.00753846154 4.70669231,2.61542924e-16 6.46153846,2.61542924e-16 Z M6.46153846,3.14353846 C4.62915385,3.14353846 3.14353846,4.62915385 3.14353846,6.46153846 C3.14353846,8.29392308 4.62915385,9.78007692 6.46153846,9.78007692 C8.29392308,9.78007692 9.77953846,8.29446154 9.77953846,6.46153846 C9.77953846,4.62915385 8.29392308,3.14353846 6.46153846,3.14353846 Z M6.46153846,8.61538462 C5.27207692,8.61538462 4.30769231,7.65153846 4.30769231,6.46153846 C4.30769231,5.27207692 5.27207692,4.30769231 6.46153846,4.30769231 C7.651,4.30769231 8.61538462,5.27207692 8.61538462,6.46153846 C8.61538462,7.65153846 7.651,8.61538462 6.46153846,8.61538462 Z M9.91092308,2.23730769 C9.48230769,2.23730769 9.135,2.58461538 9.135,3.01269231 C9.135,3.44076923 9.48230769,3.78807692 9.91092308,3.78807692 C10.339,3.78807692 10.6857692,3.44076923 10.6857692,3.01269231 C10.6857692,2.58461538 10.339,2.23730769 9.91092308,2.23730769 Z" id="path-1"></path>
    </defs>
    <g id="Icons-/-Social-Networks" stroke="none" stroke-width="1" fill="none" fill-rule="evenodd">
        <g id="Facebook">
            <g id="Icons-/-Instagram" transform="translate(8.000000, 8.000000)">
                <g id="Instagram" transform="translate(0.538462, 0.538462)">
                    <mask id="mask-2" fill="white">
                        <use xlink:href="#path-1"></use>
                    </mask>
                    <use id="Shape" fill="#FFFFFF" xlink:href="#path-1"></use>
                </g>
            </g>
        </g>
    </g>
</svg>