<?xml version="1.0" encoding="UTF-8"?>
<svg width="30px" height="30px" viewBox="0 0 30 30" version="1.1" xmlns="http://www.w3.org/2000/svg" xmlns:xlink="http://www.w3.org/1999/xlink">
    <!-- Generator: Sketch 52.2 (67145) - http://www.bohemiancoding.com/sketch -->
    <title>Icons / Social Networks</title>
    <desc>Created with Sketch.</desc>
    <defs>
        <path d="M12.505674,0.538461538 C13.0329072,0.538461538 13.4615385,0.955844518 13.4615385,1.47039349 L13.4615385,12.5296065 C13.4615385,13.0441555 13.0329072,13.4620171 12.505674,13.4620171 L1.49217207,13.4620171 C0.966135498,13.4620171 0.538461538,13.0441555 0.538461538,12.5296065 L0.538461538,1.47039349 C0.538461538,0.955844518 0.966135498,0.538461538 1.49217207,0.538461538 L12.505674,0.538461538 Z M3.4125167,2.31760436 C2.79816916,2.31760436 2.30156957,2.8156399 2.30156957,3.42950879 C2.30156957,4.0426597 2.79816916,4.54069524 3.4125167,4.54069524 C4.02518897,4.54069524 4.52322451,4.0426597 4.52322451,3.42950879 C4.52322451,2.8156399 4.02518897,2.31760436 3.4125167,2.31760436 Z M2.45378034,11.5507668 L4.37125307,11.5507668 L4.37125307,5.38335893 L2.45378034,5.38335893 L2.45378034,11.5507668 Z M5.57338306,5.38335893 L5.57338306,11.5507668 L7.48941984,11.5507668 L7.48941984,8.50008975 C7.48941984,7.69571808 7.6416306,6.91599689 8.63913763,6.91599689 C9.62252448,6.91599689 9.63520871,7.83596259 9.63520871,8.55130532 L9.63520871,11.5507668 L11.5512455,11.5507668 L11.5512455,8.16814583 C11.5512455,6.50746894 11.1929758,5.23043019 9.2518099,5.23043019 C8.31939929,5.23043019 7.6940428,5.74162861 7.43820426,6.22674059 L7.4118785,6.22674059 L7.4118785,5.38335893 L5.57338306,5.38335893 Z" id="path-1"></path>
    </defs>
    <g id="Icons-/-Social-Networks" stroke="none" stroke-width="1" fill="none" fill-rule="evenodd">
        <g id="Facebook">
            <g id="Icons-/-Linkedin" transform="translate(8.000000, 8.000000)">
                <mask id="mask-2" fill="white">
                    <use xlink:href="#path-1"></use>
                </mask>
                <g id="Linkedin"></g>
                <g id="Colors-/-White" mask="url(#mask-2)" fill="#FFFFFF" fill-rule="evenodd">
                    <rect id="Rectangle-3" x="0" y="0" width="14" height="14"></rect>
                </g>
            </g>
        </g>
    </g>
</svg>